<svg xmlns="http://www.w3.org/2000/svg" xmlns:xlink="http://www.w3.org/1999/xlink" width="360" zoomAndPan="magnify" viewBox="0 0 270 119.999999" height="160" preserveAspectRatio="xMidYMid meet" version="1.0"><defs><clipPath id="id1"><path d="M 79.855469 86 L 109 86 L 109 115.105469 L 79.855469 115.105469 Z M 79.855469 86 " clip-rule="nonzero"/></clipPath><clipPath id="id2"><path d="M 161 45 L 190.105469 45 L 190.105469 75 L 161 75 Z M 161 45 " clip-rule="nonzero"/></clipPath><clipPath id="id3"><path d="M 90 4.855469 L 119 4.855469 L 119 34 L 90 34 Z M 90 4.855469 " clip-rule="nonzero"/></clipPath></defs><path fill="rgb(100%, 100%, 100%)" d="M 134.980469 49.308594 C 140.863281 49.308594 145.648438 54.09375 145.648438 59.980469 C 145.648438 65.863281 140.863281 70.648438 134.980469 70.648438 C 129.09375 70.648438 124.308594 65.863281 124.308594 59.980469 C 124.308594 54.09375 129.09375 49.308594 134.980469 49.308594 Z M 134.980469 74.203125 C 142.820312 74.203125 149.203125 67.820312 149.203125 59.980469 C 149.203125 52.136719 142.820312 45.753906 134.980469 45.753906 C 127.136719 45.753906 120.753906 52.136719 120.753906 59.980469 C 120.753906 67.820312 127.136719 74.203125 134.980469 74.203125 " fill-opacity="1" fill-rule="nonzero"/><path fill="rgb(100%, 100%, 100%)" d="M 134.980469 56.421875 C 136.9375 56.421875 138.535156 58.019531 138.535156 59.980469 C 138.535156 61.9375 136.9375 63.535156 134.980469 63.535156 C 133.019531 63.535156 131.421875 61.9375 131.421875 59.980469 C 131.421875 58.019531 133.019531 56.421875 134.980469 56.421875 Z M 134.980469 67.09375 C 138.902344 67.09375 142.09375 63.902344 142.09375 59.980469 C 142.09375 56.054688 138.902344 52.867188 134.980469 52.867188 C 131.054688 52.867188 127.867188 56.054688 127.867188 59.980469 C 127.867188 63.902344 131.054688 67.09375 134.980469 67.09375 " fill-opacity="1" fill-rule="nonzero"/><path fill="rgb(100%, 100%, 100%)" d="M 115.417969 64.054688 L 115.417969 55.902344 L 117.890625 55.035156 L 118.167969 54.214844 C 118.40625 53.53125 118.691406 52.84375 119.023438 52.179688 L 119.398438 51.402344 L 118.265625 49.03125 L 124.03125 43.265625 L 126.402344 44.398438 L 127.179688 44.023438 C 127.84375 43.691406 128.53125 43.40625 129.214844 43.167969 L 130.035156 42.890625 L 130.902344 40.417969 L 139.054688 40.417969 L 139.925781 42.890625 L 140.746094 43.167969 C 141.425781 43.40625 142.113281 43.691406 142.78125 44.023438 L 143.558594 44.398438 L 145.925781 43.265625 L 151.691406 49.03125 L 150.558594 51.402344 L 150.933594 52.179688 C 151.269531 52.84375 151.550781 53.53125 151.789062 54.214844 L 152.066406 55.035156 L 154.539062 55.902344 L 154.539062 64.054688 L 152.066406 64.925781 L 151.789062 65.746094 C 151.550781 66.425781 151.269531 67.113281 150.933594 67.78125 L 150.558594 68.558594 L 151.691406 70.925781 L 145.925781 76.691406 L 143.558594 75.558594 L 142.78125 75.933594 C 142.113281 76.269531 141.425781 76.550781 140.746094 76.789062 L 139.925781 77.066406 L 139.054688 79.539062 L 130.902344 79.539062 L 130.035156 77.066406 L 129.214844 76.789062 C 128.53125 76.550781 127.84375 76.269531 127.179688 75.933594 L 126.402344 75.558594 L 124.03125 76.691406 L 118.265625 70.925781 L 119.398438 68.558594 L 119.023438 67.78125 C 118.691406 67.113281 118.40625 66.425781 118.167969 65.746094 L 117.890625 64.925781 Z M 123.296875 80.984375 L 126.402344 79.496094 C 126.679688 79.621094 126.964844 79.742188 127.242188 79.84375 L 128.386719 83.097656 L 141.570312 83.097656 L 142.71875 79.84375 C 142.996094 79.742188 143.28125 79.621094 143.558594 79.496094 L 146.664062 80.984375 L 155.984375 71.664062 L 154.496094 68.558594 C 154.621094 68.28125 154.742188 67.996094 154.84375 67.71875 L 158.097656 66.570312 L 158.097656 53.386719 L 154.84375 52.242188 C 154.742188 51.964844 154.621094 51.679688 154.496094 51.402344 L 155.984375 48.296875 L 146.664062 38.972656 L 143.558594 40.460938 C 143.28125 40.335938 142.996094 40.21875 142.71875 40.113281 L 141.570312 36.863281 L 128.386719 36.863281 L 127.242188 40.113281 C 126.964844 40.21875 126.679688 40.335938 126.402344 40.460938 L 123.296875 38.972656 L 113.972656 48.296875 L 115.460938 51.402344 C 115.335938 51.679688 115.21875 51.964844 115.113281 52.242188 L 111.863281 53.386719 L 111.863281 66.570312 L 115.113281 67.71875 C 115.21875 67.996094 115.335938 68.28125 115.460938 68.558594 L 113.972656 71.664062 L 123.296875 80.984375 " fill-opacity="1" fill-rule="nonzero"/><g clip-path="url(#id1)"><path fill="rgb(100%, 100%, 100%)" d="M 104.75 109.769531 C 104.75 110.75 103.949219 111.546875 102.972656 111.546875 L 85.1875 111.546875 C 84.210938 111.546875 83.410156 110.75 83.410156 109.769531 L 83.410156 91.988281 C 83.410156 91.007812 84.210938 90.207031 85.1875 90.207031 L 102.972656 90.207031 C 103.949219 90.207031 104.75 91.007812 104.75 91.988281 Z M 102.972656 86.652344 L 85.1875 86.652344 C 82.242188 86.652344 79.855469 89.042969 79.855469 91.988281 L 79.855469 109.769531 C 79.855469 112.714844 82.242188 115.105469 85.1875 115.105469 L 102.972656 115.105469 C 105.917969 115.105469 108.304688 112.714844 108.304688 109.769531 L 108.304688 91.988281 C 108.304688 89.042969 105.917969 86.652344 102.972656 86.652344 " fill-opacity="1" fill-rule="nonzero"/></g><g clip-path="url(#id2)"><path fill="rgb(100%, 100%, 100%)" d="M 186.546875 68.871094 C 186.546875 69.851562 185.75 70.648438 184.769531 70.648438 L 166.988281 70.648438 C 166.007812 70.648438 165.207031 69.851562 165.207031 68.871094 L 165.207031 51.089844 C 165.207031 50.109375 166.007812 49.308594 166.988281 49.308594 L 184.769531 49.308594 C 185.75 49.308594 186.546875 50.109375 186.546875 51.089844 Z M 184.769531 45.753906 L 166.988281 45.753906 C 164.042969 45.753906 161.652344 48.144531 161.652344 51.089844 L 161.652344 68.871094 C 161.652344 71.816406 164.042969 74.203125 166.988281 74.203125 L 184.769531 74.203125 C 187.714844 74.203125 190.105469 71.816406 190.105469 68.871094 L 190.105469 51.089844 C 190.105469 48.144531 187.714844 45.753906 184.769531 45.753906 " fill-opacity="1" fill-rule="nonzero"/></g><g clip-path="url(#id3)"><path fill="rgb(100%, 100%, 100%)" d="M 94.078125 10.1875 C 94.078125 9.210938 94.878906 8.410156 95.859375 8.410156 L 113.640625 8.410156 C 114.621094 8.410156 115.417969 9.210938 115.417969 10.1875 L 115.417969 27.972656 C 115.417969 28.949219 114.621094 29.75 113.640625 29.75 L 95.859375 29.75 C 94.878906 29.75 94.078125 28.949219 94.078125 27.972656 Z M 95.859375 33.304688 L 113.640625 33.304688 C 116.585938 33.304688 118.976562 30.917969 118.976562 27.972656 L 118.976562 10.1875 C 118.976562 7.242188 116.585938 4.855469 113.640625 4.855469 L 95.859375 4.855469 C 92.914062 4.855469 90.523438 7.242188 90.523438 10.1875 L 90.523438 27.972656 C 90.523438 30.917969 92.914062 33.304688 95.859375 33.304688 " fill-opacity="1" fill-rule="nonzero"/></g><path fill="rgb(100%, 100%, 100%)" d="M 90.523438 103.699219 L 88.222656 101.398438 L 85.710938 103.914062 L 90.523438 108.726562 L 102.449219 96.800781 L 99.933594 94.285156 L 90.523438 103.699219 " fill-opacity="1" fill-rule="nonzero"/><path fill="rgb(100%, 100%, 100%)" d="M 113.121094 15.003906 L 110.605469 12.488281 L 101.191406 21.898438 L 98.894531 19.601562 L 96.378906 22.117188 L 101.191406 26.929688 L 113.121094 15.003906 " fill-opacity="1" fill-rule="nonzero"/><path fill="rgb(100%, 100%, 100%)" d="M 172.320312 62.800781 L 170.023438 60.5 L 167.507812 63.015625 L 172.320312 67.828125 L 184.25 55.902344 L 181.734375 53.386719 L 172.320312 62.800781 " fill-opacity="1" fill-rule="nonzero"/><path fill="rgb(100%, 100%, 100%)" d="M 161.222656 83.152344 L 162.082031 86.597656 L 172.191406 84.070312 C 164.027344 96.71875 150.128906 104.433594 134.980469 104.433594 C 128.46875 104.433594 122.203125 103.058594 116.34375 100.351562 L 114.847656 103.582031 C 121.183594 106.503906 127.949219 107.992188 134.980469 107.992188 C 151.085938 107.992188 165.882812 99.917969 174.753906 86.644531 L 175.890625 95.765625 L 179.421875 95.320312 L 177.390625 79.109375 L 161.222656 83.152344 " fill-opacity="1" fill-rule="nonzero"/><path fill="rgb(100%, 100%, 100%)" d="M 99.367188 67.5 L 95.90625 66.683594 L 93.738281 75.761719 C 91.613281 70.496094 90.523438 65.203125 90.523438 59.980469 C 90.523438 53.414062 91.917969 47.101562 94.671875 41.195312 L 91.449219 39.695312 C 88.472656 46.066406 86.96875 52.894531 86.96875 59.980469 C 86.96875 65.640625 88.132812 71.351562 90.40625 77.011719 L 82.492188 72.648438 L 80.769531 75.761719 L 95.457031 83.859375 L 99.367188 67.5 " fill-opacity="1" fill-rule="nonzero"/><path fill="rgb(100%, 100%, 100%)" d="M 137.742188 19.378906 L 131.957031 15.523438 L 134.980469 15.523438 C 151.613281 15.523438 166.730469 24.691406 174.425781 39.460938 L 177.582031 37.8125 C 169.273438 21.871094 152.949219 11.96875 134.980469 11.96875 L 131.957031 11.96875 L 137.742188 8.113281 L 135.769531 5.152344 L 122.886719 13.746094 L 135.769531 22.335938 L 137.742188 19.378906 " fill-opacity="1" fill-rule="nonzero"/></svg>