<svg xmlns="http://www.w3.org/2000/svg" xmlns:xlink="http://www.w3.org/1999/xlink" width="360" zoomAndPan="magnify" viewBox="0 0 270 119.999999" height="160" preserveAspectRatio="xMidYMid meet" version="1.0"><defs><clipPath id="id1"><path d="M 90.140625 15.140625 L 180.140625 15.140625 L 180.140625 105.140625 L 90.140625 105.140625 Z M 90.140625 15.140625 " clip-rule="nonzero"/></clipPath></defs><g clip-path="url(#id1)"><path fill="rgb(100%, 100%, 100%)" d="M 121.566406 82.539062 C 122.03125 82.785156 122.597656 82.992188 123.300781 83.167969 C 124.808594 83.542969 126.855469 83.769531 129.109375 83.769531 C 131.363281 83.769531 133.40625 83.542969 134.917969 83.167969 C 135.613281 82.992188 136.1875 82.785156 136.652344 82.539062 L 136.652344 95.335938 C 136.652344 95.335938 136.652344 95.386719 136.53125 95.488281 C 136.410156 95.601562 136.1875 95.746094 135.875 95.882812 C 135.246094 96.152344 134.269531 96.410156 133.054688 96.578125 C 130.628906 96.9375 127.589844 96.9375 125.152344 96.578125 C 123.941406 96.410156 122.964844 96.152344 122.339844 95.882812 C 122.03125 95.746094 121.804688 95.601562 121.6875 95.488281 C 121.566406 95.386719 121.566406 95.335938 121.566406 95.335938 Z M 129.109375 79.75 C 131.296875 79.75 133.28125 79.972656 134.679688 80.324219 C 135.375 80.5 135.925781 80.707031 136.261719 80.90625 C 136.605469 81.109375 136.652344 81.25 136.652344 81.257812 C 136.652344 81.265625 136.605469 81.410156 136.261719 81.609375 C 135.925781 81.8125 135.375 82.019531 134.679688 82.195312 C 133.28125 82.546875 131.296875 82.769531 129.109375 82.769531 C 126.917969 82.769531 124.9375 82.546875 123.539062 82.195312 C 122.84375 82.019531 122.292969 81.8125 121.949219 81.609375 C 121.613281 81.410156 121.566406 81.265625 121.566406 81.257812 C 121.566406 81.25 121.613281 81.109375 121.949219 80.90625 C 122.292969 80.707031 122.84375 80.5 123.539062 80.324219 C 124.9375 79.972656 126.917969 79.75 129.109375 79.75 Z M 149.554688 75.554688 C 150.019531 75.800781 150.585938 76.019531 151.289062 76.1875 C 152.800781 76.570312 154.84375 76.792969 157.097656 76.792969 C 159.351562 76.792969 161.398438 76.570312 162.90625 76.1875 C 163.609375 76.019531 164.175781 75.800781 164.640625 75.554688 L 164.640625 88.355469 C 164.640625 88.355469 164.640625 88.402344 164.519531 88.515625 C 164.402344 88.625 164.175781 88.761719 163.867188 88.90625 C 163.234375 89.175781 162.269531 89.425781 161.046875 89.601562 C 158.617188 89.953125 155.582031 89.953125 153.144531 89.601562 C 151.9375 89.425781 150.953125 89.175781 150.332031 88.90625 C 150.019531 88.761719 149.796875 88.625 149.675781 88.515625 C 149.554688 88.402344 149.554688 88.355469 149.554688 88.355469 Z M 157.097656 72.773438 C 159.28125 72.773438 161.269531 72.996094 162.667969 73.347656 C 163.363281 73.515625 163.921875 73.734375 164.25 73.925781 C 164.59375 74.132812 164.640625 74.277344 164.640625 74.277344 C 164.640625 74.285156 164.59375 74.429688 164.25 74.628906 C 163.921875 74.828125 163.363281 75.035156 162.667969 75.210938 C 161.269531 75.5625 159.28125 75.792969 157.097656 75.792969 C 154.910156 75.792969 152.925781 75.5625 151.527344 75.210938 C 150.835938 75.035156 150.28125 74.828125 149.9375 74.628906 C 149.605469 74.429688 149.554688 74.285156 149.554688 74.277344 C 149.554688 74.277344 149.605469 74.132812 149.9375 73.925781 C 150.28125 73.734375 150.835938 73.515625 151.527344 73.347656 C 152.925781 72.996094 154.910156 72.773438 157.097656 72.773438 Z M 100.449219 69.457031 C 100.914062 69.714844 101.480469 69.921875 102.183594 70.097656 C 103.691406 70.472656 105.738281 70.695312 107.992188 70.695312 C 110.246094 70.695312 112.289062 70.472656 113.800781 70.097656 C 114.503906 69.921875 115.070312 69.714844 115.535156 69.457031 L 115.535156 82.265625 C 115.535156 82.265625 115.535156 82.3125 115.414062 82.417969 C 115.292969 82.53125 115.070312 82.671875 114.757812 82.808594 C 114.128906 83.082031 113.160156 83.335938 111.9375 83.503906 C 109.507812 83.855469 106.472656 83.855469 104.042969 83.503906 C 102.820312 83.335938 101.855469 83.082031 101.222656 82.808594 C 100.914062 82.671875 100.6875 82.53125 100.570312 82.417969 C 100.449219 82.3125 100.449219 82.265625 100.449219 82.265625 Z M 107.992188 66.675781 C 110.179688 66.675781 112.164062 66.902344 113.558594 67.253906 C 114.253906 67.429688 114.808594 67.636719 115.152344 67.835938 C 115.484375 68.035156 115.535156 68.179688 115.535156 68.1875 C 115.535156 68.1875 115.484375 68.339844 115.152344 68.53125 C 114.808594 68.738281 114.253906 68.945312 113.558594 69.121094 C 112.164062 69.464844 110.179688 69.691406 107.992188 69.691406 C 105.800781 69.691406 103.820312 69.464844 102.421875 69.121094 C 101.726562 68.945312 101.175781 68.738281 100.832031 68.53125 C 100.496094 68.339844 100.449219 68.1875 100.449219 68.1875 C 100.449219 68.179688 100.496094 68.035156 100.832031 67.835938 C 101.175781 67.636719 101.726562 67.429688 102.421875 67.253906 C 103.820312 66.902344 105.800781 66.675781 107.992188 66.675781 Z M 117.101562 48.597656 L 123.421875 48.628906 L 126.550781 54.109375 L 123.363281 59.558594 L 117.050781 59.535156 L 113.929688 54.054688 Z M 141.300781 48.4375 L 147.605469 48.46875 L 150.746094 53.941406 L 147.566406 59.398438 L 141.253906 59.367188 L 138.121094 53.894531 Z M 165.558594 48.378906 L 171.871094 48.414062 L 175.003906 53.894531 L 171.824219 59.34375 L 165.511719 59.3125 L 162.378906 53.828125 Z M 129.230469 41.558594 L 135.542969 41.589844 L 138.671875 47.070312 L 135.492188 52.519531 L 129.179688 52.496094 L 126.050781 47.015625 Z M 105.097656 41.558594 L 111.410156 41.589844 L 114.542969 47.070312 L 111.363281 52.519531 L 105.050781 52.496094 L 101.917969 47.015625 Z M 153.488281 41.460938 L 159.800781 41.484375 L 162.929688 46.964844 L 159.75 52.414062 L 153.4375 52.390625 L 150.296875 46.910156 Z M 164.808594 35.757812 L 172.589844 35.757812 L 175.003906 39.976562 L 171.824219 45.425781 L 165.511719 45.390625 L 162.378906 39.917969 Z M 117.101562 34.675781 L 123.421875 34.710938 L 126.550781 40.183594 L 123.371094 45.640625 L 117.050781 45.617188 L 113.929688 40.132812 Z M 141.300781 34.515625 L 147.605469 34.550781 L 150.746094 40.03125 L 147.566406 45.480469 L 141.253906 45.457031 L 138.121094 39.976562 Z M 140.816406 33.671875 L 137.148438 39.964844 L 140.757812 46.292969 L 148.046875 46.328125 L 148.164062 46.117188 L 151.714844 40.03125 L 148.101562 33.703125 Z M 146.710938 20.421875 L 159.527344 20.421875 L 159.527344 29.476562 L 146.710938 29.476562 Z M 129.613281 20.421875 L 143.691406 20.421875 L 143.691406 29.476562 L 129.613281 29.476562 Z M 112.515625 20.421875 L 126.59375 20.421875 L 126.59375 29.476562 L 112.515625 29.476562 Z M 95.421875 20.421875 L 109.5 20.421875 L 109.5 29.476562 L 95.421875 29.476562 Z M 128.605469 19.417969 L 128.605469 30.472656 L 136.898438 30.472656 L 136.898438 32.734375 L 131.875 32.734375 L 131.875 40.726562 L 128.75 40.710938 L 125.082031 47.007812 L 128.695312 53.335938 L 131.875 53.34375 L 131.875 68.9375 L 120.3125 68.9375 L 120.3125 60.390625 L 123.851562 60.40625 L 123.972656 60.199219 L 127.519531 54.109375 L 123.90625 47.78125 L 116.621094 47.75 L 112.953125 54.046875 L 116.566406 60.375 L 119.808594 60.390625 L 119.808594 69.441406 L 128.851562 69.441406 L 128.851562 78.75 C 126.703125 78.765625 124.753906 78.988281 123.300781 79.351562 C 122.542969 79.542969 121.917969 79.765625 121.4375 80.042969 C 120.96875 80.324219 120.558594 80.707031 120.558594 81.257812 L 120.558594 95.296875 C 120.558594 95.3125 120.558594 95.320312 120.558594 95.335938 C 120.558594 95.699219 120.75 96 121 96.234375 C 121.246094 96.457031 121.558594 96.640625 121.941406 96.808594 C 122.699219 97.136719 123.738281 97.390625 125.011719 97.574219 C 127.558594 97.941406 130.660156 97.941406 133.199219 97.574219 C 134.476562 97.390625 135.515625 97.136719 136.277344 96.808594 C 136.652344 96.640625 136.972656 96.457031 137.21875 96.234375 C 137.464844 96 137.652344 95.699219 137.652344 95.335938 L 137.652344 81.257812 C 137.652344 80.707031 137.25 80.324219 136.773438 80.042969 C 136.300781 79.765625 135.675781 79.542969 134.917969 79.351562 C 133.464844 78.988281 131.515625 78.765625 129.355469 78.75 L 129.355469 69.441406 L 132.378906 69.441406 L 132.378906 53.351562 L 135.980469 53.367188 L 136.101562 53.160156 L 139.65625 47.070312 L 136.035156 40.742188 L 132.378906 40.726562 L 132.378906 33.238281 L 137.402344 33.238281 L 137.402344 30.472656 L 144.691406 30.472656 L 144.691406 19.417969 Z M 111.507812 19.417969 L 111.507812 30.472656 L 119.808594 30.472656 L 119.808594 33.847656 L 116.621094 33.832031 L 112.953125 40.125 L 116.566406 46.453125 L 123.851562 46.488281 L 123.972656 46.277344 L 127.519531 40.191406 L 123.90625 33.871094 L 120.3125 33.855469 L 120.3125 30.472656 L 127.597656 30.472656 L 127.597656 19.417969 Z M 94.417969 19.417969 L 94.417969 30.472656 L 101.703125 30.472656 L 101.703125 35.253906 L 107.742188 35.253906 L 107.742188 40.726562 L 104.613281 40.710938 L 100.945312 47.007812 L 104.5625 53.335938 L 107.742188 53.34375 L 107.742188 65.679688 C 105.585938 65.695312 103.636719 65.910156 102.183594 66.277344 C 101.421875 66.46875 100.800781 66.695312 100.320312 66.972656 C 99.847656 67.253906 99.441406 67.636719 99.441406 68.1875 L 99.441406 82.226562 C 99.441406 82.242188 99.441406 82.25 99.441406 82.265625 C 99.441406 82.617188 99.640625 82.929688 99.882812 83.160156 C 100.128906 83.382812 100.441406 83.570312 100.824219 83.726562 C 101.582031 84.0625 102.621094 84.320312 103.902344 84.503906 C 106.441406 84.871094 109.542969 84.871094 112.082031 84.503906 C 113.359375 84.320312 114.398438 84.0625 115.160156 83.726562 C 115.542969 83.570312 115.855469 83.382812 116.101562 83.160156 C 116.339844 82.929688 116.539062 82.617188 116.539062 82.265625 L 116.539062 68.1875 C 116.539062 67.636719 116.132812 67.253906 115.660156 66.972656 C 115.183594 66.695312 114.558594 66.46875 113.800781 66.277344 C 112.347656 65.910156 110.394531 65.695312 108.238281 65.679688 L 108.238281 53.351562 L 111.84375 53.367188 L 111.96875 53.160156 L 115.519531 47.070312 L 111.898438 40.742188 L 108.238281 40.726562 L 108.238281 34.75 L 102.207031 34.75 L 102.207031 30.472656 L 110.507812 30.472656 L 110.507812 19.417969 Z M 161.039062 17.441406 L 177.351562 34.246094 L 161.039062 34.246094 Z M 91.652344 16.652344 L 159.527344 16.652344 L 159.527344 19.417969 L 145.695312 19.417969 L 145.695312 30.472656 L 154 30.472656 L 154 36.257812 L 157.019531 36.257812 L 157.019531 40.628906 L 153 40.613281 L 149.324219 46.910156 L 152.945312 53.230469 L 156.011719 53.246094 L 156.011719 68.9375 L 144.441406 68.9375 L 144.441406 60.230469 L 148.046875 60.246094 L 148.164062 60.039062 L 151.714844 53.949219 L 148.101562 47.621094 L 140.816406 47.589844 L 137.148438 53.886719 L 140.757812 60.214844 L 143.9375 60.230469 L 143.9375 69.441406 L 157.019531 69.441406 L 157.019531 71.765625 C 154.789062 71.773438 152.785156 72 151.289062 72.367188 C 150.53125 72.558594 149.90625 72.78125 149.429688 73.070312 C 148.957031 73.347656 148.550781 73.734375 148.550781 74.277344 L 148.550781 88.324219 C 148.550781 88.332031 148.550781 88.347656 148.550781 88.355469 C 148.550781 88.714844 148.75 89.027344 148.988281 89.25 C 149.234375 89.480469 149.546875 89.65625 149.929688 89.824219 C 150.691406 90.152344 151.730469 90.414062 153 90.601562 C 155.546875 90.96875 158.648438 90.96875 161.1875 90.601562 C 162.46875 90.414062 163.5 90.152344 164.265625 89.824219 C 164.640625 89.65625 164.960938 89.480469 165.207031 89.25 C 165.457031 89.027344 165.640625 88.714844 165.640625 88.355469 L 165.640625 74.277344 C 165.640625 73.734375 165.25 73.347656 164.769531 73.070312 C 164.289062 72.78125 163.667969 72.558594 162.90625 72.367188 C 161.492188 72.015625 159.597656 71.808594 157.515625 71.773438 L 157.515625 69.441406 L 168.570312 69.441406 L 168.570312 60.171875 L 172.304688 60.191406 L 172.429688 59.972656 L 175.980469 53.894531 L 172.367188 47.566406 L 165.082031 47.535156 L 161.40625 53.828125 L 165.015625 60.15625 L 168.078125 60.164062 L 168.078125 68.9375 L 156.515625 68.9375 L 156.515625 53.246094 L 160.230469 53.261719 L 160.359375 53.054688 L 163.898438 46.964844 L 160.285156 40.644531 L 157.515625 40.628906 L 157.515625 35.757812 L 154.5 35.757812 L 154.5 30.472656 L 159.527344 30.472656 L 159.527344 35.757812 L 163.832031 35.757812 L 161.40625 39.910156 L 165.015625 46.238281 L 171.335938 46.261719 L 171.328125 46.269531 L 172.304688 46.269531 L 175.980469 39.976562 L 173.566406 35.757812 L 178.632812 35.757812 L 178.632812 103.632812 L 91.652344 103.632812 Z M 90.140625 15.140625 L 90.140625 105.140625 L 180.140625 105.140625 L 180.140625 34.957031 L 160.902344 15.140625 L 90.140625 15.140625 " fill-opacity="1" fill-rule="nonzero"/></g></svg>