<svg xmlns="http://www.w3.org/2000/svg" xmlns:xlink="http://www.w3.org/1999/xlink" width="360" zoomAndPan="magnify" viewBox="0 0 270 119.999999" height="160" preserveAspectRatio="xMidYMid meet" version="1.0"><defs><clipPath id="id1"><path d="M 67.269531 15.140625 L 202.859375 15.140625 L 202.859375 96.890625 L 67.269531 96.890625 Z M 67.269531 15.140625 " clip-rule="nonzero"/></clipPath></defs><g clip-path="url(#id1)"><path fill="rgb(100%, 100%, 100%)" d="M 202.859375 70.125 C 202.859375 56.195312 191.5625 44.902344 177.628906 44.902344 C 176.214844 44.902344 174.832031 45.023438 173.484375 45.246094 C 172.386719 33.734375 162.683594 24.726562 150.878906 24.726562 C 147.183594 24.726562 143.703125 25.613281 140.617188 27.175781 C 136.179688 19.957031 128.207031 15.140625 119.105469 15.140625 C 105.171875 15.140625 93.871094 26.433594 93.871094 40.363281 C 93.871094 40.710938 93.882812 41.054688 93.898438 41.398438 C 79.09375 41.992188 67.269531 54.171875 67.269531 69.117188 C 67.269531 84.4375 79.699219 96.859375 95.027344 96.859375 C 95.117188 96.859375 176.066406 96.925781 177.851562 96.859375 C 191.683594 96.742188 202.859375 83.980469 202.859375 70.125 " fill-opacity="1" fill-rule="nonzero"/></g><path fill="rgb(65.098572%, 65.098572%, 65.098572%)" d="M 128.117188 76.390625 C 124.785156 76.390625 122.085938 73.691406 122.085938 70.363281 C 122.085938 67.03125 124.785156 64.332031 128.117188 64.332031 C 131.449219 64.332031 134.148438 67.03125 134.148438 70.363281 C 134.148438 73.691406 131.449219 76.390625 128.117188 76.390625 Z M 140.683594 66.449219 C 140.96875 66.351562 141.144531 66.074219 141.042969 65.789062 C 140.726562 64.902344 140.320312 64.054688 139.839844 63.261719 C 139.679688 63 139.359375 62.960938 139.101562 63.117188 C 137.933594 63.824219 136.4375 63.777344 135.320312 62.96875 C 135.074219 62.789062 134.726562 62.441406 134.546875 62.195312 C 133.804688 61.171875 133.703125 59.832031 134.234375 58.714844 C 134.367188 58.441406 134.292969 58.128906 134.019531 57.996094 C 133.183594 57.597656 132.300781 57.277344 131.382812 57.050781 C 131.085938 56.980469 130.832031 57.179688 130.757812 57.472656 C 130.394531 58.972656 129.046875 60.085938 127.433594 60.085938 C 125.941406 60.085938 124.671875 59.132812 124.203125 57.800781 C 124.101562 57.515625 123.828125 57.34375 123.542969 57.445312 C 122.652344 57.761719 121.804688 58.164062 121.011719 58.648438 C 120.75 58.804688 120.710938 59.125 120.867188 59.382812 C 121.667969 60.703125 121.5 62.441406 120.363281 63.582031 C 119.308594 64.636719 117.738281 64.855469 116.464844 64.25 C 116.191406 64.117188 115.875 64.191406 115.746094 64.464844 C 115.34375 65.300781 115.023438 66.179688 114.800781 67.101562 C 114.726562 67.394531 114.925781 67.652344 115.222656 67.722656 C 116.722656 68.085938 117.835938 69.4375 117.835938 71.046875 C 117.835938 72.539062 116.878906 73.808594 115.546875 74.277344 C 115.261719 74.378906 115.089844 74.652344 115.191406 74.9375 C 115.507812 75.824219 115.914062 76.671875 116.398438 77.464844 C 116.554688 77.722656 116.878906 77.761719 117.136719 77.609375 C 118.453125 76.808594 120.191406 76.976562 121.332031 78.113281 C 122.386719 79.167969 122.605469 80.738281 122 82.007812 C 121.871094 82.28125 121.941406 82.597656 122.21875 82.726562 C 123.054688 83.128906 123.933594 83.449219 124.855469 83.675781 C 125.148438 83.746094 125.402344 83.546875 125.476562 83.253906 C 125.839844 81.753906 127.191406 80.640625 128.800781 80.640625 C 130.292969 80.640625 131.5625 81.59375 132.03125 82.925781 C 132.132812 83.210938 132.40625 83.382812 132.691406 83.28125 C 133.582031 82.964844 134.429688 82.5625 135.222656 82.078125 C 135.484375 81.921875 135.523438 81.601562 135.367188 81.34375 C 134.660156 80.175781 134.707031 78.679688 135.515625 77.5625 C 135.695312 77.316406 136.042969 76.96875 136.289062 76.789062 C 137.3125 76.050781 138.65625 75.945312 139.769531 76.476562 C 140.042969 76.609375 140.359375 76.535156 140.488281 76.261719 C 140.890625 75.425781 141.207031 74.542969 141.433594 73.625 C 141.507812 73.332031 141.308594 73.074219 141.011719 73.003906 C 139.511719 72.636719 138.398438 71.289062 138.398438 69.679688 C 138.398438 68.1875 139.355469 66.917969 140.683594 66.449219 " fill-opacity="1" fill-rule="nonzero"/><path fill="rgb(65.098572%, 65.098572%, 65.098572%)" d="M 145.667969 59.40625 C 143.179688 59.933594 140.734375 58.347656 140.203125 55.859375 C 139.675781 53.371094 141.261719 50.925781 143.753906 50.394531 C 146.242188 49.867188 148.6875 51.457031 149.21875 53.945312 C 149.746094 56.429688 148.15625 58.878906 145.667969 59.40625 Z M 153.480469 49.984375 C 153.675781 49.863281 153.761719 49.628906 153.640625 49.433594 C 153.265625 48.820312 152.828125 48.25 152.339844 47.734375 C 152.179688 47.5625 151.9375 47.585938 151.765625 47.746094 C 151.007812 48.460938 149.882812 48.660156 148.917969 48.230469 C 148.707031 48.136719 148.390625 47.933594 148.21875 47.777344 C 147.5 47.128906 147.210938 46.144531 147.429688 45.226562 C 147.484375 45.003906 147.382812 44.777344 147.15625 44.722656 C 146.46875 44.558594 145.757812 44.460938 145.035156 44.4375 C 144.804688 44.429688 144.644531 44.621094 144.636719 44.851562 C 144.601562 46.027344 143.769531 47.074219 142.566406 47.332031 C 141.449219 47.566406 140.351562 47.058594 139.789062 46.136719 C 139.667969 45.941406 139.4375 45.855469 139.238281 45.972656 C 138.625 46.351562 138.054688 46.789062 137.539062 47.273438 C 137.371094 47.433594 137.390625 47.679688 137.550781 47.847656 C 138.359375 48.707031 138.507812 50.03125 137.839844 51.0625 C 137.21875 52.019531 136.082031 52.433594 135.035156 52.183594 C 134.808594 52.128906 134.582031 52.230469 134.527344 52.457031 C 134.363281 53.144531 134.265625 53.855469 134.242188 54.578125 C 134.234375 54.808594 134.425781 54.96875 134.65625 54.976562 C 135.835938 55.011719 136.882812 55.84375 137.136719 57.046875 C 137.375 58.160156 136.863281 59.257812 135.941406 59.820312 C 135.746094 59.941406 135.660156 60.171875 135.78125 60.371094 C 136.15625 60.984375 136.59375 61.550781 137.082031 62.066406 C 137.242188 62.238281 137.488281 62.214844 137.65625 62.058594 C 138.515625 61.25 139.839844 61.101562 140.871094 61.769531 C 141.828125 62.390625 142.242188 63.527344 141.992188 64.574219 C 141.9375 64.796875 142.039062 65.023438 142.265625 65.078125 C 142.953125 65.242188 143.664062 65.34375 144.386719 65.363281 C 144.617188 65.371094 144.777344 65.183594 144.785156 64.953125 C 144.820312 63.773438 145.652344 62.726562 146.855469 62.472656 C 147.972656 62.234375 149.070312 62.746094 149.632812 63.664062 C 149.753906 63.863281 149.984375 63.949219 150.183594 63.828125 C 150.796875 63.449219 151.367188 63.015625 151.882812 62.527344 C 152.050781 62.371094 152.03125 62.121094 151.871094 61.953125 C 151.15625 61.195312 150.957031 60.070312 151.382812 59.105469 C 151.476562 58.894531 151.683594 58.578125 151.835938 58.40625 C 152.488281 57.691406 153.472656 57.398438 154.390625 57.621094 C 154.613281 57.675781 154.839844 57.570312 154.894531 57.34375 C 155.058594 56.65625 155.15625 55.949219 155.179688 55.222656 C 155.1875 54.992188 154.996094 54.835938 154.765625 54.828125 C 153.585938 54.792969 152.542969 53.960938 152.285156 52.757812 C 152.046875 51.644531 152.558594 50.546875 153.480469 49.984375 " fill-opacity="1" fill-rule="nonzero"/></svg>