<svg xmlns="http://www.w3.org/2000/svg" xmlns:xlink="http://www.w3.org/1999/xlink" width="360" zoomAndPan="magnify" viewBox="0 0 270 119.999999" height="160" preserveAspectRatio="xMidYMid meet" version="1.0"><path fill="rgb(85.099792%, 85.099792%, 85.099792%)" d="M 85.988281 90.613281 C 88.859375 97.691406 95.609375 101.023438 99.921875 103.152344 C 116.921875 111.546875 148.449219 107.238281 167.109375 91.789062 C 171.476562 88.171875 187.472656 72.597656 182.542969 47.046875 C 178.1875 24.460938 156.148438 11.179688 137.429688 9.488281 C 121.921875 8.085938 101.359375 13.960938 94.164062 27.769531 C 89.636719 36.449219 95.039062 39.1875 91.304688 58.84375 C 88.070312 75.855469 82.472656 81.957031 85.988281 90.613281 " fill-opacity="1" fill-rule="nonzero"/><path fill="rgb(85.099792%, 85.099792%, 85.099792%)" d="M 138.621094 88.414062 L 138.628906 95.515625 C 138.632812 97.667969 136.132812 99.828125 131.117188 101.496094 C 121.085938 104.835938 104.714844 104.976562 94.226562 101.855469 C 94.054688 101.804688 93.886719 101.75 93.714844 101.699219 C 88.402344 100.03125 85.734375 97.8125 85.730469 95.589844 L 85.726562 88.488281 C 85.730469 90.710938 88.398438 92.929688 93.710938 94.59375 C 93.878906 94.648438 94.050781 94.699219 94.222656 94.75 C 104.710938 97.875 121.082031 97.734375 131.113281 94.394531 C 136.128906 92.726562 138.625 90.566406 138.621094 88.414062 " fill-opacity="1" fill-rule="nonzero"/><path fill="rgb(100%, 100%, 100%)" d="M 130.125 82.152344 C 130.296875 82.203125 130.464844 82.253906 130.636719 82.308594 C 141.097656 85.589844 141.308594 91 131.113281 94.394531 C 121.082031 97.734375 104.710938 97.875 94.222656 94.75 C 94.050781 94.699219 93.878906 94.648438 93.710938 94.59375 C 83.253906 91.3125 83.039062 85.902344 93.234375 82.507812 C 103.265625 79.171875 119.636719 79.03125 130.125 82.152344 " fill-opacity="1" fill-rule="nonzero"/><path fill="rgb(85.099792%, 85.099792%, 85.099792%)" d="M 138.640625 79.089844 L 138.644531 86.195312 C 138.648438 88.347656 136.152344 90.503906 131.132812 92.171875 C 121.101562 95.511719 104.730469 95.652344 94.242188 92.53125 C 94.070312 92.480469 93.902344 92.425781 93.734375 92.375 C 88.417969 90.707031 85.75 88.488281 85.746094 86.265625 L 85.742188 79.164062 C 85.746094 81.386719 88.414062 83.605469 93.726562 85.273438 C 93.894531 85.324219 94.066406 85.378906 94.238281 85.429688 C 104.726562 88.550781 121.097656 88.410156 131.128906 85.070312 C 136.144531 83.402344 138.640625 81.242188 138.640625 79.089844 " fill-opacity="1" fill-rule="nonzero"/><path fill="rgb(100%, 100%, 100%)" d="M 130.140625 72.828125 C 130.3125 72.878906 130.480469 72.929688 130.652344 72.984375 C 141.113281 76.265625 141.324219 81.675781 131.128906 85.070312 C 121.097656 88.410156 104.726562 88.550781 94.238281 85.429688 C 94.066406 85.378906 93.894531 85.324219 93.726562 85.273438 C 83.269531 81.992188 83.054688 76.578125 93.25 73.1875 C 103.28125 69.847656 119.652344 69.707031 130.140625 72.828125 " fill-opacity="1" fill-rule="nonzero"/><path fill="rgb(85.099792%, 85.099792%, 85.099792%)" d="M 138.527344 69.558594 L 138.53125 76.660156 C 138.535156 78.8125 136.039062 80.96875 131.023438 82.640625 C 120.988281 85.976562 104.617188 86.117188 94.132812 82.996094 C 93.957031 82.945312 93.789062 82.894531 93.621094 82.839844 C 88.308594 81.171875 85.636719 78.957031 85.632812 76.734375 L 85.628906 69.632812 C 85.632812 71.855469 88.300781 74.070312 93.613281 75.738281 C 93.785156 75.789062 93.953125 75.84375 94.125 75.894531 C 104.613281 79.015625 120.984375 78.875 131.015625 75.535156 C 136.03125 73.867188 138.527344 71.710938 138.527344 69.558594 " fill-opacity="1" fill-rule="nonzero"/><path fill="rgb(100%, 100%, 100%)" d="M 130.027344 63.292969 C 130.199219 63.34375 130.367188 63.398438 130.539062 63.449219 C 141 66.730469 141.210938 72.144531 131.015625 75.535156 C 120.984375 78.875 104.613281 79.015625 94.125 75.894531 C 93.953125 75.84375 93.785156 75.789062 93.613281 75.738281 C 83.15625 72.457031 82.941406 67.042969 93.140625 63.652344 C 103.167969 60.3125 119.539062 60.171875 130.027344 63.292969 " fill-opacity="1" fill-rule="nonzero"/><path fill="rgb(85.099792%, 85.099792%, 85.099792%)" d="M 138.511719 60.03125 L 138.515625 67.132812 C 138.519531 69.285156 136.023438 71.441406 131.007812 73.113281 C 120.976562 76.449219 104.605469 76.589844 94.117188 73.46875 C 93.945312 73.417969 93.773438 73.367188 93.605469 73.3125 C 88.292969 71.644531 85.621094 69.429688 85.621094 67.207031 L 85.613281 60.105469 C 85.617188 62.328125 88.285156 64.542969 93.601562 66.210938 C 93.769531 66.265625 93.9375 66.316406 94.109375 66.367188 C 104.597656 69.488281 120.96875 69.347656 131 66.011719 C 136.019531 64.339844 138.515625 62.183594 138.511719 60.03125 " fill-opacity="1" fill-rule="nonzero"/><path fill="rgb(100%, 100%, 100%)" d="M 130.011719 53.765625 C 130.183594 53.820312 130.355469 53.871094 130.523438 53.925781 C 140.984375 57.207031 141.199219 62.617188 131 66.011719 C 120.96875 69.347656 104.597656 69.488281 94.109375 66.367188 C 93.9375 66.316406 93.769531 66.265625 93.601562 66.210938 C 83.140625 62.929688 82.929688 57.519531 93.125 54.125 C 103.15625 50.789062 119.523438 50.644531 130.011719 53.765625 " fill-opacity="1" fill-rule="nonzero"/><path fill="rgb(85.099792%, 85.099792%, 85.099792%)" d="M 138.546875 50.890625 L 138.554688 57.992188 C 138.558594 60.144531 136.058594 62.300781 131.042969 63.972656 C 121.011719 67.308594 104.640625 67.449219 94.152344 64.328125 C 93.980469 64.277344 93.8125 64.226562 93.640625 64.171875 C 88.328125 62.503906 85.660156 60.289062 85.65625 58.066406 L 85.652344 50.964844 C 85.652344 53.1875 88.324219 55.402344 93.636719 57.070312 C 93.804688 57.125 93.976562 57.175781 94.148438 57.226562 C 104.636719 60.347656 121.007812 60.207031 131.039062 56.871094 C 136.054688 55.199219 138.550781 53.042969 138.546875 50.890625 " fill-opacity="1" fill-rule="nonzero"/><path fill="rgb(100%, 100%, 100%)" d="M 130.046875 44.625 C 130.222656 44.675781 130.390625 44.730469 130.5625 44.78125 C 141.019531 48.066406 141.234375 53.476562 131.039062 56.871094 C 121.007812 60.207031 104.636719 60.347656 94.148438 57.226562 C 93.976562 57.175781 93.804688 57.125 93.636719 57.070312 C 83.175781 53.789062 82.964844 48.378906 93.160156 44.984375 C 103.191406 41.648438 119.5625 41.503906 130.046875 44.625 " fill-opacity="1" fill-rule="nonzero"/><path fill="rgb(85.099792%, 85.099792%, 85.099792%)" d="M 138.484375 41.585938 L 138.492188 48.6875 C 138.492188 50.839844 135.996094 53 130.980469 54.667969 C 120.949219 58.003906 104.578125 58.148438 94.089844 55.027344 C 93.917969 54.972656 93.75 54.921875 93.578125 54.867188 C 88.265625 53.203125 85.597656 50.984375 85.59375 48.761719 L 85.589844 41.660156 C 85.589844 43.882812 88.261719 46.097656 93.574219 47.765625 C 93.742188 47.820312 93.914062 47.871094 94.085938 47.921875 C 104.570312 51.042969 120.945312 50.902344 130.976562 47.566406 C 135.992188 45.894531 138.488281 43.738281 138.484375 41.585938 " fill-opacity="1" fill-rule="nonzero"/><path fill="rgb(100%, 100%, 100%)" d="M 129.984375 35.324219 C 130.160156 35.375 130.328125 35.425781 130.496094 35.480469 C 140.957031 38.761719 141.171875 44.171875 130.976562 47.566406 C 120.945312 50.902344 104.570312 51.042969 94.085938 47.921875 C 93.914062 47.871094 93.742188 47.820312 93.574219 47.765625 C 83.113281 44.484375 82.902344 39.074219 93.097656 35.679688 C 103.128906 32.34375 119.5 32.199219 129.984375 35.324219 " fill-opacity="1" fill-rule="nonzero"/><path fill="rgb(85.099792%, 85.099792%, 85.099792%)" d="M 138.484375 32.097656 L 138.492188 39.203125 C 138.492188 41.355469 135.996094 43.511719 130.980469 45.179688 C 120.949219 48.519531 104.578125 48.660156 94.089844 45.539062 C 93.917969 45.488281 93.75 45.433594 93.578125 45.382812 C 88.265625 43.714844 85.597656 41.496094 85.59375 39.277344 L 85.589844 32.171875 C 85.589844 34.394531 88.261719 36.613281 93.574219 38.28125 C 93.742188 38.332031 93.914062 38.386719 94.085938 38.4375 C 104.570312 41.558594 120.945312 41.417969 130.976562 38.078125 C 135.992188 36.410156 138.488281 34.253906 138.484375 32.097656 " fill-opacity="1" fill-rule="nonzero"/><path fill="rgb(100%, 100%, 100%)" d="M 129.984375 25.835938 C 130.160156 25.886719 130.328125 25.941406 130.5 25.992188 C 140.957031 29.273438 141.171875 34.6875 130.976562 38.078125 C 120.945312 41.417969 104.570312 41.558594 94.085938 38.4375 C 93.914062 38.386719 93.742188 38.332031 93.574219 38.28125 C 83.113281 35 82.902344 29.585938 93.097656 26.195312 C 103.128906 22.855469 119.5 22.714844 129.984375 25.835938 " fill-opacity="1" fill-rule="nonzero"/><path fill="rgb(100%, 100%, 100%)" d="M 181.949219 51.359375 L 150.824219 51.359375 C 150.035156 51.359375 149.398438 51.996094 149.398438 52.78125 L 149.398438 66.53125 C 149.398438 67.316406 150.035156 67.953125 150.824219 67.953125 L 181.949219 67.953125 C 182.734375 67.953125 183.375 67.316406 183.375 66.53125 L 183.375 52.78125 C 183.375 51.996094 182.734375 51.359375 181.949219 51.359375 " fill-opacity="1" fill-rule="nonzero"/><path fill="rgb(45.098877%, 45.098877%, 45.098877%)" d="M 150.824219 51.535156 C 150.136719 51.535156 149.578125 52.09375 149.578125 52.78125 L 149.578125 66.53125 C 149.578125 67.21875 150.136719 67.777344 150.824219 67.777344 L 181.949219 67.777344 C 182.636719 67.777344 183.199219 67.21875 183.199219 66.53125 L 183.199219 52.78125 C 183.199219 52.09375 182.636719 51.535156 181.949219 51.535156 Z M 181.949219 68.132812 L 150.824219 68.132812 C 149.941406 68.132812 149.21875 67.414062 149.21875 66.53125 L 149.21875 52.78125 C 149.21875 51.898438 149.941406 51.179688 150.824219 51.179688 L 181.949219 51.179688 C 182.835938 51.179688 183.554688 51.898438 183.554688 52.78125 L 183.554688 66.53125 C 183.554688 67.414062 182.835938 68.132812 181.949219 68.132812 " fill-opacity="1" fill-rule="nonzero"/><path fill="rgb(85.099792%, 85.099792%, 85.099792%)" d="M 182.226562 53.875 L 150.527344 53.875 C 150.429688 53.875 150.351562 53.792969 150.351562 53.695312 C 150.351562 53.597656 150.429688 53.519531 150.527344 53.519531 L 182.226562 53.519531 C 182.324219 53.519531 182.40625 53.597656 182.40625 53.695312 C 182.40625 53.792969 182.324219 53.875 182.226562 53.875 " fill-opacity="1" fill-rule="nonzero"/><path fill="rgb(85.099792%, 85.099792%, 85.099792%)" d="M 151.941406 52.453125 C 151.941406 52.652344 151.777344 52.816406 151.574219 52.816406 C 151.375 52.816406 151.210938 52.652344 151.210938 52.453125 C 151.210938 52.25 151.375 52.085938 151.574219 52.085938 C 151.777344 52.085938 151.941406 52.25 151.941406 52.453125 " fill-opacity="1" fill-rule="nonzero"/><path fill="rgb(85.099792%, 85.099792%, 85.099792%)" d="M 153.40625 52.453125 C 153.40625 52.652344 153.242188 52.816406 153.039062 52.816406 C 152.835938 52.816406 152.671875 52.652344 152.671875 52.453125 C 152.671875 52.25 152.835938 52.085938 153.039062 52.085938 C 153.242188 52.085938 153.40625 52.25 153.40625 52.453125 " fill-opacity="1" fill-rule="nonzero"/><path fill="rgb(85.099792%, 85.099792%, 85.099792%)" d="M 154.867188 52.453125 C 154.867188 52.652344 154.703125 52.816406 154.503906 52.816406 C 154.300781 52.816406 154.136719 52.652344 154.136719 52.453125 C 154.136719 52.25 154.300781 52.085938 154.503906 52.085938 C 154.703125 52.085938 154.867188 52.25 154.867188 52.453125 " fill-opacity="1" fill-rule="nonzero"/><path fill="rgb(85.099792%, 85.099792%, 85.099792%)" d="M 182.226562 52.570312 L 180.207031 52.570312 C 180.109375 52.570312 180.03125 52.492188 180.03125 52.394531 C 180.03125 52.296875 180.109375 52.214844 180.207031 52.214844 L 182.226562 52.214844 C 182.324219 52.214844 182.40625 52.296875 182.40625 52.394531 C 182.40625 52.492188 182.324219 52.570312 182.226562 52.570312 " fill-opacity="1" fill-rule="nonzero"/><path fill="rgb(85.099792%, 85.099792%, 85.099792%)" d="M 179.257812 52.570312 L 159.789062 52.570312 C 159.691406 52.570312 159.609375 52.492188 159.609375 52.394531 C 159.609375 52.296875 159.691406 52.214844 159.789062 52.214844 L 179.257812 52.214844 C 179.355469 52.214844 179.4375 52.296875 179.4375 52.394531 C 179.4375 52.492188 179.355469 52.570312 179.257812 52.570312 " fill-opacity="1" fill-rule="nonzero"/><path fill="rgb(85.099792%, 85.099792%, 85.099792%)" d="M 157.535156 52.570312 L 155.753906 52.570312 C 155.652344 52.570312 155.574219 52.492188 155.574219 52.394531 C 155.574219 52.296875 155.652344 52.214844 155.753906 52.214844 L 157.535156 52.214844 C 157.632812 52.214844 157.710938 52.296875 157.710938 52.394531 C 157.710938 52.492188 157.632812 52.570312 157.535156 52.570312 " fill-opacity="1" fill-rule="nonzero"/><path fill="rgb(85.099792%, 85.099792%, 85.099792%)" d="M 160.976562 65.117188 L 151.476562 65.117188 L 151.476562 55.886719 L 160.976562 55.886719 L 160.976562 65.117188 " fill-opacity="1" fill-rule="nonzero"/><path fill="rgb(85.099792%, 85.099792%, 85.099792%)" d="M 164.65625 57.898438 L 162.636719 57.898438 L 162.636719 55.886719 L 164.65625 55.886719 L 164.65625 57.898438 " fill-opacity="1" fill-rule="nonzero"/><path fill="rgb(85.099792%, 85.099792%, 85.099792%)" d="M 181.277344 57.898438 L 166.199219 57.898438 L 166.199219 55.886719 L 181.277344 55.886719 L 181.277344 57.898438 " fill-opacity="1" fill-rule="nonzero"/><path fill="rgb(85.099792%, 85.099792%, 85.099792%)" d="M 164.65625 61.566406 L 162.636719 61.566406 L 162.636719 59.554688 L 164.65625 59.554688 L 164.65625 61.566406 " fill-opacity="1" fill-rule="nonzero"/><path fill="rgb(85.099792%, 85.099792%, 85.099792%)" d="M 181.277344 61.566406 L 166.199219 61.566406 L 166.199219 59.554688 L 181.277344 59.554688 L 181.277344 61.566406 " fill-opacity="1" fill-rule="nonzero"/><path fill="rgb(85.099792%, 85.099792%, 85.099792%)" d="M 164.65625 65.234375 L 162.636719 65.234375 L 162.636719 63.222656 L 164.65625 63.222656 L 164.65625 65.234375 " fill-opacity="1" fill-rule="nonzero"/><path fill="rgb(85.099792%, 85.099792%, 85.099792%)" d="M 181.277344 65.117188 L 166.199219 65.117188 L 166.199219 63.105469 L 181.277344 63.105469 L 181.277344 65.117188 " fill-opacity="1" fill-rule="nonzero"/><path fill="rgb(100%, 100%, 100%)" d="M 173.859375 86.40625 L 128.253906 86.40625 C 127.734375 86.40625 127.320312 85.984375 127.328125 85.464844 L 127.882812 60.824219 C 127.894531 60.304688 128.328125 59.886719 128.847656 59.886719 L 174.453125 59.886719 C 174.976562 59.886719 175.390625 60.304688 175.378906 60.824219 L 174.828125 85.464844 C 174.816406 85.984375 174.382812 86.40625 173.859375 86.40625 " fill-opacity="1" fill-rule="nonzero"/><path fill="rgb(45.098877%, 45.098877%, 45.098877%)" d="M 128.847656 60.0625 C 128.421875 60.0625 128.070312 60.40625 128.058594 60.828125 L 127.507812 85.472656 C 127.503906 85.671875 127.578125 85.859375 127.71875 86.003906 C 127.859375 86.148438 128.050781 86.226562 128.253906 86.226562 L 173.859375 86.226562 C 174.285156 86.226562 174.640625 85.882812 174.648438 85.464844 L 175.199219 60.820312 C 175.203125 60.621094 175.128906 60.429688 174.992188 60.289062 C 174.851562 60.144531 174.660156 60.0625 174.453125 60.0625 Z M 173.859375 86.582031 L 128.253906 86.582031 C 127.953125 86.582031 127.671875 86.464844 127.460938 86.25 C 127.253906 86.039062 127.144531 85.761719 127.152344 85.464844 L 127.703125 60.820312 C 127.71875 60.207031 128.230469 59.710938 128.847656 59.710938 L 174.453125 59.710938 C 174.753906 59.710938 175.035156 59.828125 175.246094 60.039062 C 175.453125 60.25 175.5625 60.53125 175.554688 60.828125 L 175.003906 85.472656 C 174.992188 86.082031 174.476562 86.582031 173.859375 86.582031 " fill-opacity="1" fill-rule="nonzero"/><path fill="rgb(85.099792%, 85.099792%, 85.099792%)" d="M 139.046875 84.992188 L 134.769531 84.992188 L 134.964844 76.265625 L 139.242188 76.265625 L 139.046875 84.992188 " fill-opacity="1" fill-rule="nonzero"/><path fill="rgb(85.099792%, 85.099792%, 85.099792%)" d="M 133.664062 84.992188 L 129.390625 84.992188 L 129.535156 78.542969 L 133.808594 78.542969 L 133.664062 84.992188 " fill-opacity="1" fill-rule="nonzero"/><path fill="rgb(85.099792%, 85.099792%, 85.099792%)" d="M 144.445312 84.992188 L 140.171875 84.992188 L 140.464844 71.878906 L 144.738281 71.878906 L 144.445312 84.992188 " fill-opacity="1" fill-rule="nonzero"/><path fill="rgb(85.099792%, 85.099792%, 85.099792%)" d="M 150.085938 84.992188 L 145.8125 84.992188 L 146.046875 74.464844 L 150.320312 74.464844 L 150.085938 84.992188 " fill-opacity="1" fill-rule="nonzero"/><path fill="rgb(85.099792%, 85.099792%, 85.099792%)" d="M 155.722656 84.992188 L 151.449219 84.992188 L 151.785156 70.078125 L 156.058594 70.078125 L 155.722656 84.992188 " fill-opacity="1" fill-rule="nonzero"/><path fill="rgb(85.099792%, 85.099792%, 85.099792%)" d="M 161.367188 84.816406 L 157.09375 84.816406 L 157.339844 73.917969 L 161.609375 73.917969 L 161.367188 84.816406 " fill-opacity="1" fill-rule="nonzero"/><path fill="rgb(85.099792%, 85.099792%, 85.099792%)" d="M 167.125 84.816406 L 162.851562 84.816406 L 163.1875 69.683594 L 167.464844 69.683594 L 167.125 84.816406 " fill-opacity="1" fill-rule="nonzero"/><path fill="rgb(85.099792%, 85.099792%, 85.099792%)" d="M 172.644531 84.816406 L 168.371094 84.816406 L 168.789062 66.15625 L 173.0625 66.15625 L 172.644531 84.816406 " fill-opacity="1" fill-rule="nonzero"/><path fill="rgb(45.098877%, 45.098877%, 45.098877%)" d="M 132.554688 74.242188 C 132.496094 74.242188 132.4375 74.214844 132.40625 74.160156 C 132.351562 74.082031 132.371094 73.96875 132.453125 73.914062 L 142.296875 67.417969 C 142.363281 67.371094 142.457031 67.378906 142.515625 67.4375 L 146.542969 71.261719 L 154.246094 66.171875 C 154.316406 66.125 154.40625 66.132812 154.46875 66.191406 L 158.839844 70.480469 L 171.636719 62.046875 C 171.71875 61.992188 171.832031 62.015625 171.882812 62.097656 C 171.9375 62.179688 171.917969 62.289062 171.835938 62.34375 L 158.914062 70.859375 C 158.84375 70.902344 158.75 70.894531 158.691406 70.835938 L 154.320312 66.546875 L 146.621094 71.636719 C 146.550781 71.683594 146.457031 71.675781 146.398438 71.617188 L 142.375 67.792969 L 132.652344 74.210938 C 132.621094 74.230469 132.585938 74.242188 132.554688 74.242188 " fill-opacity="1" fill-rule="nonzero"/><path fill="rgb(100%, 100%, 100%)" d="M 143.679688 67.535156 C 143.664062 68.230469 143.082031 68.820312 142.378906 68.859375 C 141.675781 68.894531 141.121094 68.363281 141.136719 67.667969 C 141.152344 66.972656 141.734375 66.378906 142.4375 66.34375 C 143.136719 66.308594 143.695312 66.839844 143.679688 67.535156 " fill-opacity="1" fill-rule="nonzero"/><path fill="rgb(85.099792%, 85.099792%, 85.099792%)" d="M 155.597656 66.238281 C 155.585938 66.933594 155.003906 67.527344 154.300781 67.5625 C 153.597656 67.597656 153.042969 67.066406 153.058594 66.371094 C 153.074219 65.675781 153.65625 65.085938 154.355469 65.046875 C 155.058594 65.011719 155.613281 65.542969 155.597656 66.238281 " fill-opacity="1" fill-rule="nonzero"/><path fill="rgb(100%, 100%, 100%)" d="M 147.90625 71.359375 C 147.890625 72.054688 147.308594 72.648438 146.609375 72.683594 C 145.90625 72.722656 145.347656 72.1875 145.363281 71.496094 C 145.378906 70.800781 145.960938 70.207031 146.664062 70.171875 C 147.367188 70.132812 147.921875 70.667969 147.90625 71.359375 " fill-opacity="1" fill-rule="nonzero"/><path fill="rgb(85.099792%, 85.099792%, 85.099792%)" d="M 133.859375 74.019531 C 133.84375 74.714844 133.261719 75.308594 132.558594 75.34375 C 131.859375 75.378906 131.300781 74.847656 131.316406 74.152344 C 131.332031 73.457031 131.914062 72.867188 132.617188 72.828125 C 133.320312 72.792969 133.875 73.324219 133.859375 74.019531 " fill-opacity="1" fill-rule="nonzero"/><path fill="rgb(45.098877%, 45.098877%, 45.098877%)" d="M 132.683594 73.003906 C 132.664062 73.003906 132.644531 73.003906 132.625 73.007812 C 132.015625 73.039062 131.507812 73.554688 131.496094 74.15625 C 131.488281 74.441406 131.59375 74.703125 131.789062 74.890625 C 131.988281 75.082031 132.257812 75.179688 132.550781 75.167969 C 133.160156 75.136719 133.667969 74.617188 133.683594 74.015625 C 133.6875 73.734375 133.582031 73.472656 133.386719 73.28125 C 133.203125 73.101562 132.953125 73.003906 132.683594 73.003906 Z M 132.492188 75.523438 C 132.128906 75.523438 131.796875 75.390625 131.542969 75.144531 C 131.273438 74.886719 131.132812 74.53125 131.140625 74.148438 C 131.15625 73.363281 131.816406 72.691406 132.609375 72.652344 C 133 72.632812 133.363281 72.765625 133.636719 73.027344 C 133.902344 73.285156 134.046875 73.640625 134.039062 74.023438 C 134.019531 74.808594 133.363281 75.480469 132.570312 75.519531 C 132.542969 75.523438 132.515625 75.523438 132.492188 75.523438 " fill-opacity="1" fill-rule="nonzero"/><path fill="rgb(100%, 100%, 100%)" d="M 160.109375 70.546875 C 160.09375 71.238281 159.511719 71.832031 158.808594 71.871094 C 158.109375 71.90625 157.550781 71.371094 157.566406 70.679688 C 157.582031 69.984375 158.164062 69.390625 158.867188 69.355469 C 159.570312 69.316406 160.125 69.851562 160.109375 70.546875 " fill-opacity="1" fill-rule="nonzero"/><path fill="rgb(85.099792%, 85.099792%, 85.099792%)" d="M 173.007812 62.128906 C 172.992188 62.824219 172.410156 63.414062 171.707031 63.453125 C 171.007812 63.488281 170.449219 62.957031 170.464844 62.261719 C 170.480469 61.566406 171.0625 60.972656 171.765625 60.9375 C 172.464844 60.902344 173.023438 61.433594 173.007812 62.128906 " fill-opacity="1" fill-rule="nonzero"/><path fill="rgb(45.098877%, 45.098877%, 45.098877%)" d="M 173.007812 62.128906 Z M 171.832031 61.113281 C 171.8125 61.113281 171.792969 61.113281 171.773438 61.113281 C 171.164062 61.148438 170.65625 61.664062 170.644531 62.265625 C 170.636719 62.550781 170.742188 62.808594 170.9375 63 C 171.136719 63.191406 171.40625 63.289062 171.699219 63.273438 C 172.308594 63.242188 172.816406 62.726562 172.828125 62.125 C 172.835938 61.839844 172.730469 61.582031 172.535156 61.390625 C 172.347656 61.210938 172.101562 61.113281 171.832031 61.113281 Z M 171.636719 63.632812 C 171.277344 63.632812 170.941406 63.5 170.6875 63.253906 C 170.421875 62.996094 170.277344 62.640625 170.289062 62.257812 C 170.304688 61.472656 170.964844 60.800781 171.753906 60.761719 C 172.148438 60.738281 172.511719 60.871094 172.78125 61.136719 C 173.050781 61.394531 173.195312 61.75 173.1875 62.132812 C 173.167969 62.917969 172.507812 63.589844 171.71875 63.628906 C 171.691406 63.632812 171.664062 63.632812 171.636719 63.632812 " fill-opacity="1" fill-rule="nonzero"/><path fill="rgb(100%, 100%, 100%)" d="M 173.125 11.746094 L 143.746094 11.746094 C 142.597656 11.746094 141.667969 12.671875 141.667969 13.816406 L 141.667969 46.132812 C 141.667969 47.277344 142.597656 48.203125 143.746094 48.203125 L 173.125 48.203125 C 174.273438 48.203125 175.199219 47.277344 175.199219 46.132812 L 175.199219 13.816406 C 175.199219 12.671875 174.273438 11.746094 173.125 11.746094 " fill-opacity="1" fill-rule="nonzero"/><path fill="rgb(45.098877%, 45.098877%, 45.098877%)" d="M 143.746094 11.925781 C 142.699219 11.925781 141.847656 12.773438 141.847656 13.816406 L 141.847656 46.132812 C 141.847656 47.175781 142.699219 48.023438 143.746094 48.023438 L 173.125 48.023438 C 174.171875 48.023438 175.023438 47.175781 175.023438 46.132812 L 175.023438 13.816406 C 175.023438 12.773438 174.171875 11.925781 173.125 11.925781 Z M 173.125 48.378906 L 143.746094 48.378906 C 142.503906 48.378906 141.492188 47.371094 141.492188 46.132812 L 141.492188 13.816406 C 141.492188 12.578125 142.503906 11.570312 143.746094 11.570312 L 173.125 11.570312 C 174.367188 11.570312 175.378906 12.578125 175.378906 13.816406 L 175.378906 46.132812 C 175.378906 47.371094 174.367188 48.378906 173.125 48.378906 " fill-opacity="1" fill-rule="nonzero"/><path fill="rgb(45.098877%, 45.098877%, 45.098877%)" d="M 173.578125 15.320312 L 143.320312 15.320312 C 143.222656 15.320312 143.140625 15.242188 143.140625 15.140625 C 143.140625 15.042969 143.222656 14.964844 143.320312 14.964844 L 173.578125 14.964844 C 173.675781 14.964844 173.757812 15.042969 173.757812 15.140625 C 173.757812 15.242188 173.675781 15.320312 173.578125 15.320312 " fill-opacity="1" fill-rule="nonzero"/><path fill="rgb(100%, 100%, 100%)" d="M 144.382812 13.339844 C 144.382812 13.632812 144.144531 13.871094 143.851562 13.871094 C 143.558594 13.871094 143.320312 13.632812 143.320312 13.339844 C 143.320312 13.046875 143.558594 12.808594 143.851562 12.808594 C 144.144531 12.808594 144.382812 13.046875 144.382812 13.339844 " fill-opacity="1" fill-rule="nonzero"/><path fill="rgb(100%, 100%, 100%)" d="M 146.511719 13.339844 C 146.511719 13.632812 146.273438 13.871094 145.980469 13.871094 C 145.6875 13.871094 145.449219 13.632812 145.449219 13.339844 C 145.449219 13.046875 145.6875 12.808594 145.980469 12.808594 C 146.273438 12.808594 146.511719 13.046875 146.511719 13.339844 " fill-opacity="1" fill-rule="nonzero"/><path fill="rgb(100%, 100%, 100%)" d="M 148.640625 13.339844 C 148.640625 13.632812 148.402344 13.871094 148.109375 13.871094 C 147.816406 13.871094 147.578125 13.632812 147.578125 13.339844 C 147.578125 13.046875 147.816406 12.808594 148.109375 12.808594 C 148.402344 12.808594 148.640625 13.046875 148.640625 13.339844 " fill-opacity="1" fill-rule="nonzero"/><path fill="rgb(45.098877%, 45.098877%, 45.098877%)" d="M 173.578125 13.515625 L 170.578125 13.515625 C 170.480469 13.515625 170.402344 13.4375 170.402344 13.339844 C 170.402344 13.242188 170.480469 13.160156 170.578125 13.160156 L 173.578125 13.160156 C 173.675781 13.160156 173.753906 13.242188 173.753906 13.339844 C 173.753906 13.4375 173.675781 13.515625 173.578125 13.515625 " fill-opacity="1" fill-rule="nonzero"/><path fill="rgb(45.098877%, 45.098877%, 45.098877%)" d="M 169.230469 13.515625 L 156.8125 13.515625 C 156.714844 13.515625 156.632812 13.4375 156.632812 13.339844 C 156.632812 13.242188 156.714844 13.160156 156.8125 13.160156 L 169.230469 13.160156 C 169.328125 13.160156 169.410156 13.242188 169.410156 13.339844 C 169.410156 13.4375 169.328125 13.515625 169.230469 13.515625 " fill-opacity="1" fill-rule="nonzero"/><path fill="rgb(45.098877%, 45.098877%, 45.098877%)" d="M 153.546875 13.515625 L 150.902344 13.515625 C 150.804688 13.515625 150.726562 13.4375 150.726562 13.339844 C 150.726562 13.242188 150.804688 13.160156 150.902344 13.160156 L 153.546875 13.160156 C 153.644531 13.160156 153.726562 13.242188 153.726562 13.339844 C 153.726562 13.4375 153.644531 13.515625 153.546875 13.515625 " fill-opacity="1" fill-rule="nonzero"/><path fill="rgb(100%, 100%, 100%)" d="M 153.347656 29.039062 C 154.316406 27.351562 156.117188 26.160156 158.207031 25.941406 L 158.351562 17.695312 C 152.34375 17.714844 147.042969 21.089844 144.625 26.078125 L 153.347656 29.039062 " fill-opacity="1" fill-rule="nonzero"/><path fill="rgb(45.098877%, 45.098877%, 45.098877%)" d="M 144.875 25.972656 L 153.265625 28.824219 C 154.273438 27.160156 156.035156 26.039062 158.03125 25.785156 L 158.171875 17.875 C 152.496094 17.957031 147.316406 21.117188 144.875 25.972656 Z M 153.347656 29.214844 C 153.328125 29.214844 153.308594 29.210938 153.289062 29.207031 L 144.570312 26.246094 C 144.519531 26.230469 144.480469 26.191406 144.460938 26.144531 C 144.441406 26.097656 144.445312 26.046875 144.464844 26 C 146.953125 20.867188 152.402344 17.535156 158.351562 17.515625 C 158.398438 17.515625 158.445312 17.535156 158.480469 17.570312 C 158.511719 17.601562 158.53125 17.648438 158.53125 17.695312 L 158.386719 25.945312 C 158.382812 26.035156 158.316406 26.109375 158.226562 26.121094 C 156.230469 26.324219 154.464844 27.449219 153.5 29.125 C 153.46875 29.183594 153.410156 29.214844 153.347656 29.214844 " fill-opacity="1" fill-rule="nonzero"/><path fill="rgb(45.098877%, 45.098877%, 45.098877%)" d="M 152.9375 20.113281 C 152.867188 20.113281 152.800781 20.070312 152.773438 20.003906 C 152.734375 19.910156 152.78125 19.808594 152.871094 19.769531 C 154.230469 19.222656 155.664062 18.878906 157.128906 18.753906 C 157.226562 18.746094 157.3125 18.816406 157.320312 18.914062 C 157.332031 19.011719 157.257812 19.097656 157.160156 19.109375 C 155.730469 19.230469 154.332031 19.566406 153.003906 20.101562 C 152.980469 20.109375 152.960938 20.113281 152.9375 20.113281 " fill-opacity="1" fill-rule="nonzero"/><path fill="rgb(45.098877%, 45.098877%, 45.098877%)" d="M 148.152344 23.292969 C 148.105469 23.292969 148.0625 23.277344 148.027344 23.242188 C 147.957031 23.175781 147.953125 23.0625 148.023438 22.992188 C 149.050781 21.949219 150.242188 21.066406 151.5625 20.375 C 151.648438 20.328125 151.757812 20.363281 151.804688 20.449219 C 151.847656 20.535156 151.816406 20.644531 151.730469 20.691406 C 150.4375 21.363281 149.277344 22.222656 148.277344 23.242188 C 148.242188 23.277344 148.195312 23.292969 148.152344 23.292969 " fill-opacity="1" fill-rule="nonzero"/><path fill="rgb(100%, 100%, 100%)" d="M 164.9375 32.695312 C 164.445312 35.40625 161.96875 37.535156 158.933594 37.628906 C 158.03125 37.65625 157.167969 37.5 156.382812 37.195312 L 151.644531 44.507812 C 153.847656 45.496094 156.335938 45.984375 158.933594 45.835938 C 166.5 45.402344 172.449219 39.722656 173.109375 32.890625 L 164.9375 32.695312 " fill-opacity="1" fill-rule="nonzero"/><path fill="rgb(45.098877%, 45.098877%, 45.098877%)" d="M 151.910156 44.429688 C 154.082031 45.371094 156.503906 45.796875 158.925781 45.65625 C 166.175781 45.242188 172.15625 39.84375 172.910156 33.0625 L 165.085938 32.875 C 164.503906 35.648438 161.945312 37.714844 158.941406 37.804688 C 158.082031 37.835938 157.246094 37.699219 156.453125 37.414062 Z M 158.027344 46.039062 C 155.789062 46.039062 153.574219 45.570312 151.570312 44.667969 C 151.523438 44.648438 151.488281 44.605469 151.472656 44.558594 C 151.460938 44.507812 151.46875 44.453125 151.496094 44.410156 L 156.230469 37.101562 C 156.277344 37.03125 156.367188 37 156.445312 37.03125 C 157.234375 37.335938 158.066406 37.476562 158.929688 37.453125 C 161.820312 37.363281 164.273438 35.347656 164.761719 32.664062 C 164.777344 32.578125 164.855469 32.515625 164.941406 32.515625 L 173.113281 32.710938 C 173.160156 32.710938 173.207031 32.734375 173.242188 32.769531 C 173.273438 32.808594 173.289062 32.855469 173.285156 32.90625 C 172.605469 39.949219 166.441406 45.582031 158.945312 46.011719 C 158.640625 46.027344 158.332031 46.039062 158.027344 46.039062 " fill-opacity="1" fill-rule="nonzero"/><path fill="rgb(45.098877%, 45.098877%, 45.098877%)" d="M 158.011719 44.855469 C 156.414062 44.855469 154.851562 44.601562 153.371094 44.105469 C 153.277344 44.074219 153.226562 43.972656 153.257812 43.878906 C 153.289062 43.785156 153.390625 43.738281 153.484375 43.769531 C 154.929688 44.253906 156.453125 44.5 158.011719 44.5 C 158.292969 44.5 158.578125 44.492188 158.855469 44.476562 C 158.957031 44.46875 159.039062 44.546875 159.046875 44.640625 C 159.050781 44.742188 158.976562 44.824219 158.878906 44.832031 C 158.589844 44.847656 158.300781 44.855469 158.011719 44.855469 " fill-opacity="1" fill-rule="nonzero"/><path fill="rgb(45.098877%, 45.098877%, 45.098877%)" d="M 161.859375 44.34375 C 161.78125 44.34375 161.707031 44.292969 161.6875 44.214844 C 161.660156 44.121094 161.714844 44.023438 161.8125 43.996094 C 166.765625 42.648438 170.59375 38.726562 171.5625 34.003906 C 171.582031 33.90625 171.675781 33.847656 171.773438 33.867188 C 171.867188 33.886719 171.929688 33.980469 171.910156 34.074219 C 170.917969 38.925781 166.988281 42.957031 161.90625 44.339844 C 161.886719 44.34375 161.875 44.34375 161.859375 44.34375 " fill-opacity="1" fill-rule="nonzero"/><path fill="rgb(100%, 100%, 100%)" d="M 150.164062 43.738281 L 154.945312 36.40625 C 153.515625 35.351562 152.59375 33.707031 152.59375 31.84375 C 152.59375 31.394531 152.648438 30.957031 152.75 30.535156 L 143.996094 27.609375 C 143.527344 28.984375 143.273438 30.445312 143.273438 31.960938 C 143.273438 36.976562 146.03125 41.292969 150.164062 43.738281 " fill-opacity="1" fill-rule="nonzero"/><path fill="rgb(45.098877%, 45.098877%, 45.098877%)" d="M 144.109375 27.832031 C 143.671875 29.167969 143.449219 30.554688 143.449219 31.960938 C 143.449219 36.664062 145.933594 40.964844 150.109375 43.496094 L 154.703125 36.445312 C 153.246094 35.3125 152.417969 33.644531 152.417969 31.847656 C 152.417969 31.445312 152.457031 31.042969 152.542969 30.652344 Z M 150.164062 43.914062 C 150.132812 43.914062 150.101562 43.90625 150.074219 43.890625 C 145.703125 41.304688 143.09375 36.84375 143.09375 31.960938 C 143.09375 30.457031 143.339844 28.972656 143.828125 27.550781 C 143.859375 27.460938 143.960938 27.410156 144.054688 27.441406 L 152.808594 30.367188 C 152.894531 30.394531 152.945312 30.488281 152.925781 30.574219 C 152.824219 30.992188 152.773438 31.417969 152.773438 31.847656 C 152.773438 33.585938 153.601562 35.195312 155.050781 36.261719 C 155.125 36.320312 155.144531 36.425781 155.09375 36.503906 L 150.3125 43.835938 C 150.277344 43.886719 150.222656 43.914062 150.164062 43.914062 " fill-opacity="1" fill-rule="nonzero"/><path fill="rgb(100%, 100%, 100%)" d="M 160.921875 25.632812 C 163.683594 26.039062 165.808594 28.175781 166.0625 30.8125 L 179.421875 31.199219 C 179.421875 31.195312 179.421875 31.1875 179.421875 31.183594 C 179.421875 21.414062 171.613281 13.050781 161.160156 11.972656 L 160.921875 25.632812 " fill-opacity="1" fill-rule="nonzero"/><path fill="rgb(45.098877%, 45.098877%, 45.098877%)" d="M 166.222656 30.640625 L 179.242188 31.015625 C 179.15625 21.363281 171.5 13.308594 161.335938 12.171875 L 161.101562 25.480469 C 163.828125 25.949219 165.898438 28.039062 166.222656 30.640625 Z M 179.417969 31.378906 C 179.417969 31.378906 179.417969 31.378906 179.414062 31.375 L 166.054688 30.992188 C 165.964844 30.988281 165.890625 30.917969 165.882812 30.832031 C 165.640625 28.273438 163.589844 26.207031 160.894531 25.804688 C 160.804688 25.792969 160.742188 25.714844 160.742188 25.628906 L 160.984375 11.972656 C 160.984375 11.921875 161.003906 11.875 161.042969 11.839844 C 161.078125 11.808594 161.128906 11.792969 161.179688 11.796875 C 166.257812 12.320312 170.933594 14.59375 174.339844 18.195312 C 177.730469 21.78125 179.597656 26.394531 179.597656 31.183594 C 179.597656 31.230469 179.578125 31.285156 179.546875 31.316406 C 179.511719 31.351562 179.464844 31.378906 179.417969 31.378906 " fill-opacity="1" fill-rule="nonzero"/><path fill="rgb(100%, 100%, 100%)" d="M 145.941406 25.964844 L 128.457031 25.964844 C 127.597656 25.964844 126.898438 26.660156 126.898438 27.519531 L 126.898438 50.683594 C 126.898438 51.539062 127.597656 52.238281 128.457031 52.238281 L 145.941406 52.238281 C 146.804688 52.238281 147.503906 51.539062 147.503906 50.683594 L 147.503906 27.519531 C 147.503906 26.660156 146.804688 25.964844 145.941406 25.964844 " fill-opacity="1" fill-rule="nonzero"/><path fill="rgb(85.099792%, 85.099792%, 85.099792%)" d="M 133.835938 48.179688 L 129.347656 48.179688 L 129.347656 33.472656 L 133.835938 33.472656 L 133.835938 48.179688 " fill-opacity="1" fill-rule="nonzero"/><path fill="rgb(85.099792%, 85.099792%, 85.099792%)" d="M 139.445312 48.175781 L 134.957031 48.175781 L 134.957031 29.414062 L 139.445312 29.414062 L 139.445312 48.175781 " fill-opacity="1" fill-rule="nonzero"/><path fill="rgb(85.099792%, 85.099792%, 85.099792%)" d="M 145.054688 48.179688 L 140.566406 48.179688 L 140.566406 39.410156 L 145.054688 39.410156 L 145.054688 48.179688 " fill-opacity="1" fill-rule="nonzero"/><path fill="rgb(45.098877%, 45.098877%, 45.098877%)" d="M 130.199219 42.453125 C 130.101562 42.453125 130.019531 42.371094 130.019531 42.273438 L 130.019531 32.976562 C 130.019531 32.875 130.101562 32.796875 130.199219 32.796875 L 134.6875 32.796875 C 134.785156 32.796875 134.863281 32.875 134.863281 32.976562 L 134.863281 37.183594 C 134.863281 37.28125 134.785156 37.359375 134.6875 37.359375 C 134.589844 37.359375 134.507812 37.28125 134.507812 37.183594 L 134.507812 33.152344 L 130.375 33.152344 L 130.375 42.273438 C 130.375 42.371094 130.296875 42.453125 130.199219 42.453125 " fill-opacity="1" fill-rule="nonzero"/><path fill="rgb(45.098877%, 45.098877%, 45.098877%)" d="M 140.296875 45.625 C 140.195312 45.625 140.117188 45.546875 140.117188 45.449219 L 140.117188 29.09375 L 135.984375 29.09375 L 135.984375 42.3125 C 135.984375 42.410156 135.90625 42.488281 135.808594 42.488281 C 135.707031 42.488281 135.628906 42.410156 135.628906 42.3125 L 135.628906 28.917969 C 135.628906 28.820312 135.707031 28.738281 135.808594 28.738281 L 140.296875 28.738281 C 140.394531 28.738281 140.472656 28.820312 140.472656 28.917969 L 140.472656 45.449219 C 140.472656 45.546875 140.394531 45.625 140.296875 45.625 " fill-opacity="1" fill-rule="nonzero"/><path fill="rgb(45.098877%, 45.098877%, 45.098877%)" d="M 141.417969 46.289062 C 141.316406 46.289062 141.238281 46.210938 141.238281 46.113281 L 141.238281 38.914062 C 141.238281 38.816406 141.316406 38.734375 141.417969 38.734375 L 145.90625 38.734375 C 146.003906 38.734375 146.082031 38.816406 146.082031 38.914062 L 146.082031 43.972656 C 146.082031 44.070312 146.003906 44.148438 145.90625 44.148438 C 145.804688 44.148438 145.726562 44.070312 145.726562 43.972656 L 145.726562 39.089844 L 141.59375 39.089844 L 141.59375 46.113281 C 141.59375 46.210938 141.515625 46.289062 141.417969 46.289062 " fill-opacity="1" fill-rule="nonzero"/><path fill="rgb(45.098877%, 45.098877%, 45.098877%)" d="M 134.144531 52.453125 C 134.046875 52.453125 133.96875 52.375 133.96875 52.277344 C 133.964844 52.179688 134.046875 52.097656 134.144531 52.097656 L 145.941406 52.058594 C 146.707031 52.058594 147.324219 51.441406 147.324219 50.679688 L 147.324219 27.519531 C 147.324219 26.761719 146.707031 26.140625 145.941406 26.140625 L 128.457031 26.140625 C 127.695312 26.140625 127.074219 26.761719 127.074219 27.519531 L 127.074219 50.679688 C 127.074219 51.441406 127.695312 52.058594 128.457031 52.058594 L 128.625 52.058594 C 128.722656 52.058594 128.800781 52.140625 128.800781 52.238281 C 128.800781 52.335938 128.722656 52.414062 128.625 52.414062 L 128.457031 52.414062 C 127.5 52.414062 126.71875 51.636719 126.71875 50.679688 L 126.71875 27.519531 C 126.71875 26.566406 127.5 25.789062 128.457031 25.789062 L 145.941406 25.789062 C 146.902344 25.789062 147.679688 26.566406 147.679688 27.519531 L 147.679688 50.679688 C 147.679688 51.636719 146.902344 52.414062 145.941406 52.414062 L 134.144531 52.453125 " fill-opacity="1" fill-rule="nonzero"/><path fill="rgb(100%, 100%, 100%)" d="M 104.589844 99.472656 L 104.871094 102.15625 L 106.691406 102.367188 L 106.691406 99.1875 L 104.589844 99.472656 " fill-opacity="1" fill-rule="nonzero"/><path fill="rgb(45.098877%, 45.098877%, 45.098877%)" d="M 105.035156 101.996094 L 106.511719 102.167969 L 106.511719 99.390625 L 104.785156 99.625 Z M 106.691406 102.546875 C 106.683594 102.546875 106.675781 102.546875 106.671875 102.542969 L 104.851562 102.332031 C 104.769531 102.320312 104.703125 102.257812 104.695312 102.171875 L 104.410156 99.492188 C 104.402344 99.394531 104.46875 99.308594 104.566406 99.296875 L 106.667969 99.011719 C 106.71875 99.003906 106.769531 99.019531 106.808594 99.050781 C 106.847656 99.085938 106.871094 99.132812 106.871094 99.1875 L 106.871094 102.367188 C 106.871094 102.417969 106.847656 102.464844 106.808594 102.5 C 106.777344 102.53125 106.734375 102.546875 106.691406 102.546875 " fill-opacity="1" fill-rule="nonzero"/><path fill="rgb(100%, 100%, 100%)" d="M 106.976562 107.039062 C 106.21875 107.144531 104.976562 107.238281 103.515625 107.039062 C 103.035156 106.972656 102.71875 106.507812 102.835938 106.042969 C 103.15625 104.738281 103.710938 102.269531 104.660156 101.121094 L 104.898438 101.742188 L 105.222656 101.160156 C 105.269531 101.078125 105.347656 101.023438 105.441406 101.011719 L 106.152344 100.921875 C 106.304688 100.902344 106.441406 101.003906 106.472656 101.148438 L 106.585938 101.6875 L 106.835938 100.980469 L 107.667969 106.132812 C 107.726562 106.570312 107.417969 106.976562 106.976562 107.039062 " fill-opacity="1" fill-rule="nonzero"/><path fill="rgb(45.098877%, 45.098877%, 45.098877%)" d="M 104.609375 101.488281 C 103.859375 102.597656 103.375 104.582031 103.078125 105.800781 L 103.007812 106.085938 C 102.964844 106.261719 102.996094 106.4375 103.097656 106.589844 C 103.199219 106.738281 103.359375 106.835938 103.539062 106.863281 C 104.964844 107.058594 106.183594 106.972656 106.953125 106.863281 C 107.292969 106.816406 107.535156 106.496094 107.492188 106.15625 L 106.773438 101.699219 L 106.753906 101.746094 C 106.726562 101.820312 106.652344 101.867188 106.574219 101.863281 C 106.496094 101.859375 106.429688 101.800781 106.414062 101.722656 L 106.300781 101.1875 C 106.289062 101.128906 106.234375 101.089844 106.175781 101.097656 L 105.460938 101.1875 C 105.425781 101.195312 105.394531 101.214844 105.378906 101.246094 L 105.054688 101.828125 C 105.019531 101.890625 104.953125 101.925781 104.882812 101.921875 C 104.816406 101.914062 104.753906 101.871094 104.730469 101.804688 Z M 106.976562 107.039062 L 106.980469 107.039062 Z M 105.257812 107.335938 C 104.722656 107.335938 104.125 107.300781 103.492188 107.214844 C 103.210938 107.175781 102.960938 107.019531 102.804688 106.789062 C 102.648438 106.558594 102.59375 106.269531 102.664062 106 L 102.730469 105.71875 C 103.058594 104.367188 103.613281 102.109375 104.523438 101.007812 C 104.566406 100.960938 104.628906 100.9375 104.691406 100.949219 C 104.753906 100.957031 104.804688 101 104.828125 101.058594 L 104.929688 101.324219 L 105.066406 101.074219 C 105.140625 100.941406 105.269531 100.855469 105.417969 100.835938 L 106.132812 100.746094 C 106.347656 100.71875 106.550781 100.84375 106.625 101.039062 L 106.667969 100.921875 C 106.695312 100.84375 106.769531 100.796875 106.851562 100.804688 C 106.933594 100.8125 107 100.871094 107.011719 100.953125 L 107.84375 106.101562 C 107.914062 106.644531 107.539062 107.140625 107.003906 107.214844 C 106.554688 107.277344 105.957031 107.335938 105.257812 107.335938 " fill-opacity="1" fill-rule="nonzero"/><path fill="rgb(45.098877%, 45.098877%, 45.098877%)" d="M 104.867188 106.472656 C 104.378906 106.472656 103.847656 106.425781 103.320312 106.308594 C 103.222656 106.285156 103.164062 106.191406 103.183594 106.09375 C 103.207031 106 103.300781 105.941406 103.398438 105.960938 C 105.164062 106.363281 107.011719 105.847656 107.03125 105.839844 C 107.125 105.816406 107.222656 105.867188 107.25 105.964844 C 107.277344 106.058594 107.222656 106.15625 107.128906 106.183594 C 107.070312 106.199219 106.097656 106.472656 104.867188 106.472656 " fill-opacity="1" fill-rule="nonzero"/><path fill="rgb(45.098877%, 45.098877%, 45.098877%)" d="M 104.433594 104.476562 C 104.339844 104.476562 104.261719 104.398438 104.257812 104.304688 C 104.253906 104.207031 104.332031 104.125 104.429688 104.121094 L 106.136719 104.066406 C 106.136719 104.066406 106.140625 104.066406 106.140625 104.066406 C 106.238281 104.066406 106.316406 104.140625 106.320312 104.234375 C 106.320312 104.335938 106.246094 104.417969 106.148438 104.417969 L 104.441406 104.476562 C 104.4375 104.476562 104.4375 104.476562 104.433594 104.476562 " fill-opacity="1" fill-rule="nonzero"/><path fill="rgb(100%, 100%, 100%)" d="M 113.113281 98.042969 L 113.386719 101.960938 L 115.574219 101.960938 L 115.675781 98.042969 L 113.113281 98.042969 " fill-opacity="1" fill-rule="nonzero"/><path fill="rgb(45.098877%, 45.098877%, 45.098877%)" d="M 113.550781 101.78125 L 115.402344 101.78125 L 115.496094 98.21875 L 113.304688 98.21875 Z M 115.574219 102.136719 L 113.386719 102.136719 C 113.292969 102.136719 113.214844 102.066406 113.207031 101.972656 L 112.933594 98.054688 C 112.933594 98.007812 112.949219 97.957031 112.984375 97.921875 C 113.015625 97.886719 113.0625 97.867188 113.113281 97.867188 L 115.675781 97.867188 C 115.726562 97.867188 115.773438 97.882812 115.804688 97.917969 C 115.839844 97.953125 115.855469 98 115.855469 98.046875 L 115.753906 101.964844 C 115.75 102.058594 115.671875 102.136719 115.574219 102.136719 " fill-opacity="1" fill-rule="nonzero"/><path fill="rgb(100%, 100%, 100%)" d="M 112.8125 104.167969 C 112.808594 104.539062 113.0625 104.863281 113.425781 104.949219 C 114.683594 105.242188 117.519531 105.890625 118.328125 106.011719 C 119.378906 106.167969 120.667969 105.847656 121.222656 105.234375 C 121.777344 104.621094 119.980469 103.160156 119.128906 102.628906 C 117.859375 101.839844 116.644531 100.277344 116.132812 100.207031 C 115.625 100.136719 114.671875 101.613281 114.671875 101.613281 L 113.113281 100.960938 C 113.113281 100.960938 112.839844 102.292969 112.8125 104.167969 " fill-opacity="1" fill-rule="nonzero"/><path fill="rgb(45.098877%, 45.098877%, 45.098877%)" d="M 112.8125 104.167969 L 112.816406 104.167969 Z M 113.25 101.210938 C 113.171875 101.65625 113.011719 102.761719 112.992188 104.171875 C 112.988281 104.457031 113.1875 104.710938 113.464844 104.777344 C 114.667969 105.054688 117.546875 105.714844 118.355469 105.835938 C 119.367188 105.988281 120.59375 105.664062 121.089844 105.117188 C 121.121094 105.082031 121.160156 105.023438 121.144531 104.90625 C 121.066406 104.328125 119.867188 103.300781 119.035156 102.78125 C 118.386719 102.375 117.769531 101.792969 117.226562 101.28125 C 116.777344 100.851562 116.308594 100.410156 116.109375 100.382812 C 115.871094 100.347656 115.25 101.042969 114.820312 101.707031 C 114.773438 101.78125 114.679688 101.808594 114.601562 101.777344 Z M 118.875 106.230469 C 118.679688 106.230469 118.488281 106.214844 118.300781 106.1875 C 117.511719 106.070312 114.882812 105.46875 113.382812 105.121094 C 112.945312 105.019531 112.628906 104.617188 112.636719 104.167969 C 112.664062 102.292969 112.9375 100.9375 112.9375 100.925781 C 112.949219 100.871094 112.984375 100.828125 113.03125 100.804688 C 113.078125 100.777344 113.132812 100.777344 113.183594 100.796875 L 114.601562 101.390625 C 114.910156 100.933594 115.632812 99.960938 116.15625 100.03125 C 116.457031 100.070312 116.832031 100.417969 117.472656 101.023438 C 118.003906 101.523438 118.605469 102.09375 119.222656 102.476562 C 119.773438 102.824219 121.378906 104 121.5 104.855469 C 121.523438 105.046875 121.476562 105.222656 121.355469 105.355469 C 120.875 105.886719 119.859375 106.230469 118.875 106.230469 " fill-opacity="1" fill-rule="nonzero"/><path fill="rgb(45.098877%, 45.098877%, 45.098877%)" d="M 118.855469 105.507812 C 116.554688 105.507812 113.492188 104.273438 113.320312 104.203125 C 113.226562 104.164062 113.183594 104.0625 113.222656 103.972656 C 113.257812 103.878906 113.363281 103.835938 113.453125 103.875 C 113.507812 103.898438 119.011719 106.113281 120.609375 104.675781 C 120.679688 104.609375 120.792969 104.617188 120.859375 104.6875 C 120.925781 104.761719 120.917969 104.875 120.847656 104.9375 C 120.386719 105.351562 119.667969 105.507812 118.855469 105.507812 " fill-opacity="1" fill-rule="nonzero"/><path fill="rgb(45.098877%, 45.098877%, 45.098877%)" d="M 116.429688 103.136719 C 116.378906 103.136719 116.332031 103.117188 116.296875 103.078125 C 116.230469 103.007812 116.234375 102.894531 116.308594 102.828125 L 117.421875 101.828125 C 117.496094 101.761719 117.609375 101.765625 117.675781 101.839844 C 117.738281 101.914062 117.734375 102.023438 117.660156 102.089844 L 116.546875 103.09375 C 116.511719 103.121094 116.46875 103.136719 116.429688 103.136719 " fill-opacity="1" fill-rule="nonzero"/><path fill="rgb(45.098877%, 45.098877%, 45.098877%)" d="M 103.96875 72.515625 C 103.96875 72.515625 103.289062 84.757812 102.933594 88.980469 C 102.578125 93.207031 103.765625 100 103.765625 100 L 107.144531 99.824219 C 107.144531 99.824219 107.375 91.566406 107.628906 89.269531 C 107.628906 89.269531 109.054688 86.160156 109.480469 83.390625 C 109.902344 80.617188 111.34375 76.234375 111.34375 76.234375 C 111.34375 76.234375 112.515625 98.097656 112.625 99.816406 C 112.625 99.816406 115.277344 99.933594 116.226562 99.335938 C 116.226562 99.335938 117.910156 91.363281 117.667969 87.027344 C 117.429688 82.691406 117.695312 71.914062 117.695312 71.914062 L 103.96875 72.515625 " fill-opacity="1" fill-rule="nonzero"/><path fill="rgb(100%, 100%, 100%)" d="M 107.003906 89.449219 L 105.972656 89.449219 C 105.875 89.449219 105.792969 89.367188 105.792969 89.269531 C 105.792969 89.171875 105.875 89.09375 105.972656 89.09375 L 107.003906 89.09375 C 107.101562 89.09375 107.183594 89.171875 107.183594 89.269531 C 107.183594 89.367188 107.101562 89.449219 107.003906 89.449219 " fill-opacity="1" fill-rule="nonzero"/><path fill="rgb(100%, 100%, 100%)" d="M 114.367188 95.804688 C 114.363281 95.804688 114.363281 95.804688 114.363281 95.804688 C 114.261719 95.804688 114.183594 95.722656 114.1875 95.625 C 114.226562 93.585938 116.460938 89.945312 116.554688 89.789062 C 116.605469 89.707031 116.714844 89.683594 116.800781 89.734375 C 116.882812 89.785156 116.910156 89.894531 116.859375 89.976562 C 116.835938 90.015625 114.578125 93.6875 114.542969 95.632812 C 114.542969 95.730469 114.460938 95.804688 114.367188 95.804688 " fill-opacity="1" fill-rule="nonzero"/><path fill="rgb(100%, 100%, 100%)" d="M 118.761719 52.9375 C 119.007812 52.917969 120.21875 55.382812 123.996094 55.28125 C 127.777344 55.175781 130.808594 50.960938 130.808594 50.960938 C 130.808594 50.960938 132.117188 48.765625 133.105469 47.972656 C 134.097656 47.179688 134.253906 47.074219 134.253906 47.074219 C 134.253906 47.074219 134.5625 47.484375 134.253906 47.972656 C 133.941406 48.457031 133.085938 49.367188 133.085938 49.367188 C 133.085938 49.367188 134.03125 49.882812 133.601562 50.960938 C 133.113281 52.199219 131.730469 52.097656 131.730469 52.097656 C 131.730469 52.097656 128.929688 64.46875 117.347656 58.589844 L 118.761719 52.9375 " fill-opacity="1" fill-rule="nonzero"/><path fill="rgb(45.098877%, 45.098877%, 45.098877%)" d="M 117.554688 58.496094 C 120.90625 60.167969 123.828125 60.445312 126.238281 59.316406 C 130.304688 57.417969 131.546875 52.113281 131.558594 52.058594 C 131.578125 51.972656 131.65625 51.914062 131.746094 51.921875 C 131.796875 51.925781 133.003906 51.992188 133.4375 50.894531 C 133.796875 49.980469 133.03125 49.539062 132.996094 49.519531 C 132.949219 49.492188 132.917969 49.445312 132.910156 49.394531 C 132.902344 49.339844 132.917969 49.285156 132.953125 49.242188 C 132.964844 49.234375 133.804688 48.339844 134.101562 47.875 C 134.238281 47.664062 134.222656 47.472656 134.1875 47.34375 C 134.03125 47.464844 133.742188 47.6875 133.21875 48.109375 C 132.261719 48.875 130.976562 51.027344 130.964844 51.050781 C 130.960938 51.054688 130.957031 51.058594 130.953125 51.0625 C 130.828125 51.238281 127.828125 55.351562 124.003906 55.457031 C 120.921875 55.542969 119.519531 53.984375 118.921875 53.316406 C 118.902344 53.296875 118.886719 53.277344 118.867188 53.257812 Z M 123.089844 60.351562 C 121.320312 60.351562 119.371094 59.816406 117.265625 58.75 C 117.191406 58.710938 117.152344 58.628906 117.175781 58.546875 L 118.589844 52.894531 C 118.609375 52.820312 118.671875 52.765625 118.75 52.757812 C 118.886719 52.746094 118.980469 52.851562 119.1875 53.078125 C 119.753906 53.710938 121.078125 55.179688 123.992188 55.101562 C 127.578125 55.003906 130.53125 51.039062 130.660156 50.863281 C 130.757812 50.699219 132.007812 48.621094 132.996094 47.832031 C 133.980469 47.042969 134.144531 46.929688 134.152344 46.925781 C 134.230469 46.875 134.335938 46.890625 134.394531 46.96875 C 134.410156 46.988281 134.773438 47.484375 134.402344 48.066406 C 134.160156 48.445312 133.613281 49.054688 133.355469 49.335938 C 133.707031 49.621094 134.09375 50.207031 133.769531 51.023438 C 133.335938 52.113281 132.269531 52.261719 131.871094 52.277344 C 131.640625 53.140625 130.234375 57.839844 126.390625 59.640625 C 125.375 60.117188 124.269531 60.351562 123.089844 60.351562 " fill-opacity="1" fill-rule="nonzero"/><path fill="rgb(85.099792%, 85.099792%, 85.099792%)" d="M 100.027344 58.589844 C 100.027344 58.589844 101.164062 51.292969 105.171875 49.496094 C 109.179688 47.699219 114.601562 47.949219 116.09375 48.847656 C 117.589844 49.742188 121.488281 53.796875 121.488281 53.796875 L 118.042969 58.589844 C 118.042969 58.589844 118.832031 71.492188 118.207031 74.898438 C 118.207031 74.898438 114.378906 75.34375 112.753906 74.707031 C 111.128906 74.066406 105.785156 73.171875 103.234375 74.34375 L 103.695312 58.007812 L 100.027344 58.589844 " fill-opacity="1" fill-rule="nonzero"/><path fill="rgb(45.098877%, 45.098877%, 45.098877%)" d="M 106.703125 73.597656 C 109.136719 73.597656 111.765625 74.125 112.816406 74.539062 C 114.214844 75.089844 117.371094 74.804688 118.054688 74.734375 C 118.625 71.199219 117.875 58.730469 117.867188 58.601562 C 117.863281 58.5625 117.875 58.519531 117.898438 58.488281 L 121.257812 53.816406 C 120.632812 53.171875 117.328125 49.792969 116.003906 49 C 114.609375 48.160156 109.234375 47.871094 105.242188 49.65625 C 101.777344 51.210938 100.488281 57.105469 100.246094 58.375 L 103.667969 57.835938 C 103.722656 57.824219 103.773438 57.839844 103.8125 57.875 C 103.855469 57.910156 103.875 57.960938 103.875 58.015625 L 103.417969 74.074219 C 104.320312 73.730469 105.488281 73.597656 106.703125 73.597656 Z M 115.507812 75.226562 C 114.480469 75.226562 113.394531 75.148438 112.6875 74.871094 C 111.011719 74.214844 105.734375 73.394531 103.308594 74.503906 C 103.25 74.53125 103.1875 74.527344 103.132812 74.492188 C 103.082031 74.457031 103.050781 74.398438 103.054688 74.339844 L 103.511719 58.21875 L 100.058594 58.765625 C 100 58.773438 99.945312 58.757812 99.902344 58.714844 C 99.863281 58.675781 99.84375 58.621094 99.851562 58.5625 C 99.898438 58.261719 101.046875 51.148438 105.097656 49.332031 C 109.066406 47.554688 114.5625 47.71875 116.1875 48.695312 C 117.683594 49.59375 121.457031 53.507812 121.617188 53.675781 C 121.675781 53.738281 121.683594 53.832031 121.632812 53.902344 L 118.226562 58.644531 C 118.289062 59.734375 118.988281 71.628906 118.382812 74.929688 C 118.371094 75.007812 118.308594 75.066406 118.230469 75.074219 C 118.136719 75.085938 116.878906 75.226562 115.507812 75.226562 " fill-opacity="1" fill-rule="nonzero"/><path fill="rgb(45.098877%, 45.098877%, 45.098877%)" d="M 106.753906 71.15625 C 106.667969 71.15625 106.59375 71.09375 106.578125 71.007812 C 106.558594 70.910156 106.625 70.820312 106.722656 70.800781 C 112.777344 69.734375 114.535156 65.570312 114.550781 65.527344 C 114.589844 65.4375 114.691406 65.394531 114.78125 65.429688 C 114.875 65.46875 114.917969 65.570312 114.882812 65.660156 C 114.863281 65.707031 113.03125 70.050781 106.785156 71.152344 C 106.773438 71.152344 106.761719 71.15625 106.753906 71.15625 " fill-opacity="1" fill-rule="nonzero"/><path fill="rgb(45.098877%, 45.098877%, 45.098877%)" d="M 117.753906 63.691406 L 109.957031 63.691406 L 112.398438 55.007812 L 120.195312 55.007812 L 117.753906 63.691406 " fill-opacity="1" fill-rule="nonzero"/><path fill="rgb(100%, 100%, 100%)" d="M 100.714844 58.621094 L 104.664062 56.859375 C 104.664062 56.859375 104.105469 63.527344 112.09375 60.449219 C 112.09375 60.449219 111.796875 59.589844 111.839844 58.589844 C 111.882812 57.589844 112.480469 58.558594 112.566406 59.371094 C 112.648438 60.183594 114.523438 59.855469 115.652344 59.535156 C 116.777344 59.214844 118.257812 59.421875 115.652344 60.855469 C 113.046875 62.289062 112.476562 61.648438 112.476562 61.648438 C 112.476562 61.648438 109.148438 66.292969 105.007812 65.304688 C 99.914062 64.09375 100.714844 58.621094 100.714844 58.621094 " fill-opacity="1" fill-rule="nonzero"/><path fill="rgb(45.098877%, 45.098877%, 45.098877%)" d="M 100.882812 58.738281 C 100.847656 59.070312 100.769531 60.226562 101.128906 61.46875 C 101.6875 63.414062 103.007812 64.648438 105.050781 65.132812 C 109.027344 66.082031 112.296875 61.59375 112.332031 61.546875 C 112.363281 61.503906 112.410156 61.476562 112.464844 61.472656 C 112.519531 61.472656 112.570312 61.492188 112.609375 61.53125 C 112.609375 61.53125 113.191406 62.007812 115.566406 60.699219 C 116.945312 59.941406 116.925781 59.664062 116.925781 59.660156 C 116.871094 59.574219 116.351562 59.519531 115.699219 59.703125 C 115.164062 59.855469 113.359375 60.320312 112.671875 59.855469 C 112.507812 59.742188 112.410156 59.582031 112.390625 59.390625 C 112.34375 58.964844 112.160156 58.554688 112.039062 58.398438 C 112.03125 58.441406 112.023438 58.503906 112.019531 58.597656 C 111.976562 59.554688 112.257812 60.382812 112.261719 60.390625 C 112.292969 60.480469 112.246094 60.578125 112.15625 60.613281 C 109.402344 61.675781 107.332031 61.710938 106.003906 60.722656 C 104.617188 59.683594 104.472656 57.851562 104.476562 57.136719 Z M 106.164062 65.617188 C 105.773438 65.617188 105.375 65.574219 104.964844 65.476562 C 99.777344 64.242188 100.53125 58.648438 100.539062 58.59375 C 100.550781 58.53125 100.589844 58.480469 100.644531 58.457031 L 104.589844 56.699219 C 104.648438 56.671875 104.714844 56.679688 104.765625 56.714844 C 104.816406 56.75 104.847656 56.8125 104.839844 56.875 C 104.839844 56.898438 104.664062 59.28125 106.21875 60.4375 C 107.417969 61.332031 109.320312 61.300781 111.875 60.339844 C 111.789062 60.039062 111.628906 59.355469 111.660156 58.582031 C 111.667969 58.4375 111.6875 57.996094 111.996094 57.988281 C 111.996094 57.988281 112 57.988281 112.003906 57.988281 C 112.394531 57.988281 112.695312 58.875 112.742188 59.351562 C 112.753906 59.441406 112.792969 59.507812 112.871094 59.558594 C 113.289062 59.84375 114.542969 59.664062 115.601562 59.363281 C 116.09375 59.222656 117.070312 59.078125 117.253906 59.527344 C 117.40625 59.894531 116.9375 60.351562 115.738281 61.011719 C 113.734375 62.113281 112.859375 62.027344 112.519531 61.882812 C 111.992188 62.558594 109.417969 65.617188 106.164062 65.617188 " fill-opacity="1" fill-rule="nonzero"/><path fill="rgb(45.098877%, 45.098877%, 45.098877%)" d="M 111.25 46.167969 C 110.910156 46.480469 110.246094 46.859375 109.722656 46.597656 C 109.332031 46.402344 109.117188 45.898438 109.128906 45.320312 C 108.949219 45.332031 108.714844 45.320312 108.546875 45.171875 C 108.289062 44.945312 108.335938 44.523438 108.347656 44.25 C 108.394531 42.976562 107.652344 42.78125 107.832031 41.914062 C 107.976562 41.238281 108.511719 40.832031 108.609375 40.753906 C 109.117188 40.375 109.457031 40.496094 110.308594 40.273438 C 111.738281 39.902344 111.78125 39.289062 112.722656 39.285156 C 112.777344 39.285156 114.058594 39.296875 114.496094 40.179688 C 114.847656 40.898438 114.4375 41.773438 114.007812 42.230469 C 113.457031 42.824219 113.058594 42.53125 112.503906 43.027344 C 111.527344 43.902344 112.265625 45.246094 111.25 46.167969 " fill-opacity="1" fill-rule="nonzero"/><path fill="rgb(100%, 100%, 100%)" d="M 114.105469 43.894531 L 114.046875 43.847656 C 113.765625 43.605469 113.46875 43.324219 113.394531 42.957031 C 113.078125 41.40625 111.652344 40.84375 111.585938 42.269531 C 111.570312 42.628906 110.253906 42.609375 110.410156 42.984375 C 110.816406 43.96875 110.824219 43.703125 110.25 44.066406 C 110.1875 44.070312 110.121094 44.082031 110.0625 44.113281 C 109.765625 44.25 109.660156 44.648438 109.828125 45.003906 C 109.929688 45.21875 110.105469 45.367188 110.296875 45.421875 L 110.296875 46.972656 C 110.296875 47.554688 109.941406 48.082031 109.402344 48.300781 L 108.875 48.515625 C 108.875 48.515625 111.328125 50.109375 113.820312 48.359375 L 113.484375 48.210938 C 112.902344 47.949219 112.515625 47.378906 112.496094 46.738281 L 112.492188 46.433594 C 112.660156 46.449219 112.824219 46.4375 112.972656 46.394531 C 113.667969 46.191406 113.902344 45.390625 113.78125 44.398438 L 114.066406 44.246094 C 114.199219 44.175781 114.21875 43.996094 114.105469 43.894531 " fill-opacity="1" fill-rule="nonzero"/><path fill="rgb(45.098877%, 45.098877%, 45.098877%)" d="M 109.289062 48.539062 C 109.972656 48.871094 111.667969 49.472656 113.449219 48.386719 L 113.414062 48.371094 C 112.769531 48.085938 112.339844 47.445312 112.320312 46.742188 L 112.316406 46.4375 C 112.316406 46.386719 112.335938 46.335938 112.371094 46.304688 C 112.410156 46.269531 112.460938 46.253906 112.507812 46.257812 C 112.660156 46.269531 112.800781 46.257812 112.921875 46.222656 C 113.707031 45.996094 113.660156 44.886719 113.605469 44.417969 C 113.597656 44.347656 113.632812 44.277344 113.699219 44.242188 L 113.980469 44.089844 C 113.996094 44.082031 114 44.070312 114 44.0625 C 114 44.054688 114 44.039062 113.988281 44.03125 L 113.929688 43.980469 C 113.632812 43.726562 113.308594 43.417969 113.222656 42.992188 C 113.03125 42.074219 112.457031 41.605469 112.128906 41.628906 C 111.824219 41.652344 111.773438 42.089844 111.765625 42.277344 C 111.75 42.578125 111.378906 42.679688 111.019531 42.78125 C 110.878906 42.820312 110.652344 42.882812 110.582031 42.9375 C 110.636719 43.070312 110.683594 43.179688 110.722656 43.269531 C 110.917969 43.71875 110.984375 43.867188 110.585938 44.078125 C 110.523438 44.113281 110.441406 44.15625 110.347656 44.21875 C 110.320312 44.234375 110.289062 44.242188 110.257812 44.242188 C 110.214844 44.246094 110.171875 44.257812 110.136719 44.273438 C 109.929688 44.367188 109.863281 44.664062 109.988281 44.925781 C 110.0625 45.085938 110.195312 45.207031 110.34375 45.25 C 110.421875 45.269531 110.472656 45.339844 110.472656 45.421875 L 110.472656 46.972656 C 110.472656 47.632812 110.078125 48.214844 109.46875 48.464844 Z M 111.300781 49.351562 C 109.859375 49.351562 108.792969 48.675781 108.777344 48.664062 C 108.722656 48.628906 108.691406 48.5625 108.699219 48.5 C 108.703125 48.433594 108.746094 48.375 108.808594 48.351562 L 109.335938 48.136719 C 109.808594 47.941406 110.117188 47.484375 110.117188 46.972656 L 110.117188 45.542969 C 109.925781 45.453125 109.765625 45.289062 109.667969 45.078125 C 109.460938 44.632812 109.601562 44.128906 109.984375 43.953125 C 110.050781 43.921875 110.121094 43.902344 110.195312 43.894531 C 110.285156 43.839844 110.359375 43.796875 110.417969 43.765625 C 110.457031 43.746094 110.496094 43.726562 110.519531 43.710938 C 110.503906 43.652344 110.453125 43.535156 110.398438 43.410156 C 110.355469 43.316406 110.304688 43.199219 110.246094 43.054688 C 110.207031 42.964844 110.210938 42.875 110.25 42.792969 C 110.34375 42.601562 110.613281 42.527344 110.925781 42.4375 C 111.078125 42.394531 111.359375 42.316406 111.410156 42.253906 C 111.453125 41.390625 111.949219 41.285156 112.101562 41.273438 C 112.636719 41.234375 113.347656 41.851562 113.570312 42.921875 C 113.636719 43.238281 113.910156 43.496094 114.164062 43.714844 L 114.21875 43.761719 C 114.320312 43.847656 114.367188 43.972656 114.355469 44.101562 C 114.339844 44.230469 114.265625 44.339844 114.148438 44.402344 L 113.972656 44.496094 C 114.074219 45.609375 113.734375 46.359375 113.023438 46.566406 C 112.914062 46.597656 112.796875 46.613281 112.671875 46.617188 L 112.675781 46.738281 C 112.691406 47.300781 113.039062 47.816406 113.558594 48.046875 L 113.890625 48.195312 C 113.949219 48.222656 113.988281 48.277344 113.996094 48.339844 C 114 48.40625 113.972656 48.46875 113.921875 48.503906 C 113.011719 49.144531 112.097656 49.351562 111.300781 49.351562 " fill-opacity="1" fill-rule="nonzero"/><path fill="rgb(45.098877%, 45.098877%, 45.098877%)" d="M 112.492188 46.613281 C 112.484375 46.613281 112.476562 46.609375 112.46875 46.609375 C 111.425781 46.449219 110.957031 45.65625 110.9375 45.625 C 110.890625 45.539062 110.917969 45.429688 111.003906 45.378906 C 111.089844 45.332031 111.199219 45.359375 111.246094 45.445312 C 111.253906 45.457031 111.65625 46.125 112.519531 46.257812 C 112.617188 46.273438 112.683594 46.363281 112.667969 46.460938 C 112.65625 46.550781 112.582031 46.613281 112.492188 46.613281 " fill-opacity="1" fill-rule="nonzero"/><path fill="rgb(45.098877%, 45.098877%, 45.098877%)" d="M 140.671875 99.3125 C 140.585938 99.3125 140.507812 99.25 140.496094 99.164062 C 140.480469 99.066406 140.546875 98.976562 140.644531 98.960938 C 140.753906 98.941406 151.824219 97.160156 159.414062 89.769531 C 159.484375 89.699219 159.597656 89.703125 159.667969 89.769531 C 159.734375 89.839844 159.734375 89.953125 159.664062 90.023438 C 151.992188 97.496094 140.808594 99.292969 140.699219 99.3125 C 140.6875 99.3125 140.679688 99.3125 140.671875 99.3125 " fill-opacity="1" fill-rule="nonzero"/><path fill="rgb(45.098877%, 45.098877%, 45.098877%)" d="M 149.488281 99.289062 C 149.417969 99.289062 149.347656 99.246094 149.320312 99.171875 C 149.289062 99.082031 149.335938 98.980469 149.425781 98.945312 C 149.511719 98.914062 158.011719 95.753906 160.886719 90.234375 C 160.933594 90.144531 161.039062 90.113281 161.128906 90.15625 C 161.214844 90.203125 161.25 90.308594 161.203125 90.398438 C 158.265625 96.042969 149.636719 99.246094 149.550781 99.277344 C 149.53125 99.285156 149.507812 99.289062 149.488281 99.289062 " fill-opacity="1" fill-rule="nonzero"/><path fill="rgb(45.098877%, 45.098877%, 45.098877%)" d="M 104.726562 21.367188 C 104.671875 21.367188 104.621094 21.34375 104.585938 21.300781 C 104.523438 21.222656 104.539062 21.109375 104.617188 21.050781 C 111.195312 15.902344 117.964844 14.097656 122.484375 13.492188 C 127.382812 12.835938 130.78125 13.402344 130.8125 13.410156 C 130.910156 13.425781 130.976562 13.515625 130.957031 13.613281 C 130.941406 13.710938 130.847656 13.777344 130.753906 13.757812 C 130.71875 13.753906 127.367188 13.191406 122.515625 13.847656 C 118.042969 14.449219 111.347656 16.234375 104.835938 21.328125 C 104.804688 21.355469 104.765625 21.367188 104.726562 21.367188 " fill-opacity="1" fill-rule="nonzero"/><path fill="rgb(45.098877%, 45.098877%, 45.098877%)" d="M 118.972656 12.46875 C 118.898438 12.46875 118.828125 12.421875 118.804688 12.347656 C 118.773438 12.253906 118.824219 12.152344 118.917969 12.121094 C 119.011719 12.09375 128.40625 9.179688 137.03125 12.050781 C 137.125 12.082031 137.175781 12.183594 137.144531 12.277344 C 137.113281 12.371094 137.011719 12.421875 136.921875 12.390625 C 128.402344 9.550781 119.121094 12.433594 119.027344 12.460938 C 119.007812 12.46875 118.992188 12.46875 118.972656 12.46875 " fill-opacity="1" fill-rule="nonzero"/><path fill="rgb(45.098877%, 45.098877%, 45.098877%)" d="M 95.609375 17.910156 C 95.5625 17.910156 95.519531 17.890625 95.484375 17.859375 C 95.414062 17.792969 95.410156 17.679688 95.480469 17.609375 L 96.039062 17.023438 C 96.109375 16.953125 96.21875 16.949219 96.292969 17.019531 C 96.363281 17.085938 96.363281 17.199219 96.296875 17.269531 L 95.738281 17.855469 C 95.703125 17.890625 95.65625 17.910156 95.609375 17.910156 " fill-opacity="1" fill-rule="nonzero"/><path fill="rgb(45.098877%, 45.098877%, 45.098877%)" d="M 93.644531 19.953125 C 93.601562 19.953125 93.558594 19.9375 93.523438 19.902344 C 93.453125 19.835938 93.449219 19.722656 93.515625 19.652344 L 94.078125 19.070312 C 94.144531 18.996094 94.257812 18.996094 94.328125 19.0625 C 94.402344 19.128906 94.402344 19.242188 94.335938 19.3125 L 93.773438 19.898438 C 93.738281 19.933594 93.691406 19.953125 93.644531 19.953125 " fill-opacity="1" fill-rule="nonzero"/><path fill="rgb(45.098877%, 45.098877%, 45.098877%)" d="M 94.195312 17.941406 C 94.152344 17.941406 94.105469 17.921875 94.070312 17.890625 L 93.503906 17.328125 C 93.433594 17.261719 93.429688 17.148438 93.5 17.078125 C 93.570312 17.007812 93.683594 17.007812 93.753906 17.078125 L 94.320312 17.636719 C 94.390625 17.703125 94.390625 17.816406 94.324219 17.886719 C 94.289062 17.921875 94.242188 17.941406 94.195312 17.941406 " fill-opacity="1" fill-rule="nonzero"/><path fill="rgb(45.098877%, 45.098877%, 45.098877%)" d="M 96.1875 19.894531 C 96.140625 19.894531 96.097656 19.878906 96.0625 19.84375 L 95.492188 19.285156 C 95.421875 19.21875 95.421875 19.105469 95.492188 19.035156 C 95.5625 18.964844 95.671875 18.964844 95.742188 19.035156 L 96.3125 19.59375 C 96.382812 19.660156 96.382812 19.773438 96.3125 19.84375 C 96.28125 19.878906 96.234375 19.894531 96.1875 19.894531 " fill-opacity="1" fill-rule="nonzero"/><path fill="rgb(45.098877%, 45.098877%, 45.098877%)" d="M 147.234375 100.109375 C 146.945312 100.109375 146.664062 100.257812 146.507812 100.523438 C 146.277344 100.921875 146.414062 101.433594 146.816406 101.664062 C 147.214844 101.894531 147.726562 101.757812 147.957031 101.359375 C 148.070312 101.164062 148.097656 100.941406 148.039062 100.726562 C 147.984375 100.511719 147.84375 100.332031 147.652344 100.21875 C 147.519531 100.144531 147.375 100.109375 147.234375 100.109375 Z M 147.230469 102.128906 C 147.027344 102.128906 146.824219 102.078125 146.636719 101.96875 C 146.066406 101.640625 145.871094 100.914062 146.199219 100.347656 C 146.527344 99.777344 147.257812 99.582031 147.828125 99.910156 C 148.105469 100.070312 148.300781 100.328125 148.382812 100.632812 C 148.46875 100.941406 148.425781 101.261719 148.265625 101.535156 C 148.042969 101.917969 147.644531 102.128906 147.230469 102.128906 " fill-opacity="1" fill-rule="nonzero"/><path fill="rgb(45.098877%, 45.098877%, 45.098877%)" d="M 139.59375 12.570312 C 139.417969 12.570312 139.25 12.660156 139.15625 12.820312 C 139.015625 13.058594 139.101562 13.367188 139.339844 13.507812 C 139.582031 13.644531 139.890625 13.5625 140.027344 13.324219 C 140.167969 13.082031 140.085938 12.777344 139.84375 12.636719 C 139.765625 12.589844 139.679688 12.570312 139.59375 12.570312 Z M 139.589844 13.929688 C 139.445312 13.929688 139.296875 13.890625 139.160156 13.8125 C 138.75 13.578125 138.609375 13.050781 138.847656 12.644531 C 139.085938 12.234375 139.613281 12.09375 140.023438 12.328125 C 140.433594 12.566406 140.574219 13.089844 140.335938 13.5 C 140.175781 13.773438 139.886719 13.929688 139.589844 13.929688 " fill-opacity="1" fill-rule="nonzero"/></svg>