<svg xmlns="http://www.w3.org/2000/svg" xmlns:xlink="http://www.w3.org/1999/xlink" width="360" zoomAndPan="magnify" viewBox="0 0 270 119.999999" height="160" preserveAspectRatio="xMidYMid meet" version="1.0"><defs><clipPath id="id1"><path d="M 149 77 L 187.585938 77 L 187.585938 112.488281 L 149 112.488281 Z M 149 77 " clip-rule="nonzero"/></clipPath><clipPath id="id2"><path d="M 86 58 L 141 58 L 141 112.488281 L 86 112.488281 Z M 86 58 " clip-rule="nonzero"/></clipPath></defs><path fill="rgb(100%, 100%, 100%)" d="M 152 72.238281 C 152 72.523438 151.972656 72.804688 151.917969 73.082031 C 151.859375 73.363281 151.777344 73.632812 151.667969 73.894531 C 151.558594 74.160156 151.425781 74.410156 151.269531 74.644531 C 151.109375 74.882812 150.929688 75.101562 150.726562 75.300781 C 150.527344 75.503906 150.308594 75.683594 150.070312 75.839844 C 149.832031 76 149.582031 76.132812 149.320312 76.242188 C 149.058594 76.351562 148.785156 76.433594 148.507812 76.488281 C 148.226562 76.542969 147.945312 76.570312 147.660156 76.570312 C 147.375 76.570312 147.09375 76.542969 146.8125 76.488281 C 146.535156 76.433594 146.261719 76.351562 146 76.242188 C 145.734375 76.132812 145.484375 76 145.25 75.839844 C 145.011719 75.683594 144.792969 75.503906 144.589844 75.300781 C 144.390625 75.101562 144.210938 74.882812 144.050781 74.644531 C 143.894531 74.410156 143.757812 74.160156 143.648438 73.894531 C 143.542969 73.632812 143.457031 73.363281 143.402344 73.082031 C 143.347656 72.804688 143.320312 72.523438 143.320312 72.238281 C 143.320312 71.953125 143.347656 71.671875 143.402344 71.394531 C 143.457031 71.113281 143.542969 70.84375 143.648438 70.582031 C 143.757812 70.316406 143.894531 70.066406 144.050781 69.832031 C 144.210938 69.59375 144.390625 69.375 144.589844 69.175781 C 144.792969 68.972656 145.011719 68.792969 145.25 68.636719 C 145.484375 68.480469 145.734375 68.34375 146 68.238281 C 146.261719 68.128906 146.535156 68.046875 146.8125 67.988281 C 147.09375 67.933594 147.375 67.90625 147.660156 67.90625 C 147.945312 67.90625 148.226562 67.933594 148.507812 67.988281 C 148.785156 68.046875 149.058594 68.128906 149.320312 68.238281 C 149.582031 68.34375 149.832031 68.480469 150.070312 68.636719 C 150.308594 68.792969 150.527344 68.972656 150.726562 69.175781 C 150.929688 69.375 151.109375 69.59375 151.269531 69.832031 C 151.425781 70.066406 151.558594 70.316406 151.667969 70.582031 C 151.777344 70.84375 151.859375 71.113281 151.917969 71.394531 C 151.972656 71.671875 152 71.953125 152 72.238281 Z M 152 72.238281 " fill-opacity="1" fill-rule="nonzero"/><path fill="rgb(100%, 100%, 100%)" d="M 160.191406 67.058594 C 160.460938 66.722656 160.65625 66.351562 160.789062 65.945312 C 160.917969 65.539062 160.972656 65.121094 160.945312 64.695312 C 160.921875 64.269531 160.824219 63.859375 160.648438 63.46875 C 160.472656 63.078125 160.234375 62.734375 159.933594 62.429688 L 157.484375 59.988281 C 157.183594 59.683594 156.835938 59.445312 156.445312 59.269531 C 156.054688 59.09375 155.644531 58.996094 155.21875 58.972656 C 154.789062 58.945312 154.371094 59 153.964844 59.128906 C 153.554688 59.261719 153.183594 59.460938 152.851562 59.726562 C 152.804688 59.304688 152.679688 58.902344 152.484375 58.523438 C 152.289062 58.144531 152.03125 57.8125 151.714844 57.527344 C 151.394531 57.242188 151.035156 57.023438 150.636719 56.871094 C 150.238281 56.71875 149.824219 56.644531 149.394531 56.644531 L 149.394531 37.582031 C 149.394531 37.351562 149.351562 37.132812 149.261719 36.917969 C 149.175781 36.707031 149.050781 36.519531 148.886719 36.355469 C 148.722656 36.195312 148.535156 36.070312 148.324219 35.980469 C 148.113281 35.894531 147.890625 35.851562 147.660156 35.851562 L 119.886719 35.851562 C 119.65625 35.851562 119.433594 35.894531 119.222656 35.980469 C 119.007812 36.070312 118.820312 36.195312 118.65625 36.355469 C 118.496094 36.519531 118.371094 36.707031 118.28125 36.917969 C 118.195312 37.132812 118.148438 37.351562 118.148438 37.582031 L 118.148438 79.167969 C 118.148438 79.398438 118.195312 79.621094 118.28125 79.832031 C 118.371094 80.046875 118.496094 80.234375 118.65625 80.394531 C 118.820312 80.558594 119.007812 80.683594 119.222656 80.769531 C 119.433594 80.859375 119.65625 80.902344 119.886719 80.902344 L 134.625 80.902344 C 134.808594 81.332031 135.0625 81.710938 135.386719 82.046875 L 137.835938 84.488281 C 138.136719 84.792969 138.484375 85.03125 138.875 85.207031 C 139.265625 85.382812 139.675781 85.480469 140.101562 85.507812 C 140.53125 85.53125 140.949219 85.476562 141.355469 85.347656 C 141.765625 85.214844 142.136719 85.015625 142.46875 84.75 C 142.515625 85.171875 142.636719 85.574219 142.832031 85.953125 C 143.03125 86.335938 143.285156 86.667969 143.605469 86.953125 C 143.925781 87.234375 144.285156 87.453125 144.683594 87.605469 C 145.082031 87.757812 145.496094 87.835938 145.925781 87.832031 L 149.394531 87.832031 C 149.824219 87.835938 150.238281 87.757812 150.636719 87.605469 C 151.035156 87.453125 151.394531 87.234375 151.714844 86.953125 C 152.03125 86.667969 152.289062 86.335938 152.484375 85.953125 C 152.679688 85.574219 152.804688 85.171875 152.851562 84.75 C 153.183594 85.015625 153.554688 85.214844 153.964844 85.347656 C 154.371094 85.476562 154.789062 85.53125 155.21875 85.507812 C 155.644531 85.480469 156.054688 85.382812 156.445312 85.207031 C 156.835938 85.03125 157.183594 84.792969 157.484375 84.488281 L 159.933594 82.046875 C 160.234375 81.742188 160.472656 81.398438 160.648438 81.007812 C 160.824219 80.617188 160.921875 80.210938 160.945312 79.78125 C 160.972656 79.355469 160.917969 78.9375 160.789062 78.53125 C 160.65625 78.125 160.460938 77.753906 160.191406 77.417969 C 160.617188 77.371094 161.019531 77.25 161.402344 77.054688 C 161.78125 76.859375 162.113281 76.605469 162.398438 76.285156 C 162.683594 75.96875 162.902344 75.609375 163.054688 75.210938 C 163.207031 74.8125 163.285156 74.398438 163.28125 73.972656 L 163.28125 70.503906 C 163.285156 70.078125 163.207031 69.667969 163.054688 69.265625 C 162.902344 68.867188 162.683594 68.511719 162.398438 68.191406 C 162.113281 67.875 161.78125 67.617188 161.402344 67.421875 C 161.019531 67.226562 160.617188 67.105469 160.191406 67.058594 Z M 126.828125 42.78125 C 127.058594 42.78125 127.28125 42.824219 127.492188 42.914062 C 127.707031 43 127.894531 43.125 128.054688 43.289062 C 128.21875 43.449219 128.34375 43.636719 128.433594 43.851562 C 128.519531 44.0625 128.566406 44.285156 128.566406 44.515625 C 128.566406 44.742188 128.519531 44.964844 128.433594 45.175781 C 128.34375 45.390625 128.21875 45.578125 128.054688 45.738281 C 127.894531 45.902344 127.707031 46.027344 127.492188 46.113281 C 127.28125 46.203125 127.058594 46.246094 126.828125 46.246094 C 126.597656 46.246094 126.378906 46.203125 126.164062 46.113281 C 125.953125 46.027344 125.765625 45.902344 125.601562 45.738281 C 125.4375 45.578125 125.3125 45.390625 125.226562 45.175781 C 125.136719 44.964844 125.09375 44.742188 125.09375 44.515625 C 125.09375 44.285156 125.136719 44.0625 125.226562 43.851562 C 125.3125 43.636719 125.4375 43.449219 125.601562 43.289062 C 125.765625 43.125 125.953125 43 126.164062 42.914062 C 126.378906 42.824219 126.597656 42.78125 126.828125 42.78125 Z M 121.621094 49.710938 L 145.925781 49.710938 L 145.925781 53.179688 L 121.621094 53.179688 Z M 128.566406 58.375 C 128.566406 58.605469 128.519531 58.828125 128.433594 59.039062 C 128.34375 59.25 128.21875 59.4375 128.054688 59.601562 C 127.894531 59.765625 127.707031 59.890625 127.492188 59.976562 C 127.28125 60.066406 127.058594 60.109375 126.828125 60.109375 C 126.597656 60.109375 126.378906 60.066406 126.164062 59.976562 C 125.953125 59.890625 125.765625 59.765625 125.601562 59.601562 C 125.4375 59.4375 125.3125 59.25 125.226562 59.039062 C 125.136719 58.828125 125.09375 58.605469 125.09375 58.375 C 125.09375 58.144531 125.136719 57.925781 125.226562 57.714844 C 125.3125 57.5 125.4375 57.3125 125.601562 57.152344 C 125.765625 56.988281 125.953125 56.863281 126.164062 56.773438 C 126.378906 56.6875 126.597656 56.644531 126.828125 56.644531 C 127.058594 56.644531 127.28125 56.6875 127.492188 56.773438 C 127.707031 56.863281 127.894531 56.988281 128.054688 57.152344 C 128.21875 57.3125 128.34375 57.5 128.433594 57.714844 C 128.519531 57.925781 128.566406 58.144531 128.566406 58.375 Z M 121.621094 63.574219 L 134.625 63.574219 C 134.386719 64.152344 134.3125 64.753906 134.398438 65.371094 C 134.484375 65.992188 134.722656 66.546875 135.109375 67.039062 L 121.621094 67.039062 Z M 126.828125 73.972656 C 126.597656 73.972656 126.378906 73.925781 126.164062 73.839844 C 125.953125 73.75 125.765625 73.625 125.601562 73.464844 C 125.4375 73.300781 125.3125 73.113281 125.226562 72.902344 C 125.136719 72.6875 125.09375 72.46875 125.09375 72.238281 C 125.09375 72.007812 125.136719 71.789062 125.226562 71.574219 C 125.3125 71.363281 125.4375 71.175781 125.601562 71.011719 C 125.765625 70.851562 125.953125 70.726562 126.164062 70.636719 C 126.378906 70.550781 126.597656 70.503906 126.828125 70.503906 C 127.058594 70.503906 127.28125 70.550781 127.492188 70.636719 C 127.707031 70.726562 127.894531 70.851562 128.054688 71.011719 C 128.21875 71.175781 128.34375 71.363281 128.433594 71.574219 C 128.519531 71.789062 128.566406 72.007812 128.566406 72.238281 C 128.566406 72.46875 128.519531 72.6875 128.433594 72.902344 C 128.34375 73.113281 128.21875 73.300781 128.054688 73.464844 C 127.894531 73.625 127.707031 73.75 127.492188 73.839844 C 127.28125 73.925781 127.058594 73.972656 126.828125 73.972656 Z M 159.8125 73.972656 L 155.253906 73.972656 C 155.0625 74.832031 154.730469 75.632812 154.265625 76.378906 L 157.476562 79.585938 L 155.011719 82.046875 L 151.800781 78.839844 C 151.054688 79.300781 150.253906 79.628906 149.394531 79.820312 L 149.394531 84.367188 L 145.925781 84.367188 L 145.925781 79.820312 C 145.0625 79.625 144.257812 79.296875 143.511719 78.832031 L 140.300781 82.039062 L 137.835938 79.578125 L 141.046875 76.371094 C 140.582031 75.625 140.257812 74.828125 140.066406 73.972656 L 135.507812 73.972656 L 135.507812 70.503906 L 140.066406 70.503906 C 140.257812 69.648438 140.589844 68.84375 141.054688 68.097656 L 137.84375 64.890625 L 140.308594 62.429688 L 143.519531 65.636719 C 144.265625 65.175781 145.066406 64.847656 145.925781 64.65625 L 145.925781 60.109375 L 149.394531 60.109375 L 149.394531 64.65625 C 150.257812 64.851562 151.058594 65.179688 151.808594 65.644531 L 155.019531 62.441406 L 157.484375 64.898438 L 154.273438 68.105469 C 154.734375 68.851562 155.0625 69.652344 155.253906 70.503906 L 159.8125 70.503906 Z M 159.8125 73.972656 " fill-opacity="1" fill-rule="nonzero"/><g clip-path="url(#id1)"><path fill="rgb(100%, 100%, 100%)" d="M 185.847656 77.4375 L 178.90625 77.4375 C 178.675781 77.4375 178.453125 77.480469 178.242188 77.570312 C 178.027344 77.65625 177.839844 77.78125 177.679688 77.945312 C 177.515625 78.105469 177.390625 78.292969 177.300781 78.507812 C 177.214844 78.71875 177.171875 78.941406 177.171875 79.167969 L 177.171875 108.628906 L 173.699219 108.628906 L 173.699219 88.527344 C 173.699219 88.296875 173.652344 88.074219 173.566406 87.863281 C 173.476562 87.652344 173.351562 87.464844 173.191406 87.300781 C 173.027344 87.140625 172.839844 87.015625 172.625 86.925781 C 172.414062 86.839844 172.191406 86.792969 171.960938 86.792969 L 165.019531 86.792969 C 164.789062 86.792969 164.566406 86.839844 164.355469 86.925781 C 164.140625 87.015625 163.953125 87.140625 163.792969 87.300781 C 163.628906 87.464844 163.503906 87.652344 163.414062 87.863281 C 163.328125 88.074219 163.28125 88.296875 163.28125 88.527344 L 163.28125 108.628906 L 159.8125 108.628906 L 159.8125 94.765625 C 159.8125 94.535156 159.765625 94.3125 159.679688 94.101562 C 159.589844 93.890625 159.464844 93.703125 159.300781 93.539062 C 159.140625 93.378906 158.953125 93.253906 158.738281 93.164062 C 158.527344 93.074219 158.304688 93.03125 158.074219 93.03125 L 151.132812 93.03125 C 150.902344 93.03125 150.679688 93.074219 150.46875 93.164062 C 150.253906 93.253906 150.066406 93.378906 149.902344 93.539062 C 149.742188 93.703125 149.617188 93.890625 149.527344 94.101562 C 149.441406 94.3125 149.394531 94.535156 149.394531 94.765625 L 149.394531 110.359375 C 149.394531 110.589844 149.441406 110.8125 149.527344 111.023438 C 149.617188 111.234375 149.742188 111.421875 149.902344 111.585938 C 150.066406 111.746094 150.253906 111.871094 150.46875 111.960938 C 150.679688 112.050781 150.902344 112.09375 151.132812 112.09375 L 185.847656 112.09375 C 186.078125 112.09375 186.300781 112.050781 186.515625 111.960938 C 186.726562 111.875 186.914062 111.746094 187.078125 111.585938 C 187.238281 111.421875 187.363281 111.234375 187.453125 111.023438 C 187.542969 110.8125 187.585938 110.589844 187.585938 110.359375 L 187.585938 79.167969 C 187.585938 78.941406 187.542969 78.71875 187.453125 78.507812 C 187.363281 78.292969 187.238281 78.105469 187.078125 77.945312 C 186.914062 77.78125 186.726562 77.65625 186.515625 77.570312 C 186.300781 77.480469 186.078125 77.4375 185.847656 77.4375 Z M 185.847656 77.4375 " fill-opacity="1" fill-rule="nonzero"/></g><path fill="rgb(100%, 100%, 100%)" d="M 135.507812 18.523438 C 136.023438 18.523438 136.523438 18.449219 137.015625 18.300781 C 137.507812 18.152344 137.964844 17.933594 138.390625 17.652344 C 138.820312 17.367188 139.195312 17.027344 139.523438 16.632812 C 139.851562 16.238281 140.113281 15.804688 140.308594 15.332031 C 163.039062 17.730469 180.640625 37.117188 180.640625 60.109375 C 180.640625 60.339844 180.6875 60.558594 180.773438 60.773438 C 180.863281 60.984375 180.988281 61.171875 181.148438 61.335938 C 181.3125 61.496094 181.5 61.621094 181.714844 61.710938 C 181.925781 61.796875 182.148438 61.84375 182.378906 61.84375 C 182.609375 61.84375 182.828125 61.796875 183.042969 61.710938 C 183.253906 61.621094 183.441406 61.496094 183.605469 61.335938 C 183.769531 61.171875 183.894531 60.984375 183.980469 60.773438 C 184.070312 60.558594 184.113281 60.339844 184.113281 60.109375 C 184.113281 35.28125 165.058594 14.363281 140.480469 11.867188 C 140.300781 11.25 140.011719 10.683594 139.617188 10.171875 C 139.222656 9.660156 138.75 9.238281 138.195312 8.902344 C 137.644531 8.566406 137.050781 8.34375 136.414062 8.226562 C 135.777344 8.113281 135.140625 8.117188 134.507812 8.242188 C 133.871094 8.363281 133.28125 8.597656 132.734375 8.941406 C 132.183594 9.285156 131.71875 9.714844 131.332031 10.230469 C 130.945312 10.75 130.664062 11.320312 130.492188 11.941406 C 130.316406 12.5625 130.261719 13.195312 130.324219 13.835938 C 130.386719 14.480469 130.5625 15.089844 130.855469 15.664062 C 131.144531 16.242188 131.53125 16.746094 132.007812 17.179688 C 132.488281 17.613281 133.03125 17.945312 133.632812 18.175781 C 134.238281 18.410156 134.863281 18.523438 135.507812 18.523438 Z M 135.507812 18.523438 " fill-opacity="1" fill-rule="nonzero"/><g clip-path="url(#id2)"><path fill="rgb(100%, 100%, 100%)" d="M 135.507812 101.695312 C 134.996094 101.695312 134.492188 101.769531 134.003906 101.917969 C 133.511719 102.066406 133.050781 102.285156 132.625 102.566406 C 132.199219 102.851562 131.820312 103.191406 131.492188 103.585938 C 131.167969 103.980469 130.90625 104.414062 130.707031 104.886719 C 107.976562 102.488281 90.375 83.101562 90.375 60.109375 C 90.375 59.878906 90.332031 59.65625 90.242188 59.445312 C 90.15625 59.234375 90.03125 59.046875 89.867188 58.882812 C 89.703125 58.722656 89.515625 58.597656 89.304688 58.507812 C 89.089844 58.421875 88.871094 58.375 88.640625 58.375 C 88.410156 58.375 88.1875 58.421875 87.976562 58.507812 C 87.761719 58.597656 87.574219 58.722656 87.410156 58.882812 C 87.25 59.046875 87.125 59.234375 87.035156 59.445312 C 86.949219 59.65625 86.902344 59.878906 86.902344 60.109375 C 86.902344 84.9375 105.960938 105.855469 130.535156 108.351562 C 130.71875 108.96875 131.007812 109.535156 131.402344 110.046875 C 131.792969 110.558594 132.269531 110.980469 132.820312 111.316406 C 133.371094 111.652344 133.96875 111.875 134.605469 111.988281 C 135.242188 112.105469 135.875 112.097656 136.511719 111.976562 C 137.144531 111.851562 137.738281 111.621094 138.285156 111.277344 C 138.832031 110.933594 139.296875 110.503906 139.683594 109.984375 C 140.070312 109.46875 140.351562 108.898438 140.527344 108.277344 C 140.699219 107.65625 140.753906 107.023438 140.691406 106.382812 C 140.628906 105.738281 140.453125 105.128906 140.164062 104.554688 C 139.871094 103.976562 139.488281 103.472656 139.007812 103.039062 C 138.527344 102.605469 137.988281 102.273438 137.382812 102.042969 C 136.78125 101.808594 136.15625 101.695312 135.507812 101.695312 Z M 135.507812 101.695312 " fill-opacity="1" fill-rule="nonzero"/></g><path fill="rgb(100%, 100%, 100%)" d="M 113.429688 19.664062 C 114.988281 15.59375 114.765625 12.25 112.777344 10.257812 C 110.015625 7.5 104.703125 8.265625 99.0625 11.773438 C 93.40625 8.273438 88.109375 7.511719 85.351562 10.257812 C 83.351562 12.25 83.128906 15.59375 84.699219 19.664062 C 85.277344 21.160156 85.996094 22.582031 86.851562 23.9375 C 83.34375 29.570312 82.582031 34.851562 85.332031 37.625 C 86.476562 38.753906 88.039062 39.308594 89.890625 39.308594 C 92.511719 39.308594 95.722656 38.179688 99.039062 36.117188 C 102.371094 38.1875 105.582031 39.316406 108.203125 39.316406 C 110.058594 39.316406 111.621094 38.761719 112.757812 37.632812 C 115.519531 34.863281 114.753906 29.578125 111.242188 23.945312 C 112.109375 22.589844 112.835938 21.164062 113.429688 19.664062 Z M 108.203125 12.023438 C 109.121094 12.023438 109.851562 12.242188 110.304688 12.71875 C 111.242188 13.652344 111.207031 15.785156 110.183594 18.433594 C 109.863281 19.253906 109.492188 20.046875 109.070312 20.816406 C 108.058594 19.539062 106.972656 18.328125 105.816406 17.179688 C 104.671875 16.035156 103.457031 14.964844 102.179688 13.972656 C 104.539062 12.671875 106.648438 12.023438 108.203125 12.023438 Z M 87.804688 35.175781 C 86.554688 33.925781 87.023438 30.789062 89.054688 27.066406 C 90.050781 28.347656 91.128906 29.5625 92.285156 30.703125 C 93.433594 31.855469 94.648438 32.929688 95.929688 33.925781 C 92.199219 35.953125 89.054688 36.421875 87.804688 35.175781 Z M 92.285156 17.195312 C 91.128906 18.34375 90.042969 19.558594 89.03125 20.835938 C 88.609375 20.0625 88.238281 19.269531 87.917969 18.453125 C 86.902344 15.785156 86.867188 13.652344 87.804688 12.71875 C 88.257812 12.242188 88.988281 12.023438 89.90625 12.023438 C 91.460938 12.023438 93.570312 12.671875 95.929688 13.972656 C 94.648438 14.96875 93.433594 16.039062 92.285156 17.1875 Z M 99.054688 25.453125 C 98.824219 25.453125 98.601562 25.410156 98.390625 25.320312 C 98.175781 25.234375 97.988281 25.109375 97.828125 24.945312 C 97.664062 24.78125 97.539062 24.59375 97.449219 24.382812 C 97.363281 24.171875 97.320312 23.949219 97.320312 23.71875 C 97.320312 23.492188 97.363281 23.269531 97.449219 23.058594 C 97.539062 22.84375 97.664062 22.65625 97.828125 22.496094 C 97.988281 22.332031 98.175781 22.207031 98.390625 22.121094 C 98.601562 22.03125 98.824219 21.988281 99.054688 21.988281 C 99.285156 21.988281 99.507812 22.03125 99.71875 22.121094 C 99.929688 22.207031 100.121094 22.332031 100.28125 22.496094 C 100.445312 22.65625 100.570312 22.84375 100.660156 23.058594 C 100.746094 23.269531 100.789062 23.492188 100.789062 23.71875 C 100.789062 23.949219 100.746094 24.171875 100.660156 24.382812 C 100.570312 24.59375 100.445312 24.78125 100.28125 24.945312 C 100.121094 25.109375 99.929688 25.234375 99.71875 25.320312 C 99.507812 25.410156 99.285156 25.453125 99.054688 25.453125 Z M 110.304688 35.175781 C 109.054688 36.421875 105.910156 35.953125 102.179688 33.925781 C 103.460938 32.929688 104.675781 31.855469 105.824219 30.703125 C 106.980469 29.5625 108.058594 28.347656 109.054688 27.066406 C 111.085938 30.789062 111.554688 33.925781 110.304688 35.175781 Z M 110.304688 35.175781 " fill-opacity="1" fill-rule="nonzero"/></svg>