<svg xmlns="http://www.w3.org/2000/svg" xmlns:xlink="http://www.w3.org/1999/xlink" width="360" zoomAndPan="magnify" viewBox="0 0 270 119.999999" height="160" preserveAspectRatio="xMidYMid meet" version="1.0"><defs><clipPath id="id1"><path d="M 104.9375 74 L 164.9375 74 L 164.9375 97.640625 L 104.9375 97.640625 Z M 104.9375 74 " clip-rule="nonzero"/></clipPath><clipPath id="id2"><path d="M 105 66 L 164.9375 66 L 164.9375 97 L 105 97 Z M 105 66 " clip-rule="nonzero"/></clipPath><clipPath id="id3"><path d="M 105 55 L 164.9375 55 L 164.9375 79 L 105 79 Z M 105 55 " clip-rule="nonzero"/></clipPath><clipPath id="id4"><path d="M 105 54 L 164.9375 54 L 164.9375 78 L 105 78 Z M 105 54 " clip-rule="nonzero"/></clipPath><clipPath id="id5"><path d="M 104.9375 54 L 164.9375 54 L 164.9375 78 L 104.9375 78 Z M 104.9375 54 " clip-rule="nonzero"/></clipPath><clipPath id="id6"><path d="M 105 46 L 164.9375 46 L 164.9375 78 L 105 78 Z M 105 46 " clip-rule="nonzero"/></clipPath><clipPath id="id7"><path d="M 105 35 L 164.9375 35 L 164.9375 59 L 105 59 Z M 105 35 " clip-rule="nonzero"/></clipPath><clipPath id="id8"><path d="M 105 34 L 164.9375 34 L 164.9375 58 L 105 58 Z M 105 34 " clip-rule="nonzero"/></clipPath><clipPath id="id9"><path d="M 104.9375 34 L 164.9375 34 L 164.9375 59 L 104.9375 59 Z M 104.9375 34 " clip-rule="nonzero"/></clipPath><clipPath id="id10"><path d="M 105 27 L 164.9375 27 L 164.9375 58 L 105 58 Z M 105 27 " clip-rule="nonzero"/></clipPath><clipPath id="id11"><path d="M 105 15.140625 L 164.9375 15.140625 L 164.9375 40 L 105 40 Z M 105 15.140625 " clip-rule="nonzero"/></clipPath><clipPath id="id12"><path d="M 105 15.140625 L 164.9375 15.140625 L 164.9375 39 L 105 39 Z M 105 15.140625 " clip-rule="nonzero"/></clipPath></defs><g clip-path="url(#id1)"><path fill="rgb(85.099792%, 85.099792%, 85.099792%)" d="M 164.824219 85.855469 C 164.824219 92.371094 151.421875 97.652344 134.894531 97.652344 C 118.363281 97.652344 104.964844 92.371094 104.964844 85.855469 C 104.964844 79.339844 118.363281 74.058594 134.894531 74.058594 C 151.425781 74.058594 164.824219 79.339844 164.824219 85.855469 Z M 164.824219 85.855469 " fill-opacity="1" fill-rule="nonzero"/></g><g clip-path="url(#id2)"><path fill="rgb(100%, 100%, 100%)" d="M 105.03125 66.347656 L 105.03125 66.472656 C 105.03125 66.429688 105.039062 66.386719 105.042969 66.347656 Z M 164.855469 66.347656 C 164.871094 66.488281 164.882812 66.636719 164.882812 66.78125 L 164.882812 66.347656 Z M 164.882812 66.78125 C 164.882812 73.292969 151.46875 78.574219 134.949219 78.574219 C 118.683594 78.574219 105.4375 73.457031 105.027344 67.085938 L 105.027344 84.683594 C 105.023438 84.785156 105.023438 84.882812 105.023438 84.984375 C 105.023438 85.082031 105.023438 85.179688 105.027344 85.277344 C 105.421875 91.652344 118.675781 96.785156 134.949219 96.785156 C 151.222656 96.785156 164.476562 91.652344 164.867188 85.277344 L 164.882812 85.277344 L 164.882812 85.058594 C 164.882812 85.035156 164.882812 85.007812 164.882812 84.984375 C 164.882812 84.957031 164.882812 84.933594 164.882812 84.90625 Z M 164.882812 66.78125 " fill-opacity="1" fill-rule="nonzero"/></g><g clip-path="url(#id3)"><path fill="rgb(100%, 100%, 100%)" d="M 164.894531 66.851562 C 164.894531 73.367188 151.492188 78.648438 134.960938 78.648438 C 118.433594 78.648438 105.03125 73.363281 105.03125 66.851562 C 105.03125 60.335938 118.433594 55.054688 134.960938 55.054688 C 151.492188 55.054688 164.894531 60.335938 164.894531 66.851562 Z M 164.894531 66.851562 " fill-opacity="1" fill-rule="nonzero"/></g><g clip-path="url(#id4)"><path fill="rgb(100%, 100%, 100%)" d="M 164.507812 66.035156 C 164.507812 72.433594 151.347656 77.621094 135.117188 77.621094 C 118.882812 77.621094 105.726562 72.433594 105.726562 66.035156 C 105.726562 59.636719 118.886719 54.453125 135.117188 54.453125 C 151.347656 54.453125 164.507812 59.636719 164.507812 66.035156 Z M 164.507812 66.035156 " fill-opacity="1" fill-rule="nonzero"/></g><g clip-path="url(#id5)"><path fill="rgb(85.099792%, 85.099792%, 85.099792%)" d="M 164.824219 66.195312 C 164.824219 72.710938 151.421875 77.992188 134.894531 77.992188 C 118.363281 77.992188 104.964844 72.710938 104.964844 66.195312 C 104.964844 59.683594 118.363281 54.398438 134.894531 54.398438 C 151.425781 54.398438 164.824219 59.683594 164.824219 66.195312 Z M 164.824219 66.195312 " fill-opacity="1" fill-rule="nonzero"/></g><g clip-path="url(#id6)"><path fill="rgb(100%, 100%, 100%)" d="M 105.03125 46.6875 L 105.03125 46.816406 C 105.03125 46.773438 105.039062 46.730469 105.042969 46.6875 Z M 164.855469 46.6875 C 164.871094 46.832031 164.882812 46.976562 164.882812 47.121094 L 164.882812 46.6875 Z M 164.882812 47.121094 C 164.882812 53.632812 151.46875 58.914062 134.949219 58.914062 C 118.683594 58.914062 105.4375 53.796875 105.027344 47.425781 L 105.027344 65.027344 C 105.023438 65.128906 105.023438 65.222656 105.023438 65.324219 C 105.023438 65.421875 105.023438 65.523438 105.027344 65.617188 C 105.421875 71.996094 118.675781 77.125 134.949219 77.125 C 151.222656 77.125 164.476562 71.996094 164.867188 65.617188 L 164.882812 65.617188 L 164.882812 65.402344 C 164.882812 65.375 164.882812 65.351562 164.882812 65.324219 C 164.882812 65.300781 164.882812 65.273438 164.882812 65.25 Z M 164.882812 47.121094 " fill-opacity="1" fill-rule="nonzero"/></g><g clip-path="url(#id7)"><path fill="rgb(100%, 100%, 100%)" d="M 164.894531 47.191406 C 164.894531 53.707031 151.492188 58.988281 134.960938 58.988281 C 118.433594 58.988281 105.03125 53.707031 105.03125 47.191406 C 105.03125 40.675781 118.433594 35.394531 134.960938 35.394531 C 151.492188 35.394531 164.894531 40.675781 164.894531 47.191406 Z M 164.894531 47.191406 " fill-opacity="1" fill-rule="nonzero"/></g><g clip-path="url(#id8)"><path fill="rgb(100%, 100%, 100%)" d="M 164.507812 46.378906 C 164.507812 52.777344 151.347656 57.960938 135.117188 57.960938 C 118.882812 57.960938 105.726562 52.777344 105.726562 46.378906 C 105.726562 39.980469 118.886719 34.792969 135.117188 34.792969 C 151.347656 34.792969 164.507812 39.980469 164.507812 46.378906 Z M 164.507812 46.378906 " fill-opacity="1" fill-rule="nonzero"/></g><g clip-path="url(#id9)"><path fill="rgb(85.099792%, 85.099792%, 85.099792%)" d="M 164.824219 46.542969 C 164.824219 53.058594 151.421875 58.339844 134.894531 58.339844 C 118.363281 58.339844 104.964844 53.058594 104.964844 46.542969 C 104.964844 40.027344 118.363281 34.746094 134.894531 34.746094 C 151.425781 34.746094 164.824219 40.027344 164.824219 46.542969 Z M 164.824219 46.542969 " fill-opacity="1" fill-rule="nonzero"/></g><g clip-path="url(#id10)"><path fill="rgb(100%, 100%, 100%)" d="M 105.03125 27.035156 L 105.03125 27.160156 C 105.03125 27.121094 105.039062 27.078125 105.042969 27.035156 Z M 164.855469 27.035156 C 164.871094 27.175781 164.882812 27.324219 164.882812 27.46875 L 164.882812 27.035156 Z M 164.882812 27.46875 C 164.882812 33.980469 151.46875 39.261719 134.949219 39.261719 C 118.683594 39.261719 105.4375 34.144531 105.027344 27.773438 L 105.027344 45.371094 C 105.023438 45.472656 105.023438 45.570312 105.023438 45.671875 C 105.023438 45.769531 105.023438 45.867188 105.027344 45.964844 C 105.421875 52.34375 118.675781 57.472656 134.949219 57.472656 C 151.222656 57.472656 164.476562 52.34375 164.867188 45.964844 L 164.882812 45.964844 L 164.882812 45.75 C 164.882812 45.722656 164.882812 45.695312 164.882812 45.671875 C 164.882812 45.644531 164.882812 45.621094 164.882812 45.59375 Z M 164.882812 27.46875 " fill-opacity="1" fill-rule="nonzero"/></g><g clip-path="url(#id11)"><path fill="rgb(100%, 100%, 100%)" d="M 164.894531 27.539062 C 164.894531 34.054688 151.492188 39.335938 134.960938 39.335938 C 118.433594 39.335938 105.03125 34.054688 105.03125 27.539062 C 105.03125 21.023438 118.433594 15.742188 134.960938 15.742188 C 151.492188 15.742188 164.894531 21.023438 164.894531 27.539062 Z M 164.894531 27.539062 " fill-opacity="1" fill-rule="nonzero"/></g><g clip-path="url(#id12)"><path fill="rgb(100%, 100%, 100%)" d="M 164.507812 26.722656 C 164.507812 33.121094 151.347656 38.308594 135.117188 38.308594 C 118.882812 38.308594 105.726562 33.121094 105.726562 26.722656 C 105.726562 20.328125 118.886719 15.140625 135.117188 15.140625 C 151.347656 15.140625 164.507812 20.328125 164.507812 26.722656 Z M 164.507812 26.722656 " fill-opacity="1" fill-rule="nonzero"/></g></svg>