<svg xmlns="http://www.w3.org/2000/svg" xmlns:xlink="http://www.w3.org/1999/xlink" width="360" zoomAndPan="magnify" viewBox="0 0 270 119.999999" height="160" preserveAspectRatio="xMidYMid meet" version="1.0"><defs><clipPath id="id1"><path d="M 95 12 L 166 12 L 166 108 L 95 108 Z M 95 12 " clip-rule="nonzero"/></clipPath><clipPath id="id2"><path d="M 82.375 101 L 86 101 L 86 105 L 82.375 105 Z M 82.375 101 " clip-rule="nonzero"/></clipPath><clipPath id="id3"><path d="M 176 15 L 179.875 15 L 179.875 19 L 176 19 Z M 176 15 " clip-rule="nonzero"/></clipPath></defs><g clip-path="url(#id1)"><path fill="rgb(100%, 100%, 100%)" d="M 160.664062 50.398438 C 158.585938 50.398438 156.828125 51.742188 156.167969 53.601562 L 146.292969 53.601562 L 146.292969 47.199219 L 152.679688 47.199219 C 153.5625 47.199219 154.277344 46.484375 154.277344 45.601562 L 154.277344 38.90625 C 156.132812 38.242188 157.472656 36.484375 157.472656 34.398438 C 157.472656 31.753906 155.320312 29.601562 152.679688 29.601562 C 150.039062 29.601562 147.890625 31.753906 147.890625 34.398438 C 147.890625 36.484375 149.230469 38.242188 151.085938 38.90625 L 151.085938 44 L 146.292969 44 L 146.292969 40.800781 C 146.292969 39.914062 145.578125 39.199219 144.699219 39.199219 L 141.503906 39.199219 L 141.503906 30.90625 C 143.359375 30.242188 144.699219 28.484375 144.699219 26.398438 C 144.699219 23.753906 142.546875 21.601562 139.90625 21.601562 C 137.265625 21.601562 135.117188 23.753906 135.117188 26.398438 C 135.117188 28.484375 136.457031 30.242188 138.308594 30.90625 L 138.308594 39.199219 L 131.921875 39.199219 L 131.921875 13.65625 C 131.921875 12.769531 131.207031 12.054688 130.328125 12.054688 C 110.628906 12.054688 95.199219 26.347656 95.199219 44.589844 C 95.199219 53.253906 98.632812 64.726562 104.15625 74.53125 C 105.152344 76.289062 106.445312 78.140625 107.816406 80.097656 C 110.714844 84.238281 113.9375 88.894531 114.289062 92.945312 C 113.117188 93.773438 112.371094 95.117188 112.371094 96.742188 C 112.371094 97.871094 112.777344 98.894531 113.429688 99.714844 C 112.53125 100.601562 111.964844 101.847656 111.964844 103.257812 C 111.964844 105.902344 114.113281 108.058594 116.753906 108.058594 L 143.898438 108.058594 C 146.539062 108.058594 148.6875 105.902344 148.6875 103.144531 C 148.6875 101.792969 148.121094 100.574219 147.21875 99.699219 C 147.875 98.863281 148.28125 97.808594 148.28125 96.632812 C 148.28125 94.027344 146.21875 92.058594 143.488281 92.058594 L 131.921875 92.058594 L 131.921875 61.601562 L 135.117188 61.601562 L 135.117188 66.398438 C 135.117188 67.285156 135.832031 68 136.714844 68 L 141.503906 68 L 141.503906 69.894531 C 139.648438 70.558594 138.308594 72.316406 138.308594 74.398438 C 138.308594 77.046875 140.460938 79.199219 143.101562 79.199219 C 145.742188 79.199219 147.890625 77.046875 147.890625 74.398438 C 147.890625 72.316406 146.550781 70.558594 144.699219 69.894531 L 144.699219 66.398438 C 144.699219 65.515625 143.980469 64.800781 143.101562 64.800781 L 138.308594 64.800781 L 138.308594 61.601562 L 144.699219 61.601562 C 145.578125 61.601562 146.292969 60.886719 146.292969 60 L 146.292969 56.800781 L 156.167969 56.800781 C 156.828125 58.65625 158.585938 60 160.664062 60 C 163.304688 60 165.453125 57.847656 165.453125 55.199219 C 165.453125 52.554688 163.304688 50.398438 160.664062 50.398438 Z M 152.679688 32.800781 C 153.5625 32.800781 154.277344 33.515625 154.277344 34.398438 C 154.277344 35.28125 153.5625 36 152.679688 36 C 151.800781 36 151.085938 35.28125 151.085938 34.398438 C 151.085938 33.515625 151.800781 32.800781 152.679688 32.800781 Z M 110.429688 78.261719 C 109.105469 76.367188 107.855469 74.578125 106.9375 72.957031 C 101.746094 63.746094 98.390625 52.613281 98.390625 44.589844 C 98.390625 28.632812 111.59375 16.027344 128.730469 15.289062 L 128.730469 26.46875 C 128.308594 26.5 127.875 26.539062 127.410156 26.59375 C 126.734375 26.675781 126.179688 27.183594 126.042969 27.851562 L 125.554688 30.167969 C 125.15625 30.265625 124.753906 30.371094 124.355469 30.492188 L 122.765625 28.714844 C 122.308594 28.203125 121.578125 28.042969 120.949219 28.308594 C 119.222656 29.046875 117.53125 30.035156 115.925781 31.25 C 115.378906 31.664062 115.15625 32.375 115.371094 33.027344 L 116.101562 35.261719 C 115.800781 35.546875 115.507812 35.839844 115.222656 36.144531 L 112.992188 35.410156 C 112.347656 35.199219 111.632812 35.421875 111.21875 35.964844 C 110.007812 37.574219 109.019531 39.269531 108.285156 41 C 108.015625 41.632812 108.179688 42.363281 108.6875 42.820312 L 110.464844 44.414062 C 110.34375 44.808594 110.238281 45.207031 110.144531 45.601562 L 107.660156 46.101562 C 106.914062 46.25 106.375 46.910156 106.375 47.671875 L 106.375 53.128906 C 106.375 53.890625 106.914062 54.546875 107.660156 54.695312 L 110.140625 55.195312 C 110.238281 55.589844 110.34375 55.988281 110.464844 56.382812 L 108.6875 57.976562 C 108.179688 58.433594 108.015625 59.164062 108.285156 59.796875 C 109.019531 61.527344 110.007812 63.222656 111.21875 64.832031 C 111.628906 65.378906 112.347656 65.597656 112.992188 65.386719 L 115.222656 64.652344 C 115.507812 64.953125 115.800781 65.25 116.101562 65.535156 L 115.367188 67.769531 C 115.15625 68.417969 115.378906 69.132812 115.925781 69.542969 C 117.527344 70.757812 119.21875 71.746094 120.949219 72.488281 C 121.578125 72.753906 122.308594 72.59375 122.765625 72.082031 L 124.355469 70.304688 C 124.753906 70.425781 125.15625 70.53125 125.554688 70.628906 L 126.042969 72.945312 C 126.179688 73.613281 126.734375 74.121094 127.410156 74.203125 C 127.871094 74.261719 128.304688 74.300781 128.730469 74.328125 L 128.730469 92.054688 L 117.414062 92.054688 C 116.761719 87.339844 113.429688 82.542969 110.429688 78.261719 Z M 115.957031 50.398438 C 115.957031 57.800781 121.554688 63.90625 128.730469 64.707031 L 128.730469 70.207031 L 128.464844 68.949219 C 128.332031 68.3125 127.828125 67.816406 127.1875 67.703125 C 126.257812 67.535156 125.324219 67.28125 124.40625 66.949219 C 124.230469 66.886719 124.046875 66.855469 123.863281 66.855469 C 123.417969 66.855469 122.984375 67.042969 122.675781 67.390625 L 121.175781 69.066406 C 120.359375 68.660156 119.554688 68.1875 118.769531 67.652344 L 119.464844 65.539062 C 119.667969 64.917969 119.476562 64.238281 118.980469 63.816406 C 118.246094 63.195312 117.558594 62.507812 116.933594 61.769531 C 116.515625 61.273438 115.835938 61.085938 115.21875 61.285156 L 113.109375 61.980469 C 112.574219 61.195312 112.101562 60.390625 111.699219 59.574219 L 113.375 58.070312 C 113.859375 57.632812 114.03125 56.949219 113.8125 56.335938 C 113.480469 55.410156 113.226562 54.472656 113.0625 53.546875 C 112.945312 52.902344 112.445312 52.390625 111.800781 52.265625 L 109.570312 51.816406 L 109.570312 48.984375 L 111.800781 48.539062 C 112.445312 48.410156 112.941406 47.902344 113.0625 47.253906 C 113.226562 46.328125 113.480469 45.390625 113.8125 44.464844 C 114.03125 43.847656 113.859375 43.164062 113.375 42.730469 L 111.699219 41.230469 C 112.105469 40.414062 112.578125 39.609375 113.109375 38.820312 L 115.21875 39.515625 C 115.835938 39.714844 116.515625 39.527344 116.9375 39.03125 C 117.558594 38.292969 118.246094 37.605469 118.980469 36.980469 C 119.476562 36.558594 119.667969 35.878906 119.464844 35.261719 L 118.773438 33.148438 C 119.558594 32.613281 120.363281 32.140625 121.175781 31.734375 L 122.675781 33.414062 C 123.109375 33.898438 123.796875 34.070312 124.40625 33.851562 C 125.324219 33.519531 126.261719 33.265625 127.1875 33.097656 C 127.828125 32.984375 128.335938 32.492188 128.464844 31.855469 L 128.730469 30.59375 L 128.730469 36.09375 C 121.554688 36.894531 115.957031 43 115.957031 50.398438 Z M 128.730469 39.328125 L 128.730469 61.472656 C 123.320312 60.691406 119.148438 56.03125 119.148438 50.398438 C 119.148438 44.769531 123.320312 40.109375 128.730469 39.328125 Z M 143.898438 104.855469 L 116.753906 104.855469 C 115.875 104.855469 115.15625 104.140625 115.15625 103.144531 C 115.15625 102.261719 115.875 101.542969 116.753906 101.542969 L 143.898438 101.542969 C 144.777344 101.542969 145.496094 102.261719 145.496094 103.257812 C 145.496094 104.140625 144.777344 104.855469 143.898438 104.855469 Z M 143.488281 95.257812 C 144.257812 95.257812 145.085938 95.6875 145.085938 96.742188 C 145.085938 97.628906 144.371094 98.34375 143.488281 98.34375 L 117.164062 98.34375 C 116.285156 98.34375 115.566406 97.628906 115.566406 96.632812 C 115.566406 95.6875 116.394531 95.257812 117.164062 95.257812 Z M 143.101562 72.800781 C 143.980469 72.800781 144.699219 73.515625 144.699219 74.398438 C 144.699219 75.28125 143.980469 76 143.101562 76 C 142.222656 76 141.503906 75.28125 141.503906 74.398438 C 141.503906 73.515625 142.222656 72.800781 143.101562 72.800781 Z M 139.90625 24.800781 C 140.785156 24.800781 141.503906 25.515625 141.503906 26.398438 C 141.503906 27.28125 140.785156 28 139.90625 28 C 139.027344 28 138.308594 27.28125 138.308594 26.398438 C 138.308594 25.515625 139.027344 24.800781 139.90625 24.800781 Z M 143.101562 58.398438 L 131.921875 58.398438 L 131.921875 42.398438 L 143.101562 42.398438 Z M 160.664062 56.800781 C 159.785156 56.800781 159.066406 56.082031 159.066406 55.199219 C 159.066406 54.316406 159.785156 53.601562 160.664062 53.601562 C 161.542969 53.601562 162.261719 54.316406 162.261719 55.199219 C 162.261719 56.082031 161.542969 56.800781 160.664062 56.800781 Z M 160.664062 56.800781 " fill-opacity="1" fill-rule="nonzero"/></g><path fill="rgb(100%, 100%, 100%)" d="M 144.234375 88.320312 L 147.203125 89.496094 C 147.542969 88.628906 147.976562 87.730469 148.523438 86.738281 L 145.726562 85.191406 C 145.113281 86.300781 144.628906 87.328125 144.234375 88.320312 Z M 144.234375 88.320312 " fill-opacity="1" fill-rule="nonzero"/><path fill="rgb(100%, 100%, 100%)" d="M 151.9375 81.386719 L 149.316406 79.558594 C 148.6875 80.460938 148.0625 81.378906 147.464844 82.308594 L 150.144531 84.042969 C 150.726562 83.148438 151.332031 82.261719 151.9375 81.386719 Z M 151.9375 81.386719 " fill-opacity="1" fill-rule="nonzero"/><path fill="rgb(100%, 100%, 100%)" d="M 155.652344 75.9375 L 152.949219 74.234375 C 152.414062 75.089844 151.8125 75.976562 151.183594 76.886719 L 153.808594 78.710938 C 154.464844 77.761719 155.089844 76.832031 155.652344 75.9375 Z M 155.652344 75.9375 " fill-opacity="1" fill-rule="nonzero"/><path fill="rgb(100%, 100%, 100%)" d="M 158.828125 70.035156 L 155.945312 68.65625 C 155.488281 69.617188 155.011719 70.566406 154.511719 71.503906 L 157.328125 73.011719 C 157.851562 72.035156 158.347656 71.039062 158.828125 70.035156 Z M 158.828125 70.035156 " fill-opacity="1" fill-rule="nonzero"/><path fill="rgb(100%, 100%, 100%)" d="M 161.429688 63.910156 L 158.441406 62.785156 C 158.070312 63.773438 157.675781 64.765625 157.253906 65.75 L 160.195312 67 C 160.632812 65.972656 161.042969 64.945312 161.429688 63.910156 Z M 161.429688 63.910156 " fill-opacity="1" fill-rule="nonzero"/><path fill="rgb(100%, 100%, 100%)" d="M 165.320312 47.671875 C 165.410156 46.609375 165.453125 45.570312 165.453125 44.589844 L 165.453125 44.269531 L 162.261719 44.296875 L 162.261719 44.589844 C 162.261719 45.480469 162.21875 46.429688 162.136719 47.40625 Z M 165.320312 47.671875 " fill-opacity="1" fill-rule="nonzero"/><path fill="rgb(100%, 100%, 100%)" d="M 161.53125 38.1875 C 161.761719 39.179688 161.941406 40.203125 162.0625 41.222656 L 165.234375 40.84375 C 165.097656 39.707031 164.898438 38.570312 164.640625 37.460938 Z M 161.53125 38.1875 " fill-opacity="1" fill-rule="nonzero"/><path fill="rgb(100%, 100%, 100%)" d="M 159.472656 32.394531 C 159.921875 33.320312 160.324219 34.273438 160.664062 35.234375 L 163.671875 34.160156 C 163.292969 33.089844 162.84375 32.023438 162.34375 30.992188 Z M 159.472656 32.394531 " fill-opacity="1" fill-rule="nonzero"/><path fill="rgb(100%, 100%, 100%)" d="M 156.191406 27.191406 C 156.832031 28 157.429688 28.84375 157.976562 29.707031 L 160.675781 27.996094 C 160.070312 27.035156 159.402344 26.097656 158.691406 25.199219 Z M 156.191406 27.191406 " fill-opacity="1" fill-rule="nonzero"/><path fill="rgb(100%, 100%, 100%)" d="M 151.871094 22.78125 C 152.660156 23.4375 153.429688 24.140625 154.148438 24.875 L 156.421875 22.632812 C 155.628906 21.820312 154.78125 21.042969 153.90625 20.320312 Z M 151.871094 22.78125 " fill-opacity="1" fill-rule="nonzero"/><path fill="rgb(100%, 100%, 100%)" d="M 151.171875 18.269531 C 150.242188 17.640625 149.257812 17.046875 148.257812 16.503906 L 146.738281 19.320312 C 147.648438 19.8125 148.542969 20.351562 149.390625 20.925781 Z M 151.171875 18.269531 " fill-opacity="1" fill-rule="nonzero"/><path fill="rgb(100%, 100%, 100%)" d="M 145.191406 15.03125 C 144.164062 14.59375 143.085938 14.195312 142 13.847656 L 141.03125 16.898438 C 142.027344 17.214844 143.007812 17.578125 143.941406 17.976562 Z M 145.191406 15.03125 " fill-opacity="1" fill-rule="nonzero"/><path fill="rgb(100%, 100%, 100%)" d="M 138.71875 12.964844 C 137.625 12.726562 136.5 12.527344 135.375 12.378906 L 134.964844 15.554688 C 135.996094 15.6875 137.027344 15.867188 138.027344 16.089844 Z M 138.71875 12.964844 " fill-opacity="1" fill-rule="nonzero"/><path fill="rgb(100%, 100%, 100%)" d="M 85.617188 98.398438 L 88.8125 98.398438 L 88.8125 101.601562 L 85.617188 101.601562 Z M 85.617188 98.398438 " fill-opacity="1" fill-rule="nonzero"/><path fill="rgb(100%, 100%, 100%)" d="M 85.617188 104.800781 L 88.8125 104.800781 L 88.8125 108 L 85.617188 108 Z M 85.617188 104.800781 " fill-opacity="1" fill-rule="nonzero"/><path fill="rgb(100%, 100%, 100%)" d="M 88.8125 101.601562 L 92.003906 101.601562 L 92.003906 104.800781 L 88.8125 104.800781 Z M 88.8125 101.601562 " fill-opacity="1" fill-rule="nonzero"/><g clip-path="url(#id2)"><path fill="rgb(100%, 100%, 100%)" d="M 82.425781 101.601562 L 85.617188 101.601562 L 85.617188 104.800781 L 82.425781 104.800781 Z M 82.425781 101.601562 " fill-opacity="1" fill-rule="nonzero"/></g><path fill="rgb(100%, 100%, 100%)" d="M 173.4375 12 L 176.632812 12 L 176.632812 15.199219 L 173.4375 15.199219 Z M 173.4375 12 " fill-opacity="1" fill-rule="nonzero"/><path fill="rgb(100%, 100%, 100%)" d="M 173.4375 18.398438 L 176.632812 18.398438 L 176.632812 21.601562 L 173.4375 21.601562 Z M 173.4375 18.398438 " fill-opacity="1" fill-rule="nonzero"/><g clip-path="url(#id3)"><path fill="rgb(100%, 100%, 100%)" d="M 176.632812 15.199219 L 179.824219 15.199219 L 179.824219 18.398438 L 176.632812 18.398438 Z M 176.632812 15.199219 " fill-opacity="1" fill-rule="nonzero"/></g><path fill="rgb(100%, 100%, 100%)" d="M 170.246094 15.199219 L 173.4375 15.199219 L 173.4375 18.398438 L 170.246094 18.398438 Z M 170.246094 15.199219 " fill-opacity="1" fill-rule="nonzero"/></svg>