<svg xmlns="http://www.w3.org/2000/svg" xmlns:xlink="http://www.w3.org/1999/xlink" width="360" zoomAndPan="magnify" viewBox="0 0 270 119.999999" height="160" preserveAspectRatio="xMidYMid meet" version="1.0"><defs><clipPath id="id1"><path d="M 88.765625 12 L 178 12 L 178 76 L 88.765625 76 Z M 88.765625 12 " clip-rule="nonzero"/></clipPath><clipPath id="id2"><path d="M 88.765625 61 L 132 61 L 132 104.25 L 88.765625 104.25 Z M 88.765625 61 " clip-rule="nonzero"/></clipPath><clipPath id="id3"><path d="M 141 45 L 181.015625 45 L 181.015625 104.25 L 141 104.25 Z M 141 45 " clip-rule="nonzero"/></clipPath></defs><path fill="rgb(100%, 100%, 100%)" d="M 101.0625 18.148438 L 97.988281 18.148438 L 97.988281 21.226562 L 101.0625 21.226562 L 101.0625 18.148438 " fill-opacity="1" fill-rule="nonzero"/><path fill="rgb(100%, 100%, 100%)" d="M 107.214844 18.148438 L 104.140625 18.148438 L 104.140625 21.226562 L 107.214844 21.226562 L 107.214844 18.148438 " fill-opacity="1" fill-rule="nonzero"/><path fill="rgb(100%, 100%, 100%)" d="M 113.363281 18.148438 L 110.289062 18.148438 L 110.289062 21.226562 L 113.363281 21.226562 L 113.363281 18.148438 " fill-opacity="1" fill-rule="nonzero"/><g clip-path="url(#id1)"><path fill="rgb(100%, 100%, 100%)" d="M 93.375 15.074219 L 173.328125 15.074219 C 174.171875 15.074219 174.863281 15.765625 174.863281 16.613281 L 174.863281 24.300781 L 91.839844 24.300781 L 91.839844 16.613281 C 91.839844 15.765625 92.53125 15.074219 93.375 15.074219 Z M 91.839844 27.375 L 174.863281 27.375 L 174.863281 55.050781 L 177.9375 55.050781 L 177.9375 16.613281 C 177.9375 14.066406 175.871094 12 173.328125 12 L 93.375 12 C 90.828125 12 88.765625 14.066406 88.765625 16.613281 L 88.765625 75.039062 L 91.839844 75.039062 L 91.839844 27.375 " fill-opacity="1" fill-rule="nonzero"/></g><path fill="rgb(100%, 100%, 100%)" d="M 130.277344 95.023438 L 139.5 95.023438 L 139.5 91.949219 L 130.277344 91.949219 L 130.277344 95.023438 " fill-opacity="1" fill-rule="nonzero"/><path fill="rgb(100%, 100%, 100%)" d="M 162.5625 18.148438 L 122.589844 18.148438 L 122.589844 21.226562 L 162.5625 21.226562 L 162.5625 18.148438 " fill-opacity="1" fill-rule="nonzero"/><path fill="rgb(100%, 100%, 100%)" d="M 113.8125 33.976562 L 109.203125 38.589844 C 108.601562 39.1875 108.601562 40.160156 109.203125 40.761719 L 113.8125 45.375 L 115.988281 43.199219 L 112.464844 39.675781 L 115.988281 36.148438 L 113.8125 33.976562 " fill-opacity="1" fill-rule="nonzero"/><path fill="rgb(100%, 100%, 100%)" d="M 122.683594 32.984375 L 118.074219 45.285156 L 120.957031 46.367188 L 125.566406 34.066406 L 122.683594 32.984375 " fill-opacity="1" fill-rule="nonzero"/><path fill="rgb(100%, 100%, 100%)" d="M 129.824219 45.375 L 134.4375 40.761719 C 135.039062 40.160156 135.039062 39.1875 134.4375 38.589844 L 129.824219 33.976562 L 127.652344 36.148438 L 131.175781 39.675781 L 127.652344 43.199219 L 129.824219 45.375 " fill-opacity="1" fill-rule="nonzero"/><path fill="rgb(100%, 100%, 100%)" d="M 119.515625 48.898438 L 113.363281 48.898438 L 113.363281 51.976562 L 119.515625 51.976562 L 119.515625 48.898438 " fill-opacity="1" fill-rule="nonzero"/><path fill="rgb(100%, 100%, 100%)" d="M 134.890625 48.898438 L 122.589844 48.898438 L 122.589844 51.976562 L 134.890625 51.976562 L 134.890625 48.898438 " fill-opacity="1" fill-rule="nonzero"/><path fill="rgb(100%, 100%, 100%)" d="M 122.589844 55.050781 L 116.4375 55.050781 L 116.4375 58.125 L 122.589844 58.125 L 122.589844 55.050781 " fill-opacity="1" fill-rule="nonzero"/><path fill="rgb(100%, 100%, 100%)" d="M 137.964844 55.050781 L 125.664062 55.050781 L 125.664062 58.125 L 137.964844 58.125 L 137.964844 55.050781 " fill-opacity="1" fill-rule="nonzero"/><g clip-path="url(#id2)"><path fill="rgb(100%, 100%, 100%)" d="M 122.269531 91.480469 L 124.566406 94.539062 L 122.101562 97 L 119.046875 94.707031 C 118.546875 94.335938 117.867188 94.296875 117.339844 94.617188 C 116.210938 95.285156 114.992188 95.792969 113.710938 96.117188 C 113.113281 96.269531 112.660156 96.773438 112.570312 97.390625 L 112.03125 101.175781 L 108.546875 101.175781 L 108.007812 97.390625 C 107.917969 96.773438 107.464844 96.269531 106.867188 96.117188 C 105.585938 95.792969 104.367188 95.285156 103.238281 94.617188 C 102.703125 94.296875 102.03125 94.335938 101.53125 94.707031 L 98.476562 97 L 96.011719 94.539062 L 98.308594 91.480469 C 98.679688 90.984375 98.714844 90.308594 98.398438 89.777344 C 97.730469 88.648438 97.21875 87.425781 96.894531 86.148438 C 96.746094 85.546875 96.242188 85.097656 95.621094 85.007812 L 91.839844 84.464844 L 91.839844 80.984375 L 95.621094 80.441406 C 96.242188 80.351562 96.746094 79.902344 96.894531 79.300781 C 97.21875 78.023438 97.730469 76.804688 98.398438 75.675781 C 98.714844 75.140625 98.679688 74.46875 98.308594 73.96875 L 96.011719 70.910156 L 98.476562 68.449219 L 101.53125 70.742188 C 102.03125 71.117188 102.703125 71.152344 103.238281 70.832031 C 104.367188 70.167969 105.585938 69.65625 106.867188 69.332031 C 107.464844 69.183594 107.917969 68.675781 108.007812 68.066406 L 108.546875 64.273438 L 112.03125 64.273438 L 112.570312 68.066406 C 112.660156 68.675781 113.113281 69.183594 113.710938 69.332031 C 114.992188 69.65625 116.210938 70.167969 117.339844 70.832031 C 117.875 71.152344 118.546875 71.117188 119.046875 70.742188 L 122.101562 68.449219 L 124.566406 70.910156 L 122.269531 73.96875 C 121.898438 74.46875 121.863281 75.140625 122.179688 75.675781 C 122.847656 76.804688 123.351562 78.023438 123.683594 79.300781 C 123.832031 79.902344 124.335938 80.351562 124.949219 80.441406 L 128.738281 80.984375 L 128.738281 84.464844 L 124.949219 85.007812 C 124.335938 85.097656 123.832031 85.546875 123.683594 86.148438 C 123.351562 87.425781 122.847656 88.648438 122.179688 89.777344 C 121.863281 90.308594 121.898438 90.984375 122.269531 91.480469 Z M 125.328125 90.429688 C 125.742188 89.621094 126.089844 88.777344 126.371094 87.90625 L 130.492188 87.320312 C 131.25 87.210938 131.8125 86.5625 131.8125 85.800781 L 131.8125 79.648438 C 131.8125 78.886719 131.25 78.238281 130.492188 78.128906 L 126.371094 77.542969 C 126.089844 76.671875 125.742188 75.832031 125.328125 75.019531 L 127.824219 71.6875 C 128.289062 71.074219 128.222656 70.222656 127.683594 69.679688 L 123.332031 65.332031 C 122.792969 64.792969 121.933594 64.730469 121.328125 65.1875 L 117.996094 67.6875 C 117.183594 67.273438 116.34375 66.921875 115.472656 66.640625 L 114.882812 62.519531 C 114.773438 61.765625 114.125 61.199219 113.363281 61.199219 L 107.214844 61.199219 C 106.453125 61.199219 105.800781 61.765625 105.695312 62.519531 L 105.105469 66.640625 C 104.234375 66.921875 103.394531 67.273438 102.582031 67.6875 L 99.25 65.1875 C 98.644531 64.726562 97.777344 64.792969 97.246094 65.332031 L 92.894531 69.679688 C 92.355469 70.222656 92.289062 71.074219 92.75 71.6875 L 95.25 75.019531 C 94.835938 75.832031 94.488281 76.671875 94.207031 77.542969 L 90.085938 78.128906 C 89.328125 78.238281 88.765625 78.886719 88.765625 79.648438 L 88.765625 85.800781 C 88.765625 86.5625 89.328125 87.210938 90.085938 87.320312 L 94.207031 87.90625 C 94.488281 88.777344 94.835938 89.621094 95.25 90.429688 L 92.75 93.765625 C 92.289062 94.375 92.355469 95.230469 92.894531 95.769531 L 97.246094 100.117188 C 97.785156 100.660156 98.644531 100.722656 99.25 100.261719 L 102.582031 97.761719 C 103.394531 98.179688 104.234375 98.527344 105.105469 98.808594 L 105.695312 102.929688 C 105.800781 103.683594 106.453125 104.25 107.214844 104.25 L 113.363281 104.25 C 114.125 104.25 114.773438 103.683594 114.882812 102.929688 L 115.472656 98.808594 C 116.34375 98.527344 117.183594 98.179688 117.996094 97.761719 L 121.328125 100.261719 C 121.933594 100.71875 122.792969 100.660156 123.332031 100.117188 L 127.683594 95.769531 C 128.222656 95.230469 128.289062 94.375 127.824219 93.765625 L 125.328125 90.429688 " fill-opacity="1" fill-rule="nonzero"/></g><path fill="rgb(100%, 100%, 100%)" d="M 110.289062 88.875 C 106.894531 88.875 104.140625 86.117188 104.140625 82.726562 C 104.140625 79.332031 106.894531 76.574219 110.289062 76.574219 C 113.683594 76.574219 116.4375 79.332031 116.4375 82.726562 C 116.4375 86.117188 113.683594 88.875 110.289062 88.875 Z M 110.289062 73.5 C 105.203125 73.5 101.0625 77.636719 101.0625 82.726562 C 101.0625 87.8125 105.203125 91.949219 110.289062 91.949219 C 115.375 91.949219 119.515625 87.8125 119.515625 82.726562 C 119.515625 77.636719 115.375 73.5 110.289062 73.5 " fill-opacity="1" fill-rule="nonzero"/><path fill="rgb(100%, 100%, 100%)" d="M 154.875 73.5 L 157.953125 73.5 L 157.953125 70.425781 L 154.875 70.425781 L 154.875 73.5 " fill-opacity="1" fill-rule="nonzero"/><path fill="rgb(100%, 100%, 100%)" d="M 167.175781 70.425781 L 164.101562 70.425781 L 164.101562 73.5 L 167.175781 73.5 L 167.175781 70.425781 " fill-opacity="1" fill-rule="nonzero"/><g clip-path="url(#id3)"><path fill="rgb(100%, 100%, 100%)" d="M 177.9375 101.175781 L 166.792969 101.175781 L 164.59375 93.734375 L 168.222656 94.945312 C 168.390625 94.996094 168.546875 95.023438 168.714844 95.023438 C 168.972656 95.023438 169.222656 94.964844 169.453125 94.839844 C 169.835938 94.621094 170.101562 94.273438 170.203125 93.855469 L 170.835938 91.335938 L 173.375 92.460938 C 176.15625 93.6875 177.9375 96.453125 177.9375 99.480469 Z M 164.101562 86.382812 L 162.199219 87.335938 L 159.855469 87.335938 L 157.953125 86.382812 L 157.953125 85.398438 C 158.9375 85.644531 159.964844 85.800781 161.027344 85.800781 C 162.089844 85.800781 163.117188 85.644531 164.101562 85.398438 Z M 159.824219 91.644531 L 160.445312 90.414062 L 161.609375 90.414062 L 162.226562 91.644531 L 161.027344 92.855469 Z M 158.472656 101.175781 L 159.953125 96.117188 C 160.257812 96.40625 160.640625 96.5625 161.027344 96.5625 C 161.410156 96.5625 161.796875 96.40625 162.101562 96.117188 L 163.578125 101.175781 Z M 155.261719 101.175781 L 144.113281 101.175781 L 144.113281 99.480469 C 144.113281 96.453125 145.898438 93.6875 148.679688 92.460938 L 151.21875 91.335938 L 151.847656 93.855469 C 151.953125 94.273438 152.214844 94.621094 152.601562 94.839844 C 152.828125 94.964844 153.082031 95.023438 153.339844 95.023438 C 153.507812 95.023438 153.664062 94.996094 153.832031 94.945312 L 157.457031 93.734375 Z M 156.367188 89.042969 L 157.429688 89.566406 L 156.859375 90.6875 L 154.433594 91.503906 L 154.058594 90.058594 Z M 151.800781 73.5 L 151.800781 67.351562 L 170.25 67.351562 L 170.25 73.5 C 170.25 78.585938 166.113281 82.726562 161.027344 82.726562 C 155.941406 82.726562 151.800781 78.585938 151.800781 73.5 Z M 148.726562 62.738281 C 148.726562 61.890625 149.417969 61.199219 150.265625 61.199219 L 171.789062 61.199219 C 172.636719 61.199219 173.328125 61.890625 173.328125 62.738281 C 173.328125 63.585938 172.636719 64.273438 171.789062 64.273438 L 150.265625 64.273438 C 149.417969 64.273438 148.726562 63.585938 148.726562 62.738281 Z M 156.414062 52.636719 L 156.414062 58.125 L 151.953125 58.125 C 152.445312 55.664062 154.125 53.636719 156.414062 52.636719 Z M 159.488281 48.898438 L 162.5625 48.898438 L 162.5625 58.125 L 159.488281 58.125 Z M 165.640625 52.636719 C 166.496094 53.019531 167.316406 53.542969 168.003906 54.234375 C 169.082031 55.308594 169.808594 56.648438 170.101562 58.125 L 165.640625 58.125 Z M 174.863281 71.960938 C 174.863281 72.808594 174.171875 73.5 173.328125 73.5 L 173.328125 70.425781 C 174.171875 70.425781 174.863281 71.117188 174.863281 71.960938 Z M 167.992188 90.058594 L 167.621094 91.503906 L 165.195312 90.6875 L 164.625 89.566406 L 165.6875 89.042969 Z M 148.726562 73.5 C 147.878906 73.5 147.1875 72.808594 147.1875 71.960938 C 147.1875 71.117188 147.878906 70.425781 148.726562 70.425781 Z M 174.628906 89.660156 L 167.175781 86.339844 L 167.175781 84.136719 C 169.992188 82.507812 172.082031 79.789062 172.925781 76.574219 L 173.328125 76.574219 C 175.867188 76.574219 177.9375 74.496094 177.9375 71.960938 C 177.9375 69.429688 175.867188 67.351562 173.328125 67.351562 L 173.328125 67.074219 C 175.109375 66.425781 176.402344 64.738281 176.402344 62.738281 C 176.402344 60.707031 175.082031 59 173.25 58.382812 C 172.960938 55.988281 171.898438 53.769531 170.171875 52.066406 C 168.898438 50.773438 167.34375 49.867188 165.640625 49.375 L 165.640625 48.898438 C 165.640625 47.207031 164.25 45.824219 162.5625 45.824219 L 159.488281 45.824219 C 157.800781 45.824219 156.414062 47.207031 156.414062 48.898438 L 156.414062 49.363281 C 152.292969 50.574219 149.308594 54.113281 148.804688 58.382812 C 146.992188 59 145.652344 60.707031 145.652344 62.738281 C 145.652344 64.738281 146.941406 66.425781 148.726562 67.074219 L 148.726562 67.351562 C 146.1875 67.351562 144.113281 69.429688 144.113281 71.960938 C 144.113281 74.496094 146.1875 76.574219 148.726562 76.574219 L 149.128906 76.574219 C 149.96875 79.789062 152.058594 82.507812 154.875 84.136719 L 154.875 86.339844 L 147.421875 89.660156 C 143.542969 91.378906 141.039062 95.242188 141.039062 99.480469 L 141.039062 102.710938 C 141.039062 103.558594 141.730469 104.25 142.578125 104.25 L 179.476562 104.25 C 180.324219 104.25 181.015625 103.558594 181.015625 102.710938 L 181.015625 99.480469 C 181.015625 95.242188 178.507812 91.378906 174.628906 89.660156 " fill-opacity="1" fill-rule="nonzero"/></g></svg>