<svg xmlns="http://www.w3.org/2000/svg" xmlns:xlink="http://www.w3.org/1999/xlink" width="500" zoomAndPan="magnify" viewBox="0 0 375 374.999991" height="500" preserveAspectRatio="xMidYMid meet" version="1.0"><defs><g><g id="id1"/><g id="id2"/><g id="id3"/><g id="id4"/><g id="id5"/><g id="id6"/><g id="id7"/><g id="id8"/><g id="id9"/><g id="id10"/></g><clipPath id="id11"><path d="M 112.5 110.675781 L 262.5 110.675781 L 262.5 260.675781 L 112.5 260.675781 Z M 112.5 110.675781 " clip-rule="nonzero"/></clipPath></defs><rect x="-37.5" width="450" fill="rgb(100%, 100%, 100%)" y="-37.499999" height="449.999989" fill-opacity="1"/><rect x="-37.5" width="450" fill="rgb(0%, 0%, 0%)" y="-37.499999" height="449.999989" fill-opacity="1"/><rect x="-37.5" width="450" fill="rgb(100%, 100%, 100%)" y="-37.499999" height="449.999989" fill-opacity="1"/><rect x="-37.5" width="450" fill="rgb(0%, 0%, 0%)" y="-37.499999" height="449.999989" fill-opacity="1"/><path fill="rgb(100%, 100%, 100%)" d="M 187.417969 288.636719 C 159.90625 288.636719 134 277.929688 114.5625 258.449219 C 95.082031 239.011719 84.375 213.105469 84.375 185.59375 C 84.375 158.085938 95.082031 132.179688 114.5625 112.742188 C 134 93.261719 159.90625 82.550781 187.417969 82.550781 C 214.929688 82.550781 240.832031 93.261719 260.273438 112.742188 C 279.753906 132.21875 290.460938 158.085938 290.460938 185.59375 C 290.460938 213.105469 279.753906 239.011719 260.273438 258.449219 C 240.832031 277.929688 214.929688 288.636719 187.417969 288.636719 Z M 187.417969 88.730469 C 161.554688 88.730469 137.214844 98.820312 118.929688 117.105469 C 100.644531 135.390625 90.550781 159.730469 90.550781 185.59375 C 90.550781 211.457031 100.644531 235.796875 118.929688 254.085938 C 137.214844 272.371094 161.554688 282.460938 187.417969 282.460938 C 213.28125 282.460938 237.621094 272.371094 255.90625 254.085938 C 274.191406 235.796875 284.28125 211.457031 284.28125 185.59375 C 284.28125 159.730469 274.191406 135.390625 255.90625 117.105469 C 237.621094 98.820312 213.28125 88.730469 187.417969 88.730469 Z M 187.417969 88.730469 " fill-opacity="1" fill-rule="nonzero"/><path fill="rgb(100%, 100%, 100%)" d="M 115.875 285.597656 C 114.011719 285.597656 112.5 287.109375 112.5 288.972656 C 112.5 290.835938 114.011719 292.347656 115.875 292.347656 C 117.738281 292.347656 119.25 290.835938 119.25 288.972656 C 119.25 287.109375 117.738281 285.597656 115.875 285.597656 " fill-opacity="1" fill-rule="nonzero"/><path fill="rgb(100%, 100%, 100%)" d="M 287.589844 110.675781 C 285.726562 110.675781 284.214844 112.1875 284.214844 114.050781 C 284.214844 115.917969 285.726562 117.425781 287.589844 117.425781 C 289.453125 117.425781 290.964844 115.917969 290.964844 114.050781 C 290.964844 112.1875 289.453125 110.675781 287.589844 110.675781 " fill-opacity="1" fill-rule="nonzero"/><path fill="rgb(100%, 100%, 100%)" d="M 230.101562 153.277344 C 230.101562 153.753906 230.007812 154.214844 229.824219 154.65625 C 229.644531 155.097656 229.382812 155.484375 229.046875 155.824219 C 228.707031 156.160156 228.320312 156.421875 227.878906 156.605469 C 227.4375 156.785156 226.976562 156.878906 226.5 156.878906 C 226.023438 156.878906 225.5625 156.785156 225.121094 156.605469 C 224.679688 156.421875 224.292969 156.160156 223.953125 155.824219 C 223.617188 155.484375 223.355469 155.097656 223.175781 154.65625 C 222.992188 154.214844 222.898438 153.753906 222.898438 153.277344 C 222.898438 152.800781 222.992188 152.339844 223.175781 151.898438 C 223.355469 151.457031 223.617188 151.070312 223.953125 150.730469 C 224.292969 150.394531 224.679688 150.132812 225.121094 149.953125 C 225.5625 149.769531 226.023438 149.675781 226.5 149.675781 C 226.976562 149.675781 227.4375 149.769531 227.878906 149.953125 C 228.320312 150.132812 228.707031 150.394531 229.046875 150.730469 C 229.382812 151.070312 229.644531 151.457031 229.824219 151.898438 C 230.007812 152.339844 230.101562 152.800781 230.101562 153.277344 Z M 230.101562 153.277344 " fill-opacity="1" fill-rule="nonzero"/><path fill="rgb(100%, 100%, 100%)" d="M 151.5 220.175781 L 229.5 220.175781 L 229.5 160.175781 L 151.5 160.175781 Z M 198 193.902344 L 211.679688 188.535156 L 198 183.238281 L 198 177.773438 L 217.5 186.21875 L 217.5 190.890625 L 198 199.414062 Z M 185.820312 199.175781 L 191.25 176.742188 C 191.535156 175.546875 191.804688 174.730469 192.066406 174.289062 C 192.328125 173.847656 192.832031 173.628906 193.585938 173.628906 C 194.234375 173.628906 194.730469 173.785156 195.074219 174.097656 C 195.417969 174.40625 195.589844 174.835938 195.589844 175.378906 C 195.589844 175.78125 195.453125 176.515625 195.179688 177.578125 L 189.730469 200.015625 C 189.550781 200.753906 189.390625 201.339844 189.257812 201.769531 C 189.121094 202.195312 188.914062 202.53125 188.632812 202.769531 C 188.355469 203.011719 187.949219 203.128906 187.417969 203.128906 C 186.09375 203.128906 185.429688 202.554688 185.429688 201.417969 C 185.429688 201.117188 185.5625 200.371094 185.820312 199.175781 Z M 163.5 186.179688 L 183 177.695312 L 183 183.238281 L 169.359375 188.496094 L 183 193.867188 L 183 199.371094 L 163.5 190.890625 Z M 163.5 186.179688 " fill-opacity="1" fill-rule="nonzero"/><g clip-path="url(#id11)"><path fill="rgb(100%, 100%, 100%)" d="M 187.5 110.675781 C 146.078125 110.675781 112.5 144.257812 112.5 185.675781 C 112.5 227.097656 146.078125 260.675781 187.5 260.675781 C 228.921875 260.675781 262.5 227.097656 262.5 185.675781 C 262.5 144.257812 228.921875 110.675781 187.5 110.675781 Z M 235.5 220.777344 C 235.5 223.757812 233.082031 226.175781 230.101562 226.175781 L 150.898438 226.175781 C 147.917969 226.175781 145.5 223.757812 145.5 220.777344 L 145.5 152.078125 C 145.5 149.09375 147.917969 146.675781 150.898438 146.675781 L 230.101562 146.675781 C 233.082031 146.675781 235.5 149.09375 235.5 152.078125 Z M 235.5 220.777344 " fill-opacity="1" fill-rule="nonzero"/></g><path fill="rgb(100%, 100%, 100%)" d="M 210.300781 153.277344 C 210.300781 153.753906 210.207031 154.214844 210.027344 154.65625 C 209.84375 155.097656 209.582031 155.484375 209.246094 155.824219 C 208.90625 156.160156 208.519531 156.421875 208.078125 156.605469 C 207.636719 156.785156 207.175781 156.878906 206.699219 156.878906 C 206.222656 156.878906 205.761719 156.785156 205.324219 156.605469 C 204.882812 156.421875 204.492188 156.160156 204.15625 155.824219 C 203.816406 155.484375 203.558594 155.097656 203.375 154.65625 C 203.191406 154.214844 203.101562 153.753906 203.101562 153.277344 C 203.101562 152.800781 203.191406 152.339844 203.375 151.898438 C 203.558594 151.457031 203.816406 151.070312 204.15625 150.730469 C 204.492188 150.394531 204.882812 150.132812 205.324219 149.953125 C 205.761719 149.769531 206.222656 149.675781 206.699219 149.675781 C 207.175781 149.675781 207.636719 149.769531 208.078125 149.953125 C 208.519531 150.132812 208.90625 150.394531 209.246094 150.730469 C 209.582031 151.070312 209.84375 151.457031 210.027344 151.898438 C 210.207031 152.339844 210.300781 152.800781 210.300781 153.277344 Z M 210.300781 153.277344 " fill-opacity="1" fill-rule="nonzero"/><path fill="rgb(100%, 100%, 100%)" d="M 216.601562 156.878906 C 218.582031 156.878906 220.199219 155.265625 220.199219 153.277344 C 220.199219 151.292969 218.585938 149.675781 216.601562 149.675781 C 214.617188 149.675781 213 151.292969 213 153.277344 C 213 155.265625 214.617188 156.878906 216.601562 156.878906 Z M 216.601562 156.878906 " fill-opacity="1" fill-rule="nonzero"/><g fill="rgb(100%, 100%, 100%)" fill-opacity="0.502"><g transform="translate(168.889732, 313.029508)"><g><path d="M 13.359375 1.28125 L 10.859375 1.046875 L 11.546875 -6.203125 L 8.28125 -0.34375 L 6.4375 -0.515625 L 4.34375 -6.90625 L 3.640625 0.34375 L 1.125 0.109375 L 2.203125 -11.0625 L 5.296875 -10.765625 L 7.6875 -3.828125 L 11.34375 -10.1875 L 14.4375 -9.890625 Z M 13.359375 1.28125 "/></g></g></g><g fill="rgb(100%, 100%, 100%)" fill-opacity="0.502"><g transform="translate(195.714448, 314.210941)"><g><path d="M 6.9375 -6.65625 L 11.5625 -1.25 L 8.171875 -0.890625 L 5.390625 -4.171875 L 3.375 -0.359375 L 0.078125 -0.015625 L 3.421875 -6.140625 L -0.859375 -11.171875 L 2.421875 -11.53125 L 4.921875 -8.515625 L 6.71875 -12 L 10.046875 -12.359375 Z M 6.9375 -6.65625 "/></g></g></g><g fill="rgb(100%, 100%, 100%)" fill-opacity="0.302"><g transform="translate(169.596842, 313.736616)"><g><path d="M 13.359375 1.28125 L 10.859375 1.046875 L 11.546875 -6.203125 L 8.28125 -0.34375 L 6.4375 -0.515625 L 4.34375 -6.90625 L 3.640625 0.34375 L 1.125 0.109375 L 2.203125 -11.0625 L 5.296875 -10.765625 L 7.6875 -3.828125 L 11.34375 -10.1875 L 14.4375 -9.890625 Z M 13.359375 1.28125 "/></g></g></g><g fill="rgb(100%, 100%, 100%)" fill-opacity="0.302"><g transform="translate(196.421558, 314.918051)"><g><path d="M 6.9375 -6.65625 L 11.5625 -1.25 L 8.171875 -0.890625 L 5.390625 -4.171875 L 3.375 -0.359375 L 0.078125 -0.015625 L 3.421875 -6.140625 L -0.859375 -11.171875 L 2.421875 -11.53125 L 4.921875 -8.515625 L 6.71875 -12 L 10.046875 -12.359375 Z M 6.9375 -6.65625 "/></g></g></g><g fill="rgb(100%, 100%, 100%)" fill-opacity="1"><g transform="translate(168.182622, 312.322399)"><g><path d="M 13.359375 1.28125 L 10.859375 1.046875 L 11.546875 -6.203125 L 8.28125 -0.34375 L 6.4375 -0.515625 L 4.34375 -6.90625 L 3.640625 0.34375 L 1.125 0.109375 L 2.203125 -11.0625 L 5.296875 -10.765625 L 7.6875 -3.828125 L 11.34375 -10.1875 L 14.4375 -9.890625 Z M 13.359375 1.28125 "/></g></g></g><g fill="rgb(100%, 100%, 100%)" fill-opacity="1"><g transform="translate(195.007341, 313.503832)"><g><path d="M 6.9375 -6.65625 L 11.5625 -1.25 L 8.171875 -0.890625 L 5.390625 -4.171875 L 3.375 -0.359375 L 0.078125 -0.015625 L 3.421875 -6.140625 L -0.859375 -11.171875 L 2.421875 -11.53125 L 4.921875 -8.515625 L 6.71875 -12 L 10.046875 -12.359375 Z M 6.9375 -6.65625 "/></g></g></g><g fill="rgb(100%, 100%, 100%)" fill-opacity="0.502"><g transform="translate(110.759538, 105.216283)"><g><path d="M -6.359375 -9.28125 L -2.6875 -12.390625 C -1.332031 -13.523438 0.0976562 -14.050781 1.609375 -13.96875 C 3.117188 -13.894531 4.410156 -13.222656 5.484375 -11.953125 C 6.546875 -10.691406 6.984375 -9.300781 6.796875 -7.78125 C 6.609375 -6.257812 5.828125 -4.914062 4.453125 -3.75 L 0.859375 -0.71875 Z M -2.71875 -9.375 L 1.578125 -4.296875 L 3.140625 -5.609375 C 3.804688 -6.171875 4.148438 -6.863281 4.171875 -7.6875 C 4.203125 -8.519531 3.898438 -9.3125 3.265625 -10.0625 C 2.640625 -10.820312 1.898438 -11.242188 1.046875 -11.328125 C 0.203125 -11.421875 -0.566406 -11.175781 -1.265625 -10.59375 Z M -2.71875 -9.375 "/></g></g></g><g fill="rgb(100%, 100%, 100%)" fill-opacity="0.502"><g transform="translate(128.954757, 91.293918)"><g><path d="M 6.546875 -5.890625 L 2.234375 -3.546875 L 2.5 -1.359375 L -0.0625 0.03125 L -1.171875 -12.109375 L 1.421875 -13.5 L 10.90625 -5.90625 L 8.234375 -4.453125 Z M 4.78125 -7.390625 L 1.40625 -10.28125 L 1.9375 -5.84375 Z M 4.78125 -7.390625 "/></g></g></g><g fill="rgb(100%, 100%, 100%)" fill-opacity="0.502"><g transform="translate(149.628044, 81.320465)"><g><path d="M 10.96875 -3.28125 L 8.5625 -2.5625 L 1.65625 -7.6875 L 3.640625 -1.09375 L 1.078125 -0.328125 L -2.140625 -11.0625 L 0.25 -11.78125 L 7.1875 -6.625 L 5.203125 -13.265625 L 7.75 -14.015625 Z M 10.96875 -3.28125 "/></g></g></g><g fill="rgb(100%, 100%, 100%)" fill-opacity="0.502"><g transform="translate(172.19159, 75.760464)"><g><path d="M 6.53125 -4.21875 L 6.859375 -0.625 L 4.046875 -0.375 L 3.71875 -3.890625 L -1.109375 -11.15625 L 1.71875 -11.40625 L 4.875 -6.78125 L 7.046875 -11.90625 L 9.875 -12.15625 Z M 6.53125 -4.21875 "/></g></g></g><g fill="rgb(100%, 100%, 100%)" fill-opacity="0.502"><g transform="translate(193.75714, 74.80579)"><g><path d="M 7.484375 -10.59375 C 8.304688 -10.507812 9.097656 -10.253906 9.859375 -9.828125 C 10.628906 -9.410156 11.265625 -8.890625 11.765625 -8.265625 L 9.9375 -6.484375 C 9.625 -6.960938 9.226562 -7.359375 8.75 -7.671875 C 8.28125 -7.984375 7.796875 -8.160156 7.296875 -8.203125 C 6.410156 -8.296875 5.640625 -8.066406 4.984375 -7.515625 C 4.328125 -6.960938 3.953125 -6.222656 3.859375 -5.296875 C 3.765625 -4.367188 3.976562 -3.5625 4.5 -2.875 C 5.03125 -2.1875 5.738281 -1.796875 6.625 -1.703125 C 7.09375 -1.660156 7.585938 -1.726562 8.109375 -1.90625 C 8.640625 -2.09375 9.125 -2.367188 9.5625 -2.734375 L 11.015625 -0.8125 C 10.359375 -0.25 9.597656 0.171875 8.734375 0.453125 C 7.878906 0.742188 7.039062 0.847656 6.21875 0.765625 C 4.550781 0.585938 3.21875 -0.0976562 2.21875 -1.296875 C 1.21875 -2.503906 0.796875 -3.921875 0.953125 -5.546875 C 1.117188 -7.148438 1.820312 -8.429688 3.0625 -9.390625 C 4.3125 -10.359375 5.785156 -10.757812 7.484375 -10.59375 Z M 7.484375 -10.59375 "/></g></g></g><g fill="rgb(100%, 100%, 100%)" fill-opacity="0.502"><g transform="translate(215.257782, 77.980294)"><g><path d="M 9.515625 -8.859375 C 11.179688 -8.335938 12.398438 -7.390625 13.171875 -6.015625 C 13.953125 -4.640625 14.097656 -3.175781 13.609375 -1.625 C 13.128906 -0.0703125 12.171875 1.050781 10.734375 1.75 C 9.304688 2.457031 7.765625 2.550781 6.109375 2.03125 C 4.460938 1.519531 3.25 0.570312 2.46875 -0.8125 C 1.695312 -2.207031 1.554688 -3.6875 2.046875 -5.25 C 2.535156 -6.8125 3.488281 -7.929688 4.90625 -8.609375 C 6.332031 -9.296875 7.867188 -9.378906 9.515625 -8.859375 Z M 8.828125 -6.578125 C 7.992188 -6.835938 7.1875 -6.757812 6.40625 -6.34375 C 5.625 -5.925781 5.09375 -5.265625 4.8125 -4.359375 C 4.53125 -3.460938 4.59375 -2.609375 5 -1.796875 C 5.40625 -0.992188 6.019531 -0.460938 6.84375 -0.203125 C 7.664062 0.046875 8.457031 -0.046875 9.21875 -0.484375 C 9.988281 -0.929688 10.515625 -1.601562 10.796875 -2.5 C 11.078125 -3.40625 11.023438 -4.242188 10.640625 -5.015625 C 10.253906 -5.796875 9.648438 -6.316406 8.828125 -6.578125 Z M 8.828125 -6.578125 "/></g></g></g><g fill="rgb(100%, 100%, 100%)" fill-opacity="0.502"><g transform="translate(237.329585, 86.057753)"><g><path d="M 6.453125 -9.234375 L 10.65625 -6.890625 C 12.1875 -6.023438 13.179688 -4.867188 13.640625 -3.421875 C 14.097656 -1.984375 13.921875 -0.539062 13.109375 0.90625 C 12.304688 2.34375 11.160156 3.242188 9.671875 3.609375 C 8.191406 3.972656 6.664062 3.71875 5.09375 2.84375 L 0.984375 0.546875 Z M 7.8125 -5.859375 L 4.578125 -0.046875 L 6.34375 0.9375 C 7.113281 1.363281 7.890625 1.441406 8.671875 1.171875 C 9.453125 0.910156 10.082031 0.351562 10.5625 -0.5 C 11.039062 -1.363281 11.175781 -2.207031 10.96875 -3.03125 C 10.757812 -3.851562 10.257812 -4.488281 9.46875 -4.9375 Z M 7.8125 -5.859375 "/></g></g></g><g fill="rgb(100%, 100%, 100%)" fill-opacity="0.502"><g transform="translate(256.790088, 98.212767)"><g><path d="M 13.328125 -0.390625 L 8.828125 -4.234375 L 7.390625 -2.546875 L 11.453125 0.921875 L 10 2.625 L 5.9375 -0.84375 L 4.46875 0.875 L 9.109375 4.828125 L 7.65625 6.53125 L 0.859375 0.734375 L 8.140625 -7.78125 L 14.796875 -2.09375 Z M 13.328125 -0.390625 "/></g></g></g><g fill="rgb(100%, 100%, 100%)" fill-opacity="0.302"><g transform="translate(111.466641, 105.923386)"><g><path d="M -6.359375 -9.28125 L -2.6875 -12.390625 C -1.332031 -13.523438 0.0976562 -14.050781 1.609375 -13.96875 C 3.117188 -13.894531 4.410156 -13.222656 5.484375 -11.953125 C 6.546875 -10.691406 6.984375 -9.300781 6.796875 -7.78125 C 6.609375 -6.257812 5.828125 -4.914062 4.453125 -3.75 L 0.859375 -0.71875 Z M -2.71875 -9.375 L 1.578125 -4.296875 L 3.140625 -5.609375 C 3.804688 -6.171875 4.148438 -6.863281 4.171875 -7.6875 C 4.203125 -8.519531 3.898438 -9.3125 3.265625 -10.0625 C 2.640625 -10.820312 1.898438 -11.242188 1.046875 -11.328125 C 0.203125 -11.421875 -0.566406 -11.175781 -1.265625 -10.59375 Z M -2.71875 -9.375 "/></g></g></g><g fill="rgb(100%, 100%, 100%)" fill-opacity="0.302"><g transform="translate(129.661866, 92.001013)"><g><path d="M 6.546875 -5.890625 L 2.234375 -3.546875 L 2.5 -1.359375 L -0.0625 0.03125 L -1.171875 -12.109375 L 1.421875 -13.5 L 10.90625 -5.90625 L 8.234375 -4.453125 Z M 4.78125 -7.390625 L 1.40625 -10.28125 L 1.9375 -5.84375 Z M 4.78125 -7.390625 "/></g></g></g><g fill="rgb(100%, 100%, 100%)" fill-opacity="0.302"><g transform="translate(150.335154, 82.027567)"><g><path d="M 10.96875 -3.28125 L 8.5625 -2.5625 L 1.65625 -7.6875 L 3.640625 -1.09375 L 1.078125 -0.328125 L -2.140625 -11.0625 L 0.25 -11.78125 L 7.1875 -6.625 L 5.203125 -13.265625 L 7.75 -14.015625 Z M 10.96875 -3.28125 "/></g></g></g><g fill="rgb(100%, 100%, 100%)" fill-opacity="0.302"><g transform="translate(172.898682, 76.467566)"><g><path d="M 6.53125 -4.21875 L 6.859375 -0.625 L 4.046875 -0.375 L 3.71875 -3.890625 L -1.109375 -11.15625 L 1.71875 -11.40625 L 4.875 -6.78125 L 7.046875 -11.90625 L 9.875 -12.15625 Z M 6.53125 -4.21875 "/></g></g></g><g fill="rgb(100%, 100%, 100%)" fill-opacity="0.302"><g transform="translate(194.464249, 75.512893)"><g><path d="M 7.484375 -10.59375 C 8.304688 -10.507812 9.097656 -10.253906 9.859375 -9.828125 C 10.628906 -9.410156 11.265625 -8.890625 11.765625 -8.265625 L 9.9375 -6.484375 C 9.625 -6.960938 9.226562 -7.359375 8.75 -7.671875 C 8.28125 -7.984375 7.796875 -8.160156 7.296875 -8.203125 C 6.410156 -8.296875 5.640625 -8.066406 4.984375 -7.515625 C 4.328125 -6.960938 3.953125 -6.222656 3.859375 -5.296875 C 3.765625 -4.367188 3.976562 -3.5625 4.5 -2.875 C 5.03125 -2.1875 5.738281 -1.796875 6.625 -1.703125 C 7.09375 -1.660156 7.585938 -1.726562 8.109375 -1.90625 C 8.640625 -2.09375 9.125 -2.367188 9.5625 -2.734375 L 11.015625 -0.8125 C 10.359375 -0.25 9.597656 0.171875 8.734375 0.453125 C 7.878906 0.742188 7.039062 0.847656 6.21875 0.765625 C 4.550781 0.585938 3.21875 -0.0976562 2.21875 -1.296875 C 1.21875 -2.503906 0.796875 -3.921875 0.953125 -5.546875 C 1.117188 -7.148438 1.820312 -8.429688 3.0625 -9.390625 C 4.3125 -10.359375 5.785156 -10.757812 7.484375 -10.59375 Z M 7.484375 -10.59375 "/></g></g></g><g fill="rgb(100%, 100%, 100%)" fill-opacity="0.302"><g transform="translate(215.964889, 78.687396)"><g><path d="M 9.515625 -8.859375 C 11.179688 -8.335938 12.398438 -7.390625 13.171875 -6.015625 C 13.953125 -4.640625 14.097656 -3.175781 13.609375 -1.625 C 13.128906 -0.0703125 12.171875 1.050781 10.734375 1.75 C 9.304688 2.457031 7.765625 2.550781 6.109375 2.03125 C 4.460938 1.519531 3.25 0.570312 2.46875 -0.8125 C 1.695312 -2.207031 1.554688 -3.6875 2.046875 -5.25 C 2.535156 -6.8125 3.488281 -7.929688 4.90625 -8.609375 C 6.332031 -9.296875 7.867188 -9.378906 9.515625 -8.859375 Z M 8.828125 -6.578125 C 7.992188 -6.835938 7.1875 -6.757812 6.40625 -6.34375 C 5.625 -5.925781 5.09375 -5.265625 4.8125 -4.359375 C 4.53125 -3.460938 4.59375 -2.609375 5 -1.796875 C 5.40625 -0.992188 6.019531 -0.460938 6.84375 -0.203125 C 7.664062 0.046875 8.457031 -0.046875 9.21875 -0.484375 C 9.988281 -0.929688 10.515625 -1.601562 10.796875 -2.5 C 11.078125 -3.40625 11.023438 -4.242188 10.640625 -5.015625 C 10.253906 -5.796875 9.648438 -6.316406 8.828125 -6.578125 Z M 8.828125 -6.578125 "/></g></g></g><g fill="rgb(100%, 100%, 100%)" fill-opacity="0.302"><g transform="translate(238.036695, 86.764855)"><g><path d="M 6.453125 -9.234375 L 10.65625 -6.890625 C 12.1875 -6.023438 13.179688 -4.867188 13.640625 -3.421875 C 14.097656 -1.984375 13.921875 -0.539062 13.109375 0.90625 C 12.304688 2.34375 11.160156 3.242188 9.671875 3.609375 C 8.191406 3.972656 6.664062 3.71875 5.09375 2.84375 L 0.984375 0.546875 Z M 7.8125 -5.859375 L 4.578125 -0.046875 L 6.34375 0.9375 C 7.113281 1.363281 7.890625 1.441406 8.671875 1.171875 C 9.453125 0.910156 10.082031 0.351562 10.5625 -0.5 C 11.039062 -1.363281 11.175781 -2.207031 10.96875 -3.03125 C 10.757812 -3.851562 10.257812 -4.488281 9.46875 -4.9375 Z M 7.8125 -5.859375 "/></g></g></g><g fill="rgb(100%, 100%, 100%)" fill-opacity="0.302"><g transform="translate(257.497197, 98.919869)"><g><path d="M 13.328125 -0.390625 L 8.828125 -4.234375 L 7.390625 -2.546875 L 11.453125 0.921875 L 10 2.625 L 5.9375 -0.84375 L 4.46875 0.875 L 9.109375 4.828125 L 7.65625 6.53125 L 0.859375 0.734375 L 8.140625 -7.78125 L 14.796875 -2.09375 Z M 13.328125 -0.390625 "/></g></g></g><g fill="rgb(100%, 100%, 100%)" fill-opacity="1"><g transform="translate(110.052429, 104.509174)"><g><path d="M -6.359375 -9.28125 L -2.6875 -12.390625 C -1.332031 -13.523438 0.0976562 -14.050781 1.609375 -13.96875 C 3.117188 -13.894531 4.410156 -13.222656 5.484375 -11.953125 C 6.546875 -10.691406 6.984375 -9.300781 6.796875 -7.78125 C 6.609375 -6.257812 5.828125 -4.914062 4.453125 -3.75 L 0.859375 -0.71875 Z M -2.71875 -9.375 L 1.578125 -4.296875 L 3.140625 -5.609375 C 3.804688 -6.171875 4.148438 -6.863281 4.171875 -7.6875 C 4.203125 -8.519531 3.898438 -9.3125 3.265625 -10.0625 C 2.640625 -10.820312 1.898438 -11.242188 1.046875 -11.328125 C 0.203125 -11.421875 -0.566406 -11.175781 -1.265625 -10.59375 Z M -2.71875 -9.375 "/></g></g></g><g fill="rgb(100%, 100%, 100%)" fill-opacity="1"><g transform="translate(128.247647, 90.586808)"><g><path d="M 6.546875 -5.890625 L 2.234375 -3.546875 L 2.5 -1.359375 L -0.0625 0.03125 L -1.171875 -12.109375 L 1.421875 -13.5 L 10.90625 -5.90625 L 8.234375 -4.453125 Z M 4.78125 -7.390625 L 1.40625 -10.28125 L 1.9375 -5.84375 Z M 4.78125 -7.390625 "/></g></g></g><g fill="rgb(100%, 100%, 100%)" fill-opacity="1"><g transform="translate(148.920937, 80.613355)"><g><path d="M 10.96875 -3.28125 L 8.5625 -2.5625 L 1.65625 -7.6875 L 3.640625 -1.09375 L 1.078125 -0.328125 L -2.140625 -11.0625 L 0.25 -11.78125 L 7.1875 -6.625 L 5.203125 -13.265625 L 7.75 -14.015625 Z M 10.96875 -3.28125 "/></g></g></g><g fill="rgb(100%, 100%, 100%)" fill-opacity="1"><g transform="translate(171.48448, 75.053355)"><g><path d="M 6.53125 -4.21875 L 6.859375 -0.625 L 4.046875 -0.375 L 3.71875 -3.890625 L -1.109375 -11.15625 L 1.71875 -11.40625 L 4.875 -6.78125 L 7.046875 -11.90625 L 9.875 -12.15625 Z M 6.53125 -4.21875 "/></g></g></g><g fill="rgb(100%, 100%, 100%)" fill-opacity="1"><g transform="translate(193.05003, 74.098686)"><g><path d="M 7.484375 -10.59375 C 8.304688 -10.507812 9.097656 -10.253906 9.859375 -9.828125 C 10.628906 -9.410156 11.265625 -8.890625 11.765625 -8.265625 L 9.9375 -6.484375 C 9.625 -6.960938 9.226562 -7.359375 8.75 -7.671875 C 8.28125 -7.984375 7.796875 -8.160156 7.296875 -8.203125 C 6.410156 -8.296875 5.640625 -8.066406 4.984375 -7.515625 C 4.328125 -6.960938 3.953125 -6.222656 3.859375 -5.296875 C 3.765625 -4.367188 3.976562 -3.5625 4.5 -2.875 C 5.03125 -2.1875 5.738281 -1.796875 6.625 -1.703125 C 7.09375 -1.660156 7.585938 -1.726562 8.109375 -1.90625 C 8.640625 -2.09375 9.125 -2.367188 9.5625 -2.734375 L 11.015625 -0.8125 C 10.359375 -0.25 9.597656 0.171875 8.734375 0.453125 C 7.878906 0.742188 7.039062 0.847656 6.21875 0.765625 C 4.550781 0.585938 3.21875 -0.0976562 2.21875 -1.296875 C 1.21875 -2.503906 0.796875 -3.921875 0.953125 -5.546875 C 1.117188 -7.148438 1.820312 -8.429688 3.0625 -9.390625 C 4.3125 -10.359375 5.785156 -10.757812 7.484375 -10.59375 Z M 7.484375 -10.59375 "/></g></g></g><g fill="rgb(100%, 100%, 100%)" fill-opacity="1"><g transform="translate(214.550672, 77.273184)"><g><path d="M 9.515625 -8.859375 C 11.179688 -8.335938 12.398438 -7.390625 13.171875 -6.015625 C 13.953125 -4.640625 14.097656 -3.175781 13.609375 -1.625 C 13.128906 -0.0703125 12.171875 1.050781 10.734375 1.75 C 9.304688 2.457031 7.765625 2.550781 6.109375 2.03125 C 4.460938 1.519531 3.25 0.570312 2.46875 -0.8125 C 1.695312 -2.207031 1.554688 -3.6875 2.046875 -5.25 C 2.535156 -6.8125 3.488281 -7.929688 4.90625 -8.609375 C 6.332031 -9.296875 7.867188 -9.378906 9.515625 -8.859375 Z M 8.828125 -6.578125 C 7.992188 -6.835938 7.1875 -6.757812 6.40625 -6.34375 C 5.625 -5.925781 5.09375 -5.265625 4.8125 -4.359375 C 4.53125 -3.460938 4.59375 -2.609375 5 -1.796875 C 5.40625 -0.992188 6.019531 -0.460938 6.84375 -0.203125 C 7.664062 0.046875 8.457031 -0.046875 9.21875 -0.484375 C 9.988281 -0.929688 10.515625 -1.601562 10.796875 -2.5 C 11.078125 -3.40625 11.023438 -4.242188 10.640625 -5.015625 C 10.253906 -5.796875 9.648438 -6.316406 8.828125 -6.578125 Z M 8.828125 -6.578125 "/></g></g></g><g fill="rgb(100%, 100%, 100%)" fill-opacity="1"><g transform="translate(236.622476, 85.350643)"><g><path d="M 6.453125 -9.234375 L 10.65625 -6.890625 C 12.1875 -6.023438 13.179688 -4.867188 13.640625 -3.421875 C 14.097656 -1.984375 13.921875 -0.539062 13.109375 0.90625 C 12.304688 2.34375 11.160156 3.242188 9.671875 3.609375 C 8.191406 3.972656 6.664062 3.71875 5.09375 2.84375 L 0.984375 0.546875 Z M 7.8125 -5.859375 L 4.578125 -0.046875 L 6.34375 0.9375 C 7.113281 1.363281 7.890625 1.441406 8.671875 1.171875 C 9.453125 0.910156 10.082031 0.351562 10.5625 -0.5 C 11.039062 -1.363281 11.175781 -2.207031 10.96875 -3.03125 C 10.757812 -3.851562 10.257812 -4.488281 9.46875 -4.9375 Z M 7.8125 -5.859375 "/></g></g></g><g fill="rgb(100%, 100%, 100%)" fill-opacity="1"><g transform="translate(256.082978, 97.505657)"><g><path d="M 13.328125 -0.390625 L 8.828125 -4.234375 L 7.390625 -2.546875 L 11.453125 0.921875 L 10 2.625 L 5.9375 -0.84375 L 4.46875 0.875 L 9.109375 4.828125 L 7.65625 6.53125 L 0.859375 0.734375 L 8.140625 -7.78125 L 14.796875 -2.09375 Z M 13.328125 -0.390625 "/></g></g></g></svg>