<svg xmlns="http://www.w3.org/2000/svg" xmlns:xlink="http://www.w3.org/1999/xlink" width="360" zoomAndPan="magnify" viewBox="0 0 270 119.999999" height="160" preserveAspectRatio="xMidYMid meet" version="1.0"><defs><clipPath id="id1"><path d="M 125 26.109375 L 148 26.109375 L 148 40 L 125 40 Z M 125 26.109375 " clip-rule="nonzero"/></clipPath><clipPath id="id2"><path d="M 148 26.109375 L 171 26.109375 L 171 40 L 148 40 Z M 148 26.109375 " clip-rule="nonzero"/></clipPath><clipPath id="id3"><path d="M 171 26.109375 L 186 26.109375 L 186 40 L 171 40 Z M 171 26.109375 " clip-rule="nonzero"/></clipPath><clipPath id="id4"><path d="M 83.660156 26.109375 L 125 26.109375 L 125 40 L 83.660156 40 Z M 83.660156 26.109375 " clip-rule="nonzero"/></clipPath><clipPath id="id5"><path d="M 83.660156 48 L 186.410156 48 L 186.410156 104.859375 L 83.660156 104.859375 Z M 83.660156 48 " clip-rule="nonzero"/></clipPath></defs><g clip-path="url(#id1)"><path fill="rgb(100%, 100%, 100%)" d="M 147.613281 26.394531 L 132.050781 26.394531 L 125.015625 39.777344 L 139.726562 39.777344 Z M 147.613281 26.394531 " fill-opacity="1" fill-rule="nonzero"/></g><g clip-path="url(#id2)"><path fill="rgb(100%, 100%, 100%)" d="M 170.636719 26.394531 L 155.285156 26.394531 L 148.25 39.777344 L 162.746094 39.777344 Z M 170.636719 26.394531 " fill-opacity="1" fill-rule="nonzero"/></g><g clip-path="url(#id3)"><path fill="rgb(100%, 100%, 100%)" d="M 185.769531 26.394531 L 177.671875 26.394531 L 171.488281 39.777344 L 185.769531 39.777344 Z M 185.769531 26.394531 " fill-opacity="1" fill-rule="nonzero"/></g><g clip-path="url(#id4)"><path fill="rgb(100%, 100%, 100%)" d="M 124.164062 26.605469 L 83.660156 26.605469 L 83.660156 39.777344 L 116.914062 39.777344 Z M 124.164062 26.605469 " fill-opacity="1" fill-rule="nonzero"/></g><g clip-path="url(#id5)"><path fill="rgb(100%, 100%, 100%)" d="M 83.875 97.566406 C 83.875 101.390625 87.285156 104.578125 91.546875 104.578125 L 178.734375 104.578125 C 183 104.578125 186.410156 101.390625 186.410156 97.566406 L 186.410156 48.699219 L 84.085938 48.699219 C 83.875 48.488281 83.875 97.566406 83.875 97.566406 Z M 122.03125 69.734375 C 122.03125 65.910156 125.015625 63.996094 128.851562 65.910156 L 145.054688 73.347656 C 148.890625 75.046875 148.890625 78.019531 145.054688 79.71875 L 128.851562 87.15625 C 125.015625 88.855469 122.03125 87.15625 122.03125 83.332031 Z M 122.03125 69.734375 " fill-opacity="1" fill-rule="nonzero"/></g></svg>