<svg xmlns="http://www.w3.org/2000/svg" xmlns:xlink="http://www.w3.org/1999/xlink" width="360" zoomAndPan="magnify" viewBox="0 0 270 119.999999" height="160" preserveAspectRatio="xMidYMid meet" version="1.0"><defs><clipPath id="id1"><path d="M 82 17.074219 L 107.136719 17.074219 L 107.136719 96.574219 L 82 96.574219 Z M 82 17.074219 " clip-rule="nonzero"/></clipPath><clipPath id="id2"><path d="M 45.636719 17.074219 L 70 17.074219 L 70 96.574219 L 45.636719 96.574219 Z M 45.636719 17.074219 " clip-rule="nonzero"/></clipPath><clipPath id="id3"><path d="M 146 17.074219 L 161.710938 17.074219 L 161.710938 96.574219 L 146 96.574219 Z M 146 17.074219 " clip-rule="nonzero"/></clipPath><clipPath id="id4"><path d="M 117.460938 17.074219 L 133 17.074219 L 133 96.574219 L 117.460938 96.574219 Z M 117.460938 17.074219 " clip-rule="nonzero"/></clipPath><clipPath id="id5"><path d="M 172 17.074219 L 192 17.074219 L 192 96.574219 L 172 96.574219 Z M 172 17.074219 " clip-rule="nonzero"/></clipPath><clipPath id="id6"><path d="M 217 17.074219 L 238 17.074219 L 238 96.574219 L 217 96.574219 Z M 217 17.074219 " clip-rule="nonzero"/></clipPath></defs><g clip-path="url(#id1)"><path fill="rgb(100%, 100%, 100%)" d="M 85.167969 25.90625 L 82.972656 25.90625 L 82.972656 17.074219 L 85.167969 17.074219 C 92.445312 17.074219 98.339844 23.003906 98.339844 30.324219 L 98.339844 45.78125 C 98.339844 47.171875 98.992188 48.480469 100.097656 49.316406 L 105.367188 53.289062 C 106.421875 54.085938 107.066406 55.316406 107.121094 56.640625 C 107.175781 57.964844 106.632812 59.242188 105.648438 60.125 L 99.816406 65.339844 C 98.878906 66.175781 98.339844 67.378906 98.339844 68.640625 L 98.339844 83.324219 C 98.339844 90.640625 92.445312 96.574219 85.167969 96.574219 L 82.972656 96.574219 L 82.972656 87.738281 L 85.167969 87.738281 C 87.59375 87.738281 89.558594 85.761719 89.558594 83.324219 L 89.558594 68.640625 C 89.558594 64.855469 91.167969 61.25 93.980469 58.734375 L 95.796875 57.113281 L 94.828125 56.382812 C 91.511719 53.878906 89.558594 49.953125 89.558594 45.78125 L 89.558594 30.324219 C 89.558594 27.882812 87.59375 25.90625 85.167969 25.90625 Z M 85.167969 25.90625 " fill-opacity="1" fill-rule="evenodd"/></g><g clip-path="url(#id2)"><path fill="rgb(100%, 100%, 100%)" d="M 67.605469 25.90625 L 69.800781 25.90625 L 69.800781 17.074219 L 67.605469 17.074219 C 60.328125 17.074219 54.433594 23.003906 54.433594 30.324219 L 54.433594 45.78125 C 54.433594 47.171875 53.78125 48.480469 52.675781 49.316406 L 47.40625 53.289062 C 46.351562 54.085938 45.710938 55.316406 45.65625 56.640625 C 45.601562 57.964844 46.140625 59.242188 47.125 60.125 L 52.957031 65.339844 C 53.894531 66.175781 54.433594 67.378906 54.433594 68.640625 L 54.433594 83.324219 C 54.433594 90.640625 60.328125 96.574219 67.605469 96.574219 L 69.800781 96.574219 L 69.800781 87.738281 L 67.605469 87.738281 C 65.179688 87.738281 63.214844 85.761719 63.214844 83.324219 L 63.214844 68.640625 C 63.214844 64.855469 61.605469 61.25 58.792969 58.734375 L 56.976562 57.113281 L 57.945312 56.382812 C 61.261719 53.878906 63.214844 49.953125 63.214844 45.78125 L 63.214844 30.324219 C 63.214844 27.882812 65.179688 25.90625 67.605469 25.90625 Z M 67.605469 25.90625 " fill-opacity="1" fill-rule="evenodd"/></g><g clip-path="url(#id3)"><path fill="rgb(100%, 100%, 100%)" d="M 152.859375 25.941406 L 146.222656 25.941406 L 146.222656 17.117188 L 157.285156 17.117188 C 159.730469 17.117188 161.710938 19.09375 161.710938 21.53125 L 161.710938 92.117188 C 161.710938 94.550781 159.730469 96.527344 157.285156 96.527344 L 146.222656 96.527344 L 146.222656 87.703125 L 152.859375 87.703125 Z M 152.859375 25.941406 " fill-opacity="1" fill-rule="evenodd"/></g><g clip-path="url(#id4)"><path fill="rgb(100%, 100%, 100%)" d="M 126.308594 25.941406 L 132.949219 25.941406 L 132.949219 17.117188 L 121.886719 17.117188 C 119.441406 17.117188 117.460938 19.09375 117.460938 21.53125 L 117.460938 92.117188 C 117.460938 94.550781 119.441406 96.527344 121.886719 96.527344 L 132.949219 96.527344 L 132.949219 87.703125 L 126.308594 87.703125 Z M 126.308594 25.941406 " fill-opacity="1" fill-rule="evenodd"/></g><g clip-path="url(#id5)"><path fill="rgb(100%, 100%, 100%)" d="M 190.503906 18.125 C 190.164062 17.851562 189.785156 17.65625 189.371094 17.535156 C 188.953125 17.414062 188.53125 17.375 188.101562 17.421875 C 187.671875 17.472656 187.265625 17.601562 186.886719 17.808594 C 186.503906 18.019531 186.179688 18.292969 185.910156 18.632812 C 184.804688 19.960938 183.761719 21.332031 182.777344 22.75 C 181.792969 24.167969 180.871094 25.625 180.011719 27.121094 C 179.15625 28.621094 178.363281 30.152344 177.636719 31.71875 C 176.914062 33.289062 176.257812 34.882812 175.667969 36.507812 C 175.082031 38.132812 174.566406 39.78125 174.121094 41.453125 C 173.679688 43.121094 173.308594 44.808594 173.007812 46.511719 C 172.710938 48.210938 172.488281 49.925781 172.335938 51.648438 C 172.1875 53.367188 172.113281 55.09375 172.113281 56.824219 C 172.113281 58.550781 172.1875 60.277344 172.335938 62 C 172.488281 63.722656 172.710938 65.433594 173.007812 67.136719 C 173.308594 68.839844 173.679688 70.523438 174.121094 72.195312 C 174.566406 73.863281 175.082031 75.511719 175.667969 77.136719 C 176.257812 78.761719 176.914062 80.359375 177.636719 81.925781 C 178.363281 83.492188 179.15625 85.027344 180.011719 86.523438 C 180.871094 88.023438 181.792969 89.480469 182.777344 90.898438 C 183.761719 92.316406 184.804688 93.6875 185.910156 95.011719 C 186.183594 95.335938 186.511719 95.597656 186.886719 95.792969 C 187.265625 95.992188 187.664062 96.109375 188.085938 96.148438 C 188.511719 96.191406 188.925781 96.148438 189.332031 96.027344 C 189.738281 95.90625 190.109375 95.710938 190.441406 95.441406 C 190.769531 95.175781 191.039062 94.855469 191.246094 94.484375 C 191.457031 94.113281 191.585938 93.714844 191.640625 93.289062 C 191.691406 92.867188 191.664062 92.449219 191.554688 92.035156 C 191.445312 91.625 191.265625 91.246094 191.007812 90.90625 C 190.019531 89.722656 189.085938 88.5 188.203125 87.238281 C 187.324219 85.972656 186.496094 84.671875 185.726562 83.335938 C 184.960938 82 184.25 80.632812 183.601562 79.234375 C 182.949219 77.835938 182.363281 76.410156 181.835938 74.960938 C 181.3125 73.511719 180.847656 72.039062 180.453125 70.546875 C 180.054688 69.058594 179.722656 67.550781 179.453125 66.03125 C 179.1875 64.511719 178.988281 62.984375 178.851562 61.445312 C 178.71875 59.90625 178.652344 58.367188 178.652344 56.824219 C 178.652344 55.28125 178.71875 53.738281 178.851562 52.199219 C 178.988281 50.664062 179.1875 49.132812 179.453125 47.613281 C 179.722656 46.09375 180.054688 44.589844 180.453125 43.097656 C 180.847656 41.605469 181.3125 40.136719 181.835938 38.683594 C 182.363281 37.234375 182.949219 35.8125 183.601562 34.410156 C 184.25 33.011719 184.960938 31.644531 185.726562 30.308594 C 186.496094 28.972656 187.324219 27.671875 188.203125 26.410156 C 189.085938 25.144531 190.019531 23.921875 191.007812 22.738281 C 191.28125 22.398438 191.476562 22.019531 191.597656 21.601562 C 191.71875 21.183594 191.753906 20.757812 191.707031 20.328125 C 191.660156 19.894531 191.53125 19.488281 191.320312 19.105469 C 191.113281 18.722656 190.839844 18.398438 190.503906 18.125 Z M 190.503906 18.125 " fill-opacity="1" fill-rule="nonzero"/></g><g clip-path="url(#id6)"><path fill="rgb(100%, 100%, 100%)" d="M 223.699219 18.632812 C 223.433594 18.277344 223.109375 17.988281 222.726562 17.765625 C 222.34375 17.542969 221.933594 17.402344 221.496094 17.347656 C 221.058594 17.292969 220.625 17.324219 220.199219 17.445312 C 219.773438 17.566406 219.386719 17.765625 219.042969 18.042969 C 218.699219 18.320312 218.417969 18.65625 218.210938 19.046875 C 218 19.4375 217.875 19.855469 217.832031 20.296875 C 217.789062 20.738281 217.835938 21.171875 217.96875 21.597656 C 218.101562 22.019531 218.3125 22.402344 218.601562 22.738281 C 219.589844 23.921875 220.523438 25.144531 221.40625 26.410156 C 222.289062 27.671875 223.113281 28.972656 223.882812 30.308594 C 224.648438 31.644531 225.359375 33.011719 226.007812 34.410156 C 226.660156 35.8125 227.246094 37.234375 227.773438 38.683594 C 228.296875 40.136719 228.761719 41.605469 229.160156 43.097656 C 229.554688 44.589844 229.890625 46.09375 230.15625 47.613281 C 230.421875 49.132812 230.625 50.664062 230.757812 52.199219 C 230.890625 53.738281 230.957031 55.28125 230.957031 56.824219 C 230.957031 58.367188 230.890625 59.90625 230.757812 61.445312 C 230.625 62.984375 230.421875 64.511719 230.15625 66.03125 C 229.890625 67.550781 229.554688 69.058594 229.160156 70.546875 C 228.761719 72.039062 228.296875 73.511719 227.773438 74.960938 C 227.246094 76.410156 226.660156 77.835938 226.007812 79.234375 C 225.359375 80.632812 224.648438 82 223.882812 83.335938 C 223.113281 84.671875 222.289062 85.972656 221.40625 87.238281 C 220.523438 88.5 219.589844 89.722656 218.601562 90.90625 C 218.3125 91.246094 218.101562 91.625 217.96875 92.050781 C 217.835938 92.472656 217.789062 92.90625 217.832031 93.347656 C 217.875 93.792969 218 94.207031 218.210938 94.597656 C 218.417969 94.992188 218.699219 95.324219 219.042969 95.601562 C 219.386719 95.882812 219.773438 96.082031 220.199219 96.199219 C 220.625 96.320312 221.058594 96.355469 221.496094 96.296875 C 221.933594 96.242188 222.34375 96.105469 222.726562 95.878906 C 223.109375 95.65625 223.433594 95.367188 223.699219 95.011719 C 224.804688 93.6875 225.847656 92.316406 226.832031 90.898438 C 227.816406 89.480469 228.738281 88.023438 229.597656 86.523438 C 230.457031 85.027344 231.246094 83.492188 231.972656 81.925781 C 232.699219 80.359375 233.355469 78.761719 233.941406 77.136719 C 234.527344 75.511719 235.042969 73.863281 235.488281 72.195312 C 235.929688 70.523438 236.300781 68.839844 236.601562 67.136719 C 236.898438 65.433594 237.121094 63.722656 237.273438 62 C 237.421875 60.277344 237.496094 58.550781 237.496094 56.824219 C 237.496094 55.09375 237.421875 53.367188 237.273438 51.648438 C 237.121094 49.925781 236.898438 48.210938 236.601562 46.511719 C 236.300781 44.808594 235.929688 43.121094 235.488281 41.453125 C 235.042969 39.78125 234.527344 38.132812 233.941406 36.507812 C 233.355469 34.882812 232.699219 33.289062 231.972656 31.71875 C 231.246094 30.152344 230.457031 28.621094 229.597656 27.121094 C 228.738281 25.625 227.816406 24.167969 226.832031 22.75 C 225.847656 21.332031 224.804688 19.960938 223.699219 18.632812 Z M 223.699219 18.632812 " fill-opacity="1" fill-rule="nonzero"/></g></svg>