<svg xmlns="http://www.w3.org/2000/svg" xmlns:xlink="http://www.w3.org/1999/xlink" width="360" zoomAndPan="magnify" viewBox="0 0 270 119.999999" height="160" preserveAspectRatio="xMidYMid meet" version="1.0"><path fill="rgb(100%, 100%, 100%)" d="M 95.398438 26.855469 L 93.074219 24.527344 L 90.527344 27.074219 L 95.398438 31.945312 L 103.871094 23.472656 L 101.328125 20.925781 L 95.398438 26.855469 " fill-opacity="1" fill-rule="nonzero"/><path fill="rgb(100%, 100%, 100%)" d="M 136.800781 20.398438 L 109.800781 20.398438 L 109.800781 24 L 136.800781 24 L 136.800781 20.398438 " fill-opacity="1" fill-rule="nonzero"/><path fill="rgb(100%, 100%, 100%)" d="M 136.800781 27.601562 L 109.800781 27.601562 L 109.800781 31.199219 L 136.800781 31.199219 L 136.800781 27.601562 " fill-opacity="1" fill-rule="nonzero"/><path fill="rgb(100%, 100%, 100%)" d="M 109.800781 67.199219 L 142.199219 67.199219 L 142.199219 63.601562 L 109.800781 63.601562 L 109.800781 67.199219 " fill-opacity="1" fill-rule="nonzero"/><path fill="rgb(100%, 100%, 100%)" d="M 109.800781 74.398438 L 142.199219 74.398438 L 142.199219 70.800781 L 109.800781 70.800781 L 109.800781 74.398438 " fill-opacity="1" fill-rule="nonzero"/><path fill="rgb(100%, 100%, 100%)" d="M 101.328125 62.328125 L 97.199219 66.453125 L 93.074219 62.328125 L 90.527344 64.871094 L 94.65625 69 L 90.527344 73.128906 L 93.074219 75.671875 L 97.199219 71.546875 L 101.328125 75.671875 L 103.871094 73.128906 L 99.746094 69 L 103.871094 64.871094 L 101.328125 62.328125 " fill-opacity="1" fill-rule="nonzero"/><path fill="rgb(100%, 100%, 100%)" d="M 109.800781 88.800781 L 140.398438 88.800781 L 140.398438 85.199219 L 109.800781 85.199219 L 109.800781 88.800781 " fill-opacity="1" fill-rule="nonzero"/><path fill="rgb(100%, 100%, 100%)" d="M 109.800781 96 L 140.398438 96 L 140.398438 92.398438 L 109.800781 92.398438 L 109.800781 96 " fill-opacity="1" fill-rule="nonzero"/><path fill="rgb(100%, 100%, 100%)" d="M 101.328125 83.925781 L 97.199219 88.054688 L 93.074219 83.925781 L 90.527344 86.472656 L 94.65625 90.601562 L 90.527344 94.726562 L 93.074219 97.273438 L 97.199219 93.144531 L 101.328125 97.273438 L 103.871094 94.726562 L 99.746094 90.601562 L 103.871094 86.472656 L 101.328125 83.925781 " fill-opacity="1" fill-rule="nonzero"/><path fill="rgb(100%, 100%, 100%)" d="M 95.398438 48.453125 L 93.074219 46.128906 L 90.527344 48.671875 L 95.398438 53.546875 L 103.871094 45.074219 L 101.328125 42.527344 L 95.398438 48.453125 " fill-opacity="1" fill-rule="nonzero"/><path fill="rgb(100%, 100%, 100%)" d="M 149.398438 42 L 109.800781 42 L 109.800781 45.601562 L 149.398438 45.601562 L 149.398438 42 " fill-opacity="1" fill-rule="nonzero"/><path fill="rgb(100%, 100%, 100%)" d="M 149.398438 49.199219 L 109.800781 49.199219 L 109.800781 52.800781 L 149.398438 52.800781 L 149.398438 49.199219 " fill-opacity="1" fill-rule="nonzero"/><path fill="rgb(100%, 100%, 100%)" d="M 185.398438 110.398438 L 149.398438 110.398438 L 149.398438 83.398438 C 149.398438 76.820312 154.476562 71.410156 160.917969 70.855469 L 163.738281 76.496094 L 160.082031 100.226562 L 167.398438 107.546875 L 174.71875 100.226562 L 171.0625 76.496094 L 173.882812 70.855469 C 180.324219 71.410156 185.398438 76.820312 185.398438 83.398438 Z M 84.601562 106.800781 L 84.601562 9.601562 L 142.199219 9.601562 L 142.199219 27.601562 L 160.199219 27.601562 L 160.199219 40.199219 L 154.800781 40.199219 L 154.800781 52.800781 C 154.800781 57.066406 156.945312 60.84375 160.199219 63.121094 L 160.199219 67.304688 C 152.113281 68.207031 145.800781 75.074219 145.800781 83.398438 L 145.800781 106.800781 Z M 145.800781 12.144531 L 157.65625 24 L 145.800781 24 Z M 176.308594 51.871094 C 172.808594 49.023438 168.378906 47.398438 163.800781 47.398438 L 158.398438 47.398438 L 158.398438 43.800781 L 167.398438 43.800781 C 172.046875 43.800781 175.832031 47.351562 176.308594 51.871094 Z M 167.398438 61.800781 C 162.4375 61.800781 158.398438 57.765625 158.398438 52.800781 L 158.398438 51 L 163.800781 51 C 168.328125 51 172.660156 52.941406 175.710938 56.238281 C 174.355469 59.5 171.148438 61.800781 167.398438 61.800781 Z M 170.878906 98.972656 L 167.398438 102.453125 L 163.917969 98.972656 L 167.398438 76.339844 Z M 167.398438 75.777344 L 164.910156 70.800781 L 169.890625 70.800781 Z M 172.800781 67.199219 L 163.800781 67.199219 L 163.800781 64.871094 C 164.945312 65.210938 166.148438 65.398438 167.398438 65.398438 C 174.347656 65.398438 180 59.746094 180 52.800781 C 180 45.851562 174.347656 40.199219 167.398438 40.199219 L 163.800781 40.199219 L 163.800781 25.054688 L 144.746094 6 L 81 6 L 81 110.398438 L 145.800781 110.398438 L 145.800781 114 L 189 114 L 189 83.398438 C 189 74.46875 181.738281 67.199219 172.800781 67.199219 " fill-opacity="1" fill-rule="nonzero"/></svg>