<svg xmlns="http://www.w3.org/2000/svg" xmlns:xlink="http://www.w3.org/1999/xlink" width="360" zoomAndPan="magnify" viewBox="0 0 270 119.999999" height="160" preserveAspectRatio="xMidYMid meet" version="1.0"><defs><clipPath id="id1"><path d="M 79.363281 7.144531 L 190.363281 7.144531 L 190.363281 112 L 79.363281 112 Z M 79.363281 7.144531 " clip-rule="nonzero"/></clipPath></defs><g clip-path="url(#id1)"><path fill="rgb(100%, 100%, 100%)" d="M 135.222656 20.183594 C 140.746094 12.480469 149.757812 7.464844 159.941406 7.464844 C 176.742188 7.464844 190.363281 21.125 190.363281 37.972656 C 190.363281 51.105469 182.09375 62.300781 170.488281 66.601562 C 169.976562 67.421875 169.351562 68.179688 168.621094 68.847656 C 167.253906 70.089844 165.570312 70.957031 163.769531 71.339844 L 162.011719 71.722656 C 161.410156 75.570312 160.222656 79.28125 158.46875 82.746094 L 159.671875 84.09375 C 163.558594 88.457031 163.203125 95.195312 158.890625 99.117188 L 155.1875 102.484375 C 150.867188 106.414062 144.195312 106.054688 140.3125 101.699219 L 139.109375 100.347656 C 135.511719 101.75 131.730469 102.558594 127.867188 102.761719 L 127.332031 104.484375 C 126.761719 106.261719 125.734375 107.855469 124.367188 109.097656 C 121.578125 111.636719 117.625 112.484375 114.058594 111.316406 L 109.316406 109.765625 C 103.792969 107.949219 100.753906 101.941406 102.550781 96.355469 L 103.097656 94.648438 C 101.597656 93.433594 100.191406 92.082031 98.910156 90.648438 C 97.628906 89.210938 96.449219 87.65625 95.40625 86.023438 L 93.671875 86.394531 C 87.992188 87.613281 82.382812 83.933594 81.179688 78.199219 L 80.144531 73.277344 C 79.363281 69.570312 80.617188 65.691406 83.40625 63.15625 C 84.773438 61.910156 86.457031 61.042969 88.257812 60.660156 L 90.015625 60.28125 C 90.617188 56.429688 91.800781 52.722656 93.558594 49.257812 L 92.355469 47.910156 C 88.46875 43.546875 88.820312 36.808594 93.136719 32.882812 L 96.839844 29.515625 C 101.160156 25.589844 107.832031 25.945312 111.714844 30.304688 L 112.917969 31.652344 C 116.511719 30.25 120.292969 29.441406 124.15625 29.242188 L 124.695312 27.515625 C 125.265625 25.742188 126.292969 24.144531 127.660156 22.902344 C 129.746094 21.003906 132.484375 20.054688 135.222656 20.183594 Z M 117.75 56.726562 C 112.679688 61.339844 112.269531 69.222656 116.835938 74.34375 C 121.402344 79.464844 129.210938 79.878906 134.28125 75.269531 C 139.351562 70.65625 139.761719 62.769531 135.195312 57.648438 C 130.628906 52.527344 122.816406 52.121094 117.75 56.726562 Z M 159.941406 65.710938 C 175.214844 65.710938 187.597656 53.292969 187.597656 37.972656 C 187.597656 22.65625 175.214844 10.238281 159.941406 10.238281 C 144.664062 10.238281 132.28125 22.65625 132.28125 37.972656 C 132.28125 53.292969 144.664062 65.710938 159.941406 65.710938 Z M 151.800781 27.804688 L 143.375 38.359375 L 151.800781 49.5 L 146.238281 49.5 L 137.8125 38.417969 L 146.238281 27.804688 Z M 165.984375 27.804688 L 159.523438 49.5 L 154.804688 49.5 L 161.265625 27.804688 Z M 168.511719 49.5 L 176.9375 38.945312 L 168.511719 27.804688 L 174.074219 27.804688 L 182.5 38.886719 L 174.074219 49.5 Z M 168.511719 49.5 " fill-opacity="1" fill-rule="nonzero"/></g></svg>