<svg xmlns="http://www.w3.org/2000/svg" xmlns:xlink="http://www.w3.org/1999/xlink" width="360" zoomAndPan="magnify" viewBox="0 0 270 119.999999" height="160" preserveAspectRatio="xMidYMid meet" version="1.0"><defs><clipPath id="id1"><path d="M 76 26 L 194.425781 26 L 194.425781 111 L 76 111 Z M 76 26 " clip-rule="nonzero"/></clipPath><clipPath id="id2"><path d="M 76 12 L 194.425781 12 L 194.425781 31 L 76 31 Z M 76 12 " clip-rule="nonzero"/></clipPath></defs><g clip-path="url(#id1)"><path fill="rgb(100%, 100%, 100%)" d="M 194.324219 111.039062 L 76.03125 111.039062 L 76.03125 26.277344 L 194.324219 26.277344 Z M 80.304688 106.761719 L 190.046875 106.761719 L 190.046875 30.554688 L 80.304688 30.554688 Z M 80.304688 106.761719 " fill-opacity="1" fill-rule="nonzero"/></g><path fill="rgb(100%, 100%, 100%)" d="M 91.476562 66.042969 L 87.195312 66.042969 L 87.195312 61.761719 L 91.476562 61.765625 Z M 91.476562 66.042969 " fill-opacity="1" fill-rule="nonzero"/><path fill="rgb(100%, 100%, 100%)" d="M 91.46875 57.800781 L 87.195312 57.800781 L 87.195312 53.84375 L 91.46875 53.84375 Z M 91.46875 49.886719 L 87.195312 49.886719 L 87.195312 45.925781 L 91.46875 45.925781 Z M 91.46875 49.886719 " fill-opacity="1" fill-rule="nonzero"/><path fill="rgb(100%, 100%, 100%)" d="M 91.46875 41.96875 L 87.195312 41.96875 L 87.195312 37.6875 L 91.476562 37.6875 Z M 91.46875 41.96875 " fill-opacity="1" fill-rule="nonzero"/><path fill="rgb(100%, 100%, 100%)" d="M 174.714844 41.964844 L 170.554688 41.964844 L 170.554688 37.6875 L 174.714844 37.6875 Z M 166.390625 41.964844 L 162.230469 41.964844 L 162.230469 37.6875 L 166.390625 37.6875 Z M 158.066406 41.964844 L 153.90625 41.964844 L 153.90625 37.6875 L 158.066406 37.6875 Z M 149.742188 41.964844 L 145.582031 41.964844 L 145.582031 37.6875 L 149.742188 37.6875 Z M 141.417969 41.964844 L 137.257812 41.964844 L 137.257812 37.6875 L 141.417969 37.6875 Z M 133.09375 41.964844 L 128.933594 41.964844 L 128.933594 37.6875 L 133.09375 37.6875 Z M 124.773438 41.964844 L 120.609375 41.964844 L 120.609375 37.6875 L 124.773438 37.6875 Z M 116.449219 41.964844 L 112.285156 41.964844 L 112.285156 37.6875 L 116.449219 37.6875 Z M 108.125 41.964844 L 103.960938 41.964844 L 103.960938 37.6875 L 108.125 37.6875 Z M 99.800781 41.964844 L 95.636719 41.964844 L 95.636719 37.6875 L 99.800781 37.6875 Z M 99.800781 41.964844 " fill-opacity="1" fill-rule="nonzero"/><path fill="rgb(100%, 100%, 100%)" d="M 183.160156 41.96875 L 178.878906 41.964844 L 178.878906 37.6875 L 183.160156 37.6875 Z M 183.160156 41.96875 " fill-opacity="1" fill-rule="nonzero"/><path fill="rgb(100%, 100%, 100%)" d="M 183.160156 57.800781 L 178.882812 57.800781 L 178.882812 53.84375 L 183.160156 53.84375 Z M 183.160156 49.886719 L 178.882812 49.886719 L 178.882812 45.925781 L 183.160156 45.925781 Z M 183.160156 49.886719 " fill-opacity="1" fill-rule="nonzero"/><path fill="rgb(100%, 100%, 100%)" d="M 183.160156 66.042969 L 178.878906 66.042969 L 178.882812 61.761719 L 183.160156 61.761719 Z M 183.160156 66.042969 " fill-opacity="1" fill-rule="nonzero"/><path fill="rgb(100%, 100%, 100%)" d="M 174.714844 66.042969 L 170.554688 66.042969 L 170.554688 61.765625 L 174.714844 61.765625 Z M 166.390625 66.042969 L 162.226562 66.042969 L 162.226562 61.765625 L 166.390625 61.765625 Z M 158.066406 66.042969 L 153.90625 66.042969 L 153.90625 61.765625 L 158.066406 61.765625 Z M 149.742188 66.042969 L 145.582031 66.042969 L 145.582031 61.765625 L 149.742188 61.765625 Z M 141.417969 66.042969 L 137.257812 66.042969 L 137.257812 61.765625 L 141.417969 61.765625 Z M 133.09375 66.042969 L 128.933594 66.042969 L 128.933594 61.765625 L 133.09375 61.765625 Z M 124.773438 66.042969 L 120.609375 66.042969 L 120.609375 61.765625 L 124.773438 61.765625 Z M 116.445312 66.042969 L 112.285156 66.042969 L 112.285156 61.765625 L 116.445312 61.765625 Z M 108.125 66.042969 L 103.960938 66.042969 L 103.960938 61.765625 L 108.125 61.765625 Z M 99.800781 66.042969 L 95.636719 66.042969 L 95.636719 61.765625 L 99.800781 61.765625 Z M 99.800781 66.042969 " fill-opacity="1" fill-rule="nonzero"/><g clip-path="url(#id2)"><path fill="rgb(100%, 100%, 100%)" d="M 194.324219 30.554688 L 76.03125 30.554688 L 76.03125 12.019531 L 194.324219 12.019531 Z M 80.304688 26.277344 L 190.046875 26.277344 L 190.046875 16.296875 L 80.304688 16.296875 Z M 80.304688 26.277344 " fill-opacity="1" fill-rule="nonzero"/></g><path fill="rgb(100%, 100%, 100%)" d="M 87.195312 19.148438 L 91.46875 19.148438 L 91.46875 23.425781 L 87.195312 23.425781 Z M 87.195312 19.148438 " fill-opacity="1" fill-rule="nonzero"/><path fill="rgb(100%, 100%, 100%)" d="M 95.746094 19.148438 L 100.019531 19.148438 L 100.019531 23.425781 L 95.746094 23.425781 Z M 95.746094 19.148438 " fill-opacity="1" fill-rule="nonzero"/><path fill="rgb(100%, 100%, 100%)" d="M 104.296875 19.148438 L 108.574219 19.148438 L 108.574219 23.425781 L 104.296875 23.425781 Z M 104.296875 19.148438 " fill-opacity="1" fill-rule="nonzero"/><path fill="rgb(100%, 100%, 100%)" d="M 87.195312 71.035156 L 87.195312 99.871094 L 116.015625 99.871094 L 116.015625 71.035156 Z M 111.742188 95.59375 L 91.46875 95.59375 L 91.46875 75.3125 L 111.738281 75.3125 L 111.738281 95.59375 Z M 111.742188 95.59375 " fill-opacity="1" fill-rule="nonzero"/><path fill="rgb(100%, 100%, 100%)" d="M 120.765625 71.035156 L 120.765625 99.871094 L 149.589844 99.871094 L 149.589844 71.035156 Z M 145.3125 95.59375 L 125.042969 95.59375 L 125.042969 75.3125 L 145.3125 75.3125 Z M 145.3125 95.59375 " fill-opacity="1" fill-rule="nonzero"/><path fill="rgb(100%, 100%, 100%)" d="M 154.339844 71.035156 L 154.339844 99.871094 L 183.160156 99.871094 L 183.160156 71.035156 Z M 178.882812 95.59375 L 158.613281 95.59375 L 158.613281 75.3125 L 178.882812 75.3125 Z M 178.882812 95.59375 " fill-opacity="1" fill-rule="nonzero"/></svg>