<svg xmlns="http://www.w3.org/2000/svg" xmlns:xlink="http://www.w3.org/1999/xlink" width="360" zoomAndPan="magnify" viewBox="0 0 270 119.999999" height="160" preserveAspectRatio="xMidYMid meet" version="1.0"><defs><clipPath id="id1"><path d="M 152 31 L 193.691406 31 L 193.691406 93 L 152 93 Z M 152 31 " clip-rule="nonzero"/></clipPath><clipPath id="id2"><path d="M 114 16.300781 L 155 16.300781 L 155 107.800781 L 114 107.800781 Z M 114 16.300781 " clip-rule="nonzero"/></clipPath></defs><path fill="rgb(100%, 100%, 100%)" d="M 113.089844 90.902344 C 112.441406 90.902344 111.800781 90.683594 111.289062 90.277344 L 78.355469 64.34375 C 77.648438 63.785156 77.242188 62.949219 77.242188 62.050781 C 77.242188 61.148438 77.648438 60.316406 78.355469 59.753906 L 111.289062 33.824219 C 111.800781 33.417969 112.441406 33.199219 113.089844 33.199219 C 113.992188 33.199219 114.832031 33.601562 115.382812 34.3125 C 115.863281 34.921875 116.082031 35.691406 115.988281 36.460938 C 115.898438 37.234375 115.507812 37.925781 114.894531 38.410156 L 84.882812 62.050781 L 114.894531 85.6875 C 115.507812 86.171875 115.898438 86.863281 115.988281 87.636719 C 116.082031 88.410156 115.863281 89.171875 115.382812 89.789062 C 114.832031 90.496094 113.992188 90.902344 113.089844 90.902344 " fill-opacity="1" fill-rule="nonzero"/><path fill="rgb(85.099792%, 85.099792%, 85.099792%)" d="M 113.089844 31.953125 C 112.164062 31.953125 111.253906 32.269531 110.523438 32.84375 L 77.585938 58.777344 C 76.578125 59.578125 76 60.765625 76 62.050781 C 76 63.332031 76.582031 64.527344 77.585938 65.324219 L 110.523438 91.253906 C 111.25 91.828125 112.164062 92.144531 113.089844 92.144531 C 114.378906 92.144531 115.570312 91.5625 116.359375 90.554688 C 117.050781 89.683594 117.355469 88.59375 117.226562 87.492188 C 117.089844 86.386719 116.539062 85.398438 115.664062 84.710938 L 86.886719 62.050781 L 115.664062 39.390625 C 116.539062 38.699219 117.089844 37.714844 117.226562 36.609375 C 117.355469 35.503906 117.050781 34.417969 116.359375 33.542969 C 115.570312 32.53125 114.375 31.953125 113.089844 31.953125 Z M 113.089844 34.441406 C 113.589844 34.441406 114.082031 34.660156 114.40625 35.078125 C 114.984375 35.808594 114.855469 36.863281 114.128906 37.433594 L 82.867188 62.050781 L 114.128906 86.664062 C 114.855469 87.238281 114.984375 88.292969 114.40625 89.019531 C 114.082031 89.441406 113.589844 89.660156 113.089844 89.660156 C 112.730469 89.660156 112.367188 89.546875 112.058594 89.300781 L 79.121094 63.367188 C 78.722656 63.050781 78.484375 62.5625 78.484375 62.050781 C 78.484375 61.535156 78.722656 61.050781 79.121094 60.734375 L 112.058594 34.800781 C 112.359375 34.554688 112.730469 34.441406 113.089844 34.441406 " fill-opacity="1" fill-rule="nonzero"/><path fill="rgb(100%, 100%, 100%)" d="M 156.542969 90.902344 C 155.644531 90.902344 154.808594 90.496094 154.25 89.789062 C 153.253906 88.527344 153.472656 86.6875 154.742188 85.6875 L 184.757812 62.050781 L 154.742188 38.410156 C 153.472656 37.414062 153.253906 35.574219 154.25 34.3125 C 154.808594 33.601562 155.644531 33.199219 156.542969 33.199219 C 157.195312 33.199219 157.835938 33.417969 158.347656 33.824219 L 191.28125 59.753906 C 191.988281 60.316406 192.390625 61.148438 192.390625 62.050781 C 192.390625 62.949219 191.988281 63.785156 191.277344 64.34375 L 158.347656 90.277344 C 157.835938 90.683594 157.195312 90.902344 156.542969 90.902344 " fill-opacity="1" fill-rule="nonzero"/><g clip-path="url(#id1)"><path fill="rgb(85.099792%, 85.099792%, 85.099792%)" d="M 156.542969 31.953125 C 155.261719 31.953125 154.070312 32.53125 153.273438 33.542969 C 151.855469 35.347656 152.167969 37.96875 153.972656 39.390625 L 182.746094 62.050781 L 153.972656 84.710938 C 152.167969 86.128906 151.855469 88.753906 153.273438 90.554688 C 154.070312 91.5625 155.261719 92.144531 156.542969 92.144531 C 157.472656 92.144531 158.382812 91.828125 159.113281 91.253906 L 192.046875 65.324219 C 193.054688 64.527344 193.632812 63.332031 193.632812 62.050781 C 193.632812 60.765625 193.054688 59.578125 192.054688 58.777344 L 159.117188 32.84375 C 158.386719 32.269531 157.472656 31.953125 156.542969 31.953125 Z M 156.542969 34.441406 C 156.90625 34.441406 157.273438 34.554688 157.578125 34.800781 L 190.511719 60.734375 C 190.914062 61.050781 191.148438 61.535156 191.148438 62.050781 C 191.148438 62.5625 190.914062 63.050781 190.511719 63.367188 L 157.578125 89.300781 C 157.273438 89.546875 156.90625 89.660156 156.542969 89.660156 C 156.046875 89.660156 155.554688 89.441406 155.226562 89.019531 C 154.65625 88.292969 154.78125 87.238281 155.507812 86.664062 L 186.765625 62.050781 L 155.507812 37.433594 C 154.78125 36.863281 154.65625 35.808594 155.226562 35.078125 C 155.554688 34.660156 156.050781 34.441406 156.542969 34.441406 " fill-opacity="1" fill-rule="nonzero"/></g><path fill="rgb(100%, 100%, 100%)" d="M 118.453125 106.550781 C 118.089844 106.550781 117.738281 106.484375 117.398438 106.351562 C 116.671875 106.070312 116.097656 105.523438 115.785156 104.8125 C 115.464844 104.09375 115.453125 103.304688 115.730469 102.578125 L 147.894531 19.414062 C 148.328125 18.300781 149.417969 17.546875 150.613281 17.546875 C 150.976562 17.546875 151.332031 17.617188 151.671875 17.746094 C 153.164062 18.328125 153.917969 20.023438 153.335938 21.527344 L 121.175781 104.6875 C 120.742188 105.800781 119.644531 106.550781 118.453125 106.550781 " fill-opacity="1" fill-rule="nonzero"/><g clip-path="url(#id2)"><path fill="rgb(85.099792%, 85.099792%, 85.099792%)" d="M 150.613281 16.304688 C 148.90625 16.304688 147.347656 17.378906 146.738281 18.964844 L 114.570312 102.125 C 114.175781 103.164062 114.199219 104.292969 114.648438 105.3125 C 115.097656 106.328125 115.914062 107.113281 116.953125 107.511719 C 117.433594 107.699219 117.933594 107.796875 118.453125 107.796875 C 120.15625 107.796875 121.714844 106.726562 122.332031 105.136719 L 154.492188 21.972656 C 155.320312 19.832031 154.253906 17.414062 152.113281 16.589844 C 151.636719 16.398438 151.128906 16.304688 150.613281 16.304688 Z M 150.613281 18.792969 C 150.816406 18.792969 151.019531 18.832031 151.21875 18.90625 C 152.082031 19.238281 152.511719 20.210938 152.175781 21.074219 L 120.011719 104.234375 C 119.757812 104.902344 119.121094 105.308594 118.453125 105.308594 C 118.25 105.308594 118.042969 105.273438 117.847656 105.195312 C 116.980469 104.863281 116.554688 103.886719 116.890625 103.027344 L 149.050781 19.867188 C 149.308594 19.199219 149.941406 18.792969 150.613281 18.792969 " fill-opacity="1" fill-rule="nonzero"/></g></svg>