<svg xmlns="http://www.w3.org/2000/svg" xmlns:xlink="http://www.w3.org/1999/xlink" width="1920" zoomAndPan="magnify" viewBox="0 0 1440 809.999993" height="1080" preserveAspectRatio="xMidYMid meet" version="1.2"><defs><clipPath id="b15f337d2a"><path d="M 848 0 L 1440 0 L 1440 810 L 848 810 Z M 848 0 "/></clipPath><clipPath id="120b3c321f"><path d="M 816.335938 926.539062 L 939.589844 -171.3125 L 1604.414062 -96.675781 L 1481.15625 1001.179688 Z M 816.335938 926.539062 "/></clipPath><clipPath id="867965918f"><path d="M 816.335938 926.539062 L 939.589844 -171.3125 L 1604.414062 -96.675781 L 1481.15625 1001.179688 Z M 816.335938 926.539062 "/></clipPath><clipPath id="4143ade5c3"><path d="M 1092 567 L 1322 567 L 1322 656.753906 L 1092 656.753906 Z M 1092 567 "/></clipPath></defs><g id="c154cb4e3f"><rect x="0" width="1440" y="0" height="809.999993" style="fill:#ffffff;fill-opacity:1;stroke:none;"/><rect x="0" width="1440" y="0" height="809.999993" style="fill:#00c699;fill-opacity:1;stroke:none;"/><g clip-rule="nonzero" clip-path="url(#b15f337d2a)"><g clip-rule="nonzero" clip-path="url(#120b3c321f)"><g clip-rule="nonzero" clip-path="url(#867965918f)"><path style=" stroke:none;fill-rule:nonzero;fill:#fff9f9;fill-opacity:1;" d="M 1125.96875 -148.648438 C 1174.984375 -143.695312 1223.089844 -135.542969 1270.953125 -125.210938 C 1309.75 -117.550781 1349.152344 -110.375 1388.554688 -103.195312 C 1446.8125 -92.25 1504.703125 -78.039062 1561.5625 -59.535156 C 1589.175781 -50.378906 1594.125 -45.414062 1593.609375 -16.28125 C 1592.859375 5.117188 1588.300781 26.085938 1585.375 47.238281 C 1581.535156 76.550781 1577.632812 106.40625 1574.332031 135.777344 C 1570.613281 164.003906 1567.984375 192.347656 1563.175781 220.449219 C 1551.734375 288.015625 1540.230469 356.125 1528.246094 423.628906 C 1522.347656 456.566406 1517.050781 489.019531 1511.148438 521.957031 C 1502.207031 572.175781 1493.746094 623 1489.699219 673.773438 C 1484.3125 731.550781 1475.605469 789.507812 1463.148438 846.496094 C 1458.710938 866.378906 1455.304688 886.925781 1450.324219 906.746094 C 1446.558594 920.644531 1441.226562 933.816406 1435.832031 947.53125 C 1433.589844 952.785156 1428.203125 956.589844 1422.222656 955.917969 C 1401.851562 955.832031 1381.359375 956.835938 1360.503906 956.148438 C 1328.167969 954.722656 1295.890625 952.75 1263.617188 950.777344 C 1236.78125 949.417969 1210.066406 946.96875 1183.167969 946.152344 C 1161.226562 945.34375 1139.585938 946.769531 1117.644531 945.957031 C 1087.964844 945.378906 1058.347656 944.257812 1028.730469 943.136719 C 1002.984375 941.898438 977.234375 940.660156 951.546875 938.878906 C 925.800781 937.636719 900.476562 932.59375 876.128906 923.800781 C 871.355469 922.164062 867.1875 920.042969 863.019531 917.921875 C 852.503906 913.4375 846.59375 902.308594 848.964844 891.007812 C 853.957031 861.273438 858.945312 831.539062 863.394531 801.746094 C 867.289062 776.847656 871.792969 751.464844 875.144531 726.503906 C 885.449219 649.445312 891.882812 572.507812 897.292969 494.898438 C 900.605469 450.65625 905.550781 406.597656 908.804688 362.898438 C 912.183594 318.113281 915.011719 273.265625 917.363281 227.8125 C 919.523438 188.949219 922.226562 150.144531 923.296875 111.15625 C 923.753906 82.566406 923.183594 53.3125 923.640625 24.722656 C 924.191406 -34.152344 938.945312 -91.984375 965.78125 -144.601562 C 970.75 -154.507812 977.949219 -159.757812 989.433594 -159.019531 C 1030.351562 -155.527344 1070.242188 -152.703125 1125.96875 -148.648438 Z M 1125.96875 -148.648438 "/></g></g></g><path style=" stroke:none;fill-rule:nonzero;fill:#00c699;fill-opacity:1;" d="M 990.492188 361.351562 L 1338.878906 357.980469 C 1338.878906 357.980469 1331.800781 432.242188 1332.359375 458.980469 C 1333.035156 485.71875 1323.824219 547.847656 1318.878906 552.902344 C 1313.9375 557.957031 1315.285156 567.167969 1280.007812 577.953125 C 1244.617188 588.738281 1194.738281 593.683594 1094.859375 577.953125 C 994.984375 562.226562 974.089844 522.230469 974.089844 522.230469 C 974.089844 522.230469 979.03125 500.097656 979.144531 473.585938 C 979.144531 447.070312 992.738281 361.351562 992.738281 361.351562 "/><path style=" stroke:none;fill-rule:nonzero;fill:#00765b;fill-opacity:1;" d="M 968.472656 501.894531 C 967.910156 500.886719 967.460938 499.875 966.898438 498.976562 C 966.449219 498.078125 966.222656 497.175781 966 496.503906 C 966.898438 498.75 967.796875 500.324219 968.472656 501.894531 Z M 968.472656 501.894531 Z M 1336.628906 507.511719 C 1336.96875 507.175781 1337.304688 506.726562 1337.640625 506.503906 Z M 1335.957031 508.300781 L 1335.957031 508.636719 C 1333.820312 510.433594 1335.507812 509.085938 1333.261719 510.660156 C 1333.148438 510.660156 1333.597656 510.210938 1334.269531 509.648438 C 1334.945312 509.085938 1335.84375 508.300781 1336.628906 507.511719 C 1335.167969 508.863281 1333.597656 509.984375 1333.035156 510.546875 C 1331.460938 511.558594 1333.148438 510.320312 1331.238281 511.445312 C 1330.5625 511.894531 1329.777344 512.457031 1328.992188 512.90625 C 1328.09375 513.355469 1327.304688 513.804688 1326.40625 514.140625 C 1322.25 515.714844 1319.890625 516.839844 1315.734375 517.511719 L 1316.183594 517.398438 C 1314.722656 517.625 1311.800781 518.296875 1309.105469 518.410156 C 1309.890625 518.410156 1310.566406 518.410156 1308.992188 518.636719 C 1305.847656 518.859375 1303.710938 518.972656 1301.355469 518.859375 L 1299.105469 518.972656 C 1296.296875 518.972656 1291.578125 518.636719 1285.625 517.960938 C 1279.671875 517.289062 1272.59375 516.164062 1265.402344 515.378906 C 1258.210938 514.589844 1250.796875 514.253906 1244.394531 514.703125 C 1237.988281 515.039062 1232.820312 516.390625 1229.902344 517.175781 L 1230.351562 517.0625 C 1225.855469 518.296875 1220.464844 520.207031 1214.734375 522.566406 C 1209.003906 524.925781 1202.824219 527.625 1196.648438 529.535156 C 1184.175781 533.691406 1170.808594 535.152344 1162.042969 535.261719 C 1159.347656 535.152344 1155.527344 535.039062 1152.71875 534.703125 C 1154.292969 534.925781 1153.730469 534.925781 1152.496094 534.8125 C 1148.113281 534.476562 1148 534.363281 1147.886719 534.476562 C 1147.777344 534.476562 1147.550781 534.589844 1143.167969 533.914062 C 1140.699219 533.578125 1136.429688 532.792969 1131.375 531.441406 C 1126.316406 530.09375 1120.476562 528.183594 1114.632812 526.050781 C 1108.792969 523.917969 1102.949219 521.78125 1098.007812 520.097656 C 1092.949219 518.410156 1088.792969 517.175781 1086.546875 516.613281 C 1081.605469 515.601562 1075.199219 514.253906 1070.144531 514.140625 L 1070.707031 514.140625 C 1069.359375 514.03125 1066.4375 513.804688 1062.730469 513.917969 C 1059.023438 513.917969 1054.527344 514.140625 1050.035156 514.589844 C 1041.160156 515.378906 1032.285156 516.390625 1029.363281 516.726562 L 1030.148438 516.726562 C 1024.980469 517.289062 1025.65625 516.949219 1021.5 517.0625 C 1022.058594 517.289062 1017.566406 517.625 1015.882812 517.625 L 1015.992188 517.511719 C 1013.523438 517.511719 1007.792969 517.398438 1003.636719 516.613281 L 1003.859375 516.5 C 1002.175781 516.277344 999.703125 515.714844 997.457031 515.039062 C 995.210938 514.367188 993.074219 513.582031 991.953125 513.128906 C 989.367188 512.007812 986.222656 510.320312 983.1875 508.074219 C 980.15625 505.828125 977.347656 503.132812 975.210938 500.210938 C 974.3125 498.863281 973.863281 497.402344 973.191406 496.054688 L 972.851562 495.492188 C 972.851562 495.492188 970.941406 494.257812 969.257812 494.03125 C 968.472656 493.917969 967.683594 494.144531 967.347656 494.929688 C 967.234375 495.378906 967.121094 496.054688 967.234375 496.839844 C 967.347656 497.738281 967.570312 498.863281 968.132812 500.097656 L 967.910156 499.984375 L 969.03125 502.007812 C 970.492188 504.253906 971.390625 505.265625 971.167969 505.152344 L 969.03125 502.121094 C 970.605469 504.367188 969.371094 502.90625 968.695312 502.007812 C 969.371094 502.90625 969.929688 503.917969 970.492188 504.703125 C 970.832031 505.152344 970.269531 504.367188 970.042969 503.917969 C 970.832031 505.152344 972.402344 506.613281 973.527344 507.960938 C 975.550781 509.871094 973.527344 508.300781 975.886719 510.546875 C 982.402344 516.164062 990.042969 519.757812 998.019531 521.894531 C 1005.882812 524.140625 1014.308594 524.589844 1022.398438 524.140625 C 1022.734375 524.140625 1022.285156 524.253906 1021.835938 524.253906 C 1026.777344 524.027344 1031.046875 523.578125 1035.429688 523.128906 C 1036.664062 523.015625 1037.003906 523.128906 1037.339844 523.128906 C 1037.003906 523.128906 1042.957031 522.34375 1049.023438 521.78125 C 1052.058594 521.445312 1055.089844 521.21875 1057.335938 521.105469 C 1059.585938 520.996094 1061.15625 520.996094 1061.269531 520.996094 L 1061.605469 520.769531 C 1066.101562 520.769531 1062.953125 520.996094 1067.109375 521.105469 C 1067.898438 520.882812 1069.695312 521.105469 1071.378906 521.21875 C 1073.066406 521.445312 1074.75 521.667969 1075.425781 521.667969 C 1075.425781 521.667969 1077.445312 522.007812 1077.222656 522.117188 C 1077.894531 522.007812 1079.355469 522.457031 1080.59375 522.679688 C 1081.042969 522.679688 1080.253906 522.566406 1079.917969 522.457031 L 1082.839844 523.015625 C 1083.964844 523.355469 1084.1875 523.578125 1082.953125 523.242188 C 1084.863281 523.691406 1088.570312 524.703125 1093.0625 526.164062 C 1097.667969 527.625 1103.0625 529.644531 1108.566406 531.667969 C 1114.070312 533.691406 1119.6875 535.710938 1124.632812 537.171875 C 1129.464844 538.746094 1133.621094 539.53125 1135.753906 540.09375 C 1134.632812 539.644531 1131.933594 539.195312 1131.035156 538.632812 C 1133.394531 539.082031 1134.40625 539.417969 1135.417969 539.53125 C 1136.203125 540.09375 1140.472656 540.65625 1142.160156 541.21875 L 1142.832031 541.105469 L 1143.957031 541.441406 C 1149.125 542.003906 1149.6875 542.003906 1150.136719 542.003906 C 1150.585938 542.003906 1150.921875 542.226562 1155.527344 542.453125 C 1160.921875 542.679688 1163.390625 542.226562 1166.425781 542.226562 C 1165.976562 542.226562 1164.851562 542.117188 1166.199219 542.003906 C 1166.425781 542.226562 1169.910156 541.667969 1170.582031 541.777344 C 1171.929688 541.667969 1176.3125 541.21875 1174.738281 541.105469 C 1175.527344 541.21875 1179.34375 540.65625 1177.097656 541.105469 C 1178.445312 540.878906 1179.683594 540.878906 1180.582031 540.542969 C 1180.019531 540.65625 1179.457031 540.65625 1178.894531 540.769531 C 1183.277344 540.09375 1185.75 539.757812 1188.445312 538.96875 L 1186.761719 539.195312 C 1189.34375 538.632812 1191.480469 538.070312 1192.601562 538.070312 L 1190.019531 538.746094 C 1194.289062 537.734375 1196.871094 536.949219 1200.355469 535.601562 L 1199.117188 536.050781 C 1201.363281 535.261719 1208.105469 532.566406 1214.507812 529.757812 C 1220.914062 526.949219 1227.316406 524.589844 1229.226562 523.914062 L 1227.429688 524.253906 C 1228.554688 523.804688 1229.675781 523.464844 1230.6875 523.128906 C 1230.238281 523.242188 1229.226562 524.253906 1228.890625 524.253906 C 1230.6875 523.691406 1234.28125 522.566406 1239 521.894531 C 1243.71875 521.105469 1249.449219 520.882812 1255.292969 521.21875 C 1261.132812 521.445312 1266.976562 522.230469 1271.804688 522.90625 C 1276.636719 523.578125 1280.457031 524.140625 1282.253906 524.363281 C 1285.0625 524.816406 1282.703125 524.703125 1282.703125 524.816406 C 1286.1875 525.152344 1284.277344 524.816406 1287.199219 525.152344 C 1287.984375 525.265625 1286.972656 525.265625 1286.523438 525.265625 C 1287.871094 525.375 1289.109375 525.601562 1289.21875 525.488281 C 1287.535156 525.265625 1288.320312 525.039062 1287.648438 524.816406 C 1288.996094 524.925781 1290.230469 525.152344 1291.578125 525.152344 L 1291.355469 525.265625 C 1292.253906 525.375 1293.601562 525.039062 1297.421875 525.265625 C 1303.9375 525.488281 1311.015625 525.152344 1317.53125 523.691406 C 1317.417969 523.804688 1316.070312 524.140625 1314.722656 524.476562 C 1315.621094 524.363281 1316.96875 524.027344 1317.757812 523.914062 C 1316.183594 524.140625 1320.453125 523.242188 1319.214844 523.464844 C 1323.824219 522.007812 1330 519.984375 1333.597656 517.511719 C 1333.597656 517.398438 1333.933594 516.726562 1334.382812 515.828125 C 1334.832031 514.929688 1335.28125 513.578125 1335.730469 512.457031 C 1336.519531 509.984375 1336.96875 507.625 1336.855469 507.511719 "/><path style=" stroke:none;fill-rule:nonzero;fill:#003d2f;fill-opacity:1;" d="M 986.785156 420.78125 C 987.90625 423.140625 988.804688 425.5 989.03125 428.085938 C 991.277344 430.21875 990.714844 433.703125 992.960938 435.722656 C 993.300781 435.949219 993.410156 436.511719 993.523438 436.847656 C 993.972656 437.859375 994.648438 438.871094 994.871094 439.992188 C 995.210938 441.902344 997.230469 443.027344 997.007812 445.160156 C 996.894531 445.949219 997.792969 446.734375 998.242188 447.519531 C 999.253906 449.207031 1007.230469 466.507812 1007.457031 467.855469 C 1007.003906 468.867188 1006.554688 470.328125 1005.769531 471.5625 C 1004.757812 473.023438 1002.960938 473.472656 1001.277344 473.585938 C 996.78125 473.921875 993.859375 471.5625 991.839844 467.742188 C 991.050781 466.28125 990.152344 465.046875 989.367188 463.585938 C 989.03125 462.910156 988.804688 462.125 988.46875 461.453125 C 987.90625 460.328125 987.121094 459.316406 986.222656 457.855469 C 986.335938 457.742188 986.558594 457.070312 986.785156 456.394531 C 986.445312 456.285156 986.222656 456.171875 985.996094 456.058594 C 985.210938 455.496094 984.085938 455.160156 983.636719 454.484375 C 981.953125 451.453125 970.492188 426.511719 969.59375 423.703125 C 968.359375 420.21875 967.234375 416.738281 966.113281 413.140625 C 964.761719 408.3125 959.933594 391.121094 959.257812 387.300781 C 958.585938 383.820312 957.011719 372.808594 956.449219 372.808594 C 956.785156 369.441406 953.976562 358.65625 953.640625 356.632812 C 953.304688 354.609375 952.179688 352.476562 953.191406 350.339844 C 951.617188 348.878906 952.070312 346.410156 950.496094 344.722656 C 948.585938 342.8125 947.800781 340.117188 947.574219 337.308594 C 947.460938 336.296875 947.460938 335.175781 947.460938 334.164062 C 947.460938 332.925781 948.023438 332.253906 949.371094 331.914062 C 952.96875 331.015625 952.855469 330.90625 953.191406 327.199219 C 953.304688 325.738281 953.640625 324.390625 953.867188 322.929688 C 954.089844 321.691406 954.765625 320.679688 956.113281 320.570312 C 957.574219 320.457031 959.820312 321.804688 960.269531 323.039062 C 960.605469 323.9375 960.832031 324.949219 961.167969 325.847656 C 961.28125 326.074219 961.503906 326.1875 961.730469 326.410156 C 963.078125 326.523438 963.191406 325.289062 963.863281 324.5 C 965.550781 322.480469 968.921875 322.140625 970.71875 324.050781 C 971.054688 324.390625 971.28125 325.0625 971.390625 325.625 C 971.617188 326.972656 971.839844 328.320312 972.066406 329.894531 C 972.964844 329.78125 973.75 329.78125 974.425781 329.667969 C 977.347656 329.445312 979.03125 331.578125 978.019531 334.386719 C 977.570312 335.734375 977.007812 337.082031 976.449219 338.433594 C 975.4375 340.453125 971.503906 345.058594 970.832031 345.511719 C 970.71875 346.632812 970.71875 350.789062 970.832031 351.914062 C 970.941406 352.8125 972.851562 370.113281 972.964844 372.921875 C 972.964844 373.371094 974.425781 380.335938 975.097656 383.371094 C 975.660156 386.179688 983.414062 410.222656 983.527344 411.570312 C 983.75 412.917969 986.335938 419.660156 986.785156 420.78125 Z M 984.648438 445.835938 C 984.199219 444.824219 983.75 444.148438 982.515625 444.710938 C 982.851562 445.835938 983.414062 446.285156 984.648438 445.835938 Z M 1003.410156 465.046875 C 1003.636719 464.933594 1003.859375 464.933594 1003.972656 464.820312 C 1003.859375 464.484375 1003.859375 464.035156 1003.636719 463.699219 C 1003.523438 463.472656 1003.1875 463.359375 1002.511719 463.023438 C 1002.960938 464.035156 1003.1875 464.484375 1003.410156 465.046875 Z M 969.257812 340.902344 C 969.03125 341.242188 968.695312 341.464844 968.582031 341.691406 C 968.582031 341.800781 969.03125 342.140625 969.03125 342.140625 C 969.371094 341.914062 969.59375 341.691406 969.929688 341.351562 C 969.707031 341.242188 969.480469 341.128906 969.257812 340.902344 Z M 989.929688 443.25 C 989.703125 443.589844 989.59375 443.8125 989.59375 443.925781 C 989.59375 444.148438 989.929688 444.261719 990.042969 444.375 C 990.152344 444.148438 990.378906 443.925781 990.492188 443.699219 C 990.492188 443.699219 990.152344 443.476562 989.929688 443.25 Z M 1004.871094 468.753906 C 1004.871094 468.640625 1004.757812 468.527344 1004.757812 468.417969 C 1004.421875 468.417969 1004.085938 468.417969 1003.859375 468.640625 C 1003.523438 468.867188 1003.410156 469.203125 1003.1875 469.429688 C 1003.296875 469.539062 1003.410156 469.539062 1003.410156 469.652344 C 1003.859375 469.316406 1004.308594 469.089844 1004.871094 468.753906 Z M 979.929688 437.183594 C 979.929688 437.070312 979.929688 436.847656 979.816406 436.734375 C 979.367188 436.847656 978.808594 436.847656 978.359375 436.960938 C 978.359375 437.070312 978.359375 437.183594 978.359375 437.296875 C 978.917969 437.296875 979.480469 437.183594 979.929688 437.183594 Z M 1343.484375 452.464844 C 1343.597656 452.238281 1346.40625 450.777344 1347.191406 450.105469 C 1349.214844 448.195312 1350.785156 445.835938 1352.921875 444.148438 C 1354.832031 442.578125 1364.378906 432.464844 1364.492188 432.242188 C 1365.054688 430.445312 1383.929688 402.132812 1385.277344 401.570312 C 1385.726562 401.347656 1390.78125 393.707031 1391.230469 393.03125 C 1392.464844 391.011719 1394.488281 390.335938 1396.511719 389.4375 C 1398.195312 388.652344 1400.21875 388.425781 1401.230469 386.515625 C 1403.925781 386.851562 1404.039062 384.382812 1405.273438 383.035156 C 1406.621094 381.574219 1405.949219 380.226562 1405.609375 378.425781 C 1403.925781 378.425781 1402.351562 378.425781 1400.332031 378.425781 C 1401.902344 377.191406 1402.464844 371.574219 1402.578125 369.890625 C 1402.691406 369.890625 1402.351562 365.957031 1399.769531 366.070312 C 1398.757812 366.070312 1397.859375 366.519531 1396.960938 366.855469 C 1394.9375 367.53125 1393.589844 363.710938 1393.589844 363.261719 C 1393.589844 362.25 1392.578125 361.351562 1391.457031 361.238281 C 1390.558594 361.125 1389.996094 361.351562 1389.769531 362.472656 C 1389.65625 363.148438 1386.0625 365.507812 1385.277344 366.632812 C 1384.265625 368.089844 1383.253906 368.203125 1381.90625 367.082031 C 1380.78125 366.292969 1378.761719 366.292969 1378.199219 367.304688 C 1376.960938 369.777344 1375.277344 372.136719 1375.726562 375.167969 C 1376.175781 378.988281 1375.953125 382.921875 1373.816406 386.402344 C 1372.917969 387.863281 1372.246094 389.4375 1371.457031 390.898438 C 1370.445312 392.808594 1369.433594 394.71875 1368.199219 396.515625 C 1367.078125 398.3125 1366.515625 400.558594 1364.605469 402.019531 C 1364.042969 402.46875 1363.707031 403.367188 1363.257812 404.042969 C 1362.695312 404.941406 1362.246094 405.953125 1361.796875 406.851562 C 1359.886719 410.445312 1357.640625 413.816406 1355.953125 417.523438 C 1353.480469 422.917969 1350.335938 427.746094 1346.066406 432.015625 C 1343.933594 434.152344 1342.136719 436.398438 1339.550781 438.082031 C 1337.867188 439.207031 1336.628906 440.78125 1335.167969 442.351562 C 1334.945312 442.578125 1335.167969 443.363281 1335.167969 443.8125 C 1334.496094 444.148438 1333.710938 444.488281 1333.035156 444.9375 C 1331.351562 446.058594 1329.777344 447.296875 1329.441406 449.429688 C 1328.992188 453.023438 1334.160156 457.519531 1335.394531 457.519531 C 1337.640625 457.519531 1343.035156 454.710938 1343.484375 452.464844 Z M 982.515625 444.710938 C 982.851562 445.835938 983.414062 446.285156 984.648438 445.835938 C 984.199219 444.824219 983.75 444.039062 982.515625 444.710938 Z M 1003.972656 464.820312 C 1003.859375 464.484375 1003.859375 464.035156 1003.636719 463.699219 C 1003.523438 463.472656 1003.1875 463.359375 1002.511719 463.023438 C 1002.960938 464.035156 1003.1875 464.597656 1003.410156 465.046875 C 1003.636719 464.933594 1003.859375 464.820312 1003.972656 464.820312 Z M 968.582031 341.691406 C 968.582031 341.800781 969.03125 342.140625 969.03125 342.140625 C 969.371094 341.914062 969.59375 341.691406 969.929688 341.351562 C 969.707031 341.242188 969.59375 341.015625 969.257812 340.902344 C 968.921875 341.128906 968.695312 341.351562 968.582031 341.691406 Z M 989.59375 443.925781 C 989.59375 444.148438 989.929688 444.261719 990.042969 444.375 C 990.152344 444.148438 990.378906 443.925781 990.492188 443.699219 C 990.492188 443.589844 990.152344 443.476562 989.929688 443.25 C 989.816406 443.589844 989.59375 443.8125 989.59375 443.925781 Z M 1004.757812 468.417969 C 1004.421875 468.417969 1004.085938 468.417969 1003.859375 468.640625 C 1003.523438 468.867188 1003.410156 469.203125 1003.1875 469.429688 C 1003.296875 469.539062 1003.410156 469.539062 1003.410156 469.652344 C 1003.859375 469.316406 1004.421875 469.089844 1004.871094 468.753906 C 1004.757812 468.640625 1004.757812 468.527344 1004.757812 468.417969 Z M 979.816406 436.734375 C 979.367188 436.847656 978.808594 436.847656 978.359375 436.960938 C 978.359375 437.070312 978.359375 437.183594 978.359375 437.296875 C 978.808594 437.296875 979.367188 437.183594 979.816406 437.183594 C 979.929688 437.070312 979.929688 436.847656 979.816406 436.734375 Z M 979.816406 436.734375 "/><path style=" stroke:none;fill-rule:nonzero;fill:#003d2f;fill-opacity:1;" d="M 1038.6875 480.773438 C 1038.125 479.316406 1037.675781 478.191406 1037.453125 477.179688 C 1036.890625 473.023438 1036.328125 468.753906 1035.878906 464.597656 C 1035.203125 459.203125 1034.417969 453.699219 1033.746094 448.308594 C 1033.519531 446.285156 1033.40625 444.148438 1033.292969 442.128906 C 1032.734375 436.0625 1031.945312 429.882812 1031.722656 423.816406 C 1031.609375 420.21875 1030.710938 416.738281 1031.046875 413.140625 C 1031.273438 411.570312 1030.375 409.773438 1029.8125 408.085938 C 1029.25 406.402344 1029.699219 405.054688 1030.824219 403.707031 C 1032.957031 401.121094 1035.992188 401.121094 1038.914062 400.558594 C 1040.710938 400.222656 1042.28125 399.773438 1043.96875 398.988281 C 1046.328125 397.863281 1049.136719 397.414062 1051.605469 396.515625 C 1054.753906 395.503906 1058.125 395.28125 1061.042969 393.707031 C 1061.15625 393.707031 1061.269531 393.59375 1061.269531 393.59375 C 1065.089844 394.042969 1068.121094 391.011719 1071.941406 391.121094 C 1073.179688 391.121094 1074.300781 390.449219 1075.539062 390.113281 C 1077.445312 389.4375 1079.46875 388.761719 1081.605469 388.539062 C 1081.378906 388.875 1081.265625 389.210938 1080.929688 389.4375 C 1071.828125 395.28125 1062.617188 401.007812 1053.515625 406.964844 C 1050.371094 408.984375 1047.226562 411.234375 1044.417969 413.703125 C 1043.519531 414.492188 1043.070312 416.175781 1042.84375 417.523438 C 1042.171875 422.355469 1042.171875 427.1875 1042.394531 432.015625 C 1042.730469 439.429688 1042.957031 446.734375 1042.84375 454.148438 C 1042.730469 458.753906 1041.832031 463.25 1041.273438 467.855469 C 1041.160156 468.753906 1041.160156 469.652344 1040.933594 470.550781 C 1040.484375 473.472656 1040.035156 476.394531 1039.472656 479.316406 C 1039.699219 479.652344 1039.25 479.988281 1038.6875 480.773438 Z M 1197.097656 337.195312 C 1198.105469 336.632812 1198.554688 335.960938 1198.667969 334.949219 C 1198.78125 334.164062 1199.117188 333.375 1199.34375 332.703125 C 1200.914062 333.152344 1203.164062 332.476562 1203.613281 331.242188 C 1204.0625 329.78125 1205.296875 329.554688 1206.195312 328.769531 C 1205.859375 327.757812 1205.523438 326.859375 1206.53125 326.074219 C 1207.320312 325.398438 1207.882812 324.277344 1207.65625 322.929688 C 1207.542969 322.140625 1207.769531 321.242188 1208.105469 320.570312 C 1209.230469 317.984375 1208.667969 315.511719 1207.992188 312.929688 C 1207.542969 311.355469 1207.207031 309.785156 1206.984375 308.210938 C 1206.871094 307.425781 1206.871094 306.636719 1206.871094 305.964844 C 1205.746094 305.964844 1204.960938 305.964844 1203.949219 305.964844 C 1204.0625 307.984375 1203.164062 309.558594 1201.703125 310.683594 C 1200.578125 311.582031 1199.679688 312.480469 1199.230469 313.828125 C 1199.117188 314.277344 1198.667969 314.726562 1198.445312 315.0625 C 1197.207031 316.636719 1195.296875 317.871094 1195.859375 320.34375 C 1195.859375 320.570312 1195.410156 320.792969 1195.296875 321.128906 C 1194.625 322.253906 1194.0625 323.378906 1195.074219 324.5 C 1194.175781 324.949219 1192.714844 325.398438 1192.601562 325.960938 C 1192.378906 327.535156 1191.253906 328.207031 1190.355469 329.332031 C 1190.128906 329.554688 1189.792969 330.007812 1189.90625 330.230469 C 1190.691406 331.804688 1189.34375 332.476562 1188.558594 333.375 C 1187.433594 334.613281 1186.984375 335.960938 1187.882812 337.535156 C 1190.242188 337.644531 1192.378906 337.871094 1193.949219 340.117188 C 1195.074219 338.882812 1195.972656 337.757812 1197.097656 337.195312 Z M 1197.097656 337.195312 "/><path style=" stroke:none;fill-rule:nonzero;fill:#00765b;fill-opacity:1;" d="M 1217.320312 305.515625 C 1217.320312 305.515625 1261.132812 301.46875 1304.386719 322.929688 C 1347.640625 344.386719 1344.496094 360.003906 1325.957031 387.414062 C 1307.53125 414.714844 1224.171875 430.78125 1178.222656 434.601562 C 1132.273438 438.421875 1096.433594 436.0625 1044.53125 413.589844 C 992.625 391.121094 962.964844 357.417969 1032.171875 328.996094 C 1101.375 300.570312 1203.949219 305.964844 1203.949219 305.964844 L 1208.105469 312.929688 Z M 1217.320312 305.515625 "/><path style=" stroke:none;fill-rule:nonzero;fill:#fff9f9;fill-opacity:1;" d="M 1087.332031 407.414062 C 1093.0625 406.625 1128.453125 413.140625 1136.542969 416.175781 C 1144.519531 419.320312 1142.269531 420.558594 1142.496094 427.074219 C 1142.71875 433.589844 1143.058594 447.746094 1141.148438 457.519531 C 1139.351562 467.40625 1135.191406 476.957031 1132.832031 477.40625 C 1130.476562 477.855469 1106.207031 477.40625 1094.074219 472.796875 C 1081.941406 468.191406 1073.851562 466.621094 1072.617188 460.101562 C 1071.269531 453.585938 1072.839844 439.429688 1074.636719 429.546875 C 1078.234375 410.78125 1081.605469 408.199219 1087.332031 407.414062 Z M 1222.824219 424.488281 C 1220.914062 434.261719 1223.273438 456.285156 1224.621094 462.800781 C 1225.96875 469.316406 1228.554688 468.980469 1240.6875 473.695312 C 1252.820312 478.304688 1277.535156 478.414062 1279.894531 477.855469 C 1282.253906 477.292969 1297.984375 474.933594 1299.894531 465.160156 C 1301.691406 455.273438 1306.859375 430.445312 1306.519531 423.925781 C 1306.296875 417.410156 1305.0625 399.324219 1297.085938 396.179688 C 1289.109375 393.03125 1241.25 401.570312 1235.519531 402.355469 C 1229.902344 403.03125 1226.53125 405.613281 1222.824219 424.488281 Z M 1222.824219 424.488281 "/><path style=" stroke:none;fill-rule:nonzero;fill:#003d2f;fill-opacity:1;" d="M 1293.488281 396.738281 C 1292.476562 397.1875 1291.804688 397.527344 1291.128906 397.863281 C 1290.457031 398.199219 1271.355469 396.402344 1269.898438 395.953125 C 1266.636719 394.941406 1258.773438 390.5625 1257.875 389.886719 C 1256.191406 388.539062 1256.300781 385.054688 1255.742188 384.269531 C 1255.066406 383.144531 1255.964844 382.472656 1256.414062 381.574219 C 1256.863281 380.898438 1257.089844 380 1257.539062 379.324219 C 1258.4375 377.527344 1291.128906 376.855469 1293.378906 377.304688 C 1295.960938 377.867188 1298.65625 378.425781 1300.902344 379.777344 C 1302.363281 380.675781 1303.261719 382.695312 1303.9375 384.382812 C 1305.171875 387.300781 1303.824219 391.910156 1301.355469 393.929688 C 1300.117188 394.941406 1298.882812 396.066406 1297.085938 396.179688 C 1296.410156 396.179688 1295.847656 397.078125 1295.175781 397.527344 C 1294.5 397.75 1293.039062 397.636719 1293.488281 396.738281 Z M 1259.222656 383.144531 C 1258.210938 384.832031 1258.324219 385.054688 1260.460938 386.066406 C 1260.121094 385.28125 1259.785156 384.382812 1259.222656 383.144531 Z M 1297.308594 388.203125 C 1296.859375 386.402344 1296.859375 386.402344 1295.398438 386.628906 C 1295.960938 387.078125 1296.410156 387.414062 1297.308594 388.203125 Z M 1120.925781 385.28125 C 1122.609375 385.054688 1124.296875 386.292969 1124.519531 387.976562 C 1124.96875 391.234375 1125.082031 394.378906 1122.386719 396.964844 C 1121.9375 399.660156 1119.128906 399.886719 1117.441406 401.121094 C 1116.65625 401.683594 1115.195312 401.457031 1114.070312 401.457031 C 1113.0625 401.457031 1112.386719 401.457031 1112.050781 402.804688 C 1111.824219 403.59375 1110.8125 404.605469 1109.351562 404.378906 C 1107.78125 404.042969 1106.207031 404.605469 1104.746094 405.503906 C 1103.734375 406.066406 1102.386719 406.289062 1101.152344 406.515625 C 1100.367188 406.625 1100.140625 405.503906 1099.019531 405.390625 C 1096.433594 405.390625 1093.960938 405.726562 1091.492188 406.066406 C 1088.230469 406.515625 1085.421875 405.953125 1083.402344 403.144531 C 1082.726562 402.246094 1081.941406 401.570312 1081.378906 400.671875 C 1080.367188 399.097656 1079.695312 397.636719 1080.367188 395.617188 C 1080.816406 394.269531 1080.59375 392.582031 1080.816406 391.121094 C 1081.15625 389.324219 1081.828125 387.863281 1084.074219 387.300781 C 1085.648438 386.964844 1087.109375 385.84375 1088.570312 385.054688 C 1089.46875 384.492188 1090.140625 383.820312 1091.265625 384.382812 C 1091.378906 384.492188 1091.714844 384.492188 1091.714844 384.492188 C 1092.949219 382.359375 1095.085938 383.371094 1096.769531 382.921875 C 1100.140625 382.023438 1103.625 382.246094 1106.996094 382.246094 C 1110.363281 382.246094 1113.847656 382.585938 1117.21875 382.585938 C 1119.351562 382.359375 1120.589844 383.257812 1120.925781 385.28125 Z M 1116.992188 387.414062 C 1118.339844 387.753906 1118.230469 390 1120.140625 389.660156 C 1121.488281 389.4375 1122.273438 391.460938 1124.183594 390.5625 C 1121.824219 388.988281 1119.914062 387.300781 1116.992188 387.414062 Z M 1110.027344 401.570312 C 1109.914062 401.457031 1109.691406 401.347656 1109.578125 401.234375 C 1109.351562 401.683594 1109.242188 402.132812 1109.015625 402.46875 C 1109.128906 402.46875 1109.242188 402.582031 1109.351562 402.582031 C 1109.578125 402.246094 1109.804688 401.90625 1110.027344 401.570312 Z M 1260.460938 386.066406 C 1260.121094 385.167969 1259.785156 384.382812 1259.222656 383.144531 C 1258.210938 384.832031 1258.324219 385.054688 1260.460938 386.066406 Z M 1295.398438 386.628906 C 1295.960938 387.078125 1296.410156 387.527344 1297.308594 388.203125 C 1296.746094 386.402344 1296.746094 386.402344 1295.398438 386.628906 Z M 1120.140625 389.660156 C 1121.488281 389.4375 1122.273438 391.460938 1124.183594 390.5625 C 1121.824219 388.988281 1119.914062 387.191406 1116.992188 387.414062 C 1118.339844 387.753906 1118.230469 390 1120.140625 389.660156 Z M 1109.578125 401.234375 C 1109.351562 401.683594 1109.242188 402.132812 1109.015625 402.46875 C 1109.128906 402.46875 1109.242188 402.582031 1109.351562 402.582031 C 1109.578125 402.246094 1109.804688 401.90625 1110.027344 401.570312 C 1109.914062 401.457031 1109.804688 401.347656 1109.578125 401.234375 Z M 1109.578125 401.234375 "/><path style=" stroke:none;fill-rule:nonzero;fill:#003d2f;fill-opacity:1;" d="M 1229.789062 438.980469 C 1230.238281 437.859375 1229.113281 436.398438 1230.125 434.9375 C 1228.664062 433.703125 1230.238281 432.128906 1229.5625 430.667969 C 1229.339844 430.332031 1229.675781 429.65625 1229.789062 429.207031 C 1229.902344 428.644531 1230.238281 428.195312 1230.238281 427.636719 C 1230.464844 425.050781 1230.6875 422.46875 1230.914062 419.996094 C 1231.023438 419.320312 1231.136719 418.535156 1231.363281 417.859375 C 1231.8125 415.726562 1233.046875 413.929688 1233.046875 411.570312 C 1233.046875 409.660156 1234.507812 408.761719 1236.191406 408.3125 C 1237.988281 407.75 1239.789062 407.1875 1241.585938 406.738281 C 1242.707031 406.402344 1243.945312 405.953125 1244.507812 407.972656 C 1245.066406 406.175781 1245.964844 405.953125 1247.089844 405.953125 C 1248.550781 406.066406 1249.785156 406.175781 1251.132812 405.054688 C 1253.042969 403.480469 1258.886719 404.15625 1260.683594 405.953125 C 1261.46875 406.738281 1261.921875 407.972656 1262.371094 408.984375 C 1264.277344 414.265625 1264.167969 419.660156 1262.820312 424.9375 C 1262.03125 428.195312 1261.695312 431.566406 1260.570312 434.824219 C 1258.660156 440.105469 1254.617188 442.351562 1249.675781 443.027344 C 1246.304688 443.476562 1242.820312 443.363281 1239.449219 443.027344 C 1235.855469 442.691406 1232.484375 441.902344 1229.789062 438.980469 Z M 1082.503906 443.476562 C 1085.199219 444.488281 1087.894531 445.5 1090.929688 444.710938 C 1093.625 444.039062 1096.433594 443.925781 1099.128906 443.363281 C 1102.277344 442.691406 1105.535156 441.789062 1107.21875 438.53125 C 1107.78125 437.410156 1108.34375 436.285156 1108.902344 435.164062 C 1111.601562 429.207031 1113.621094 423.027344 1114.859375 416.625 C 1115.195312 415.164062 1114.410156 413.480469 1113.285156 413.253906 C 1110.253906 412.582031 1107.332031 412.132812 1104.296875 411.570312 C 1103.734375 411.457031 1102.949219 411.683594 1102.5 411.34375 C 1100.925781 409.882812 1098.90625 409.773438 1096.996094 409.660156 C 1093.960938 409.546875 1090.929688 409.660156 1087.894531 409.773438 C 1086.546875 409.773438 1085.535156 410.445312 1084.636719 411.457031 C 1083.0625 413.253906 1083.0625 415.390625 1082.613281 417.523438 C 1081.941406 420.332031 1081.492188 423.253906 1080.480469 425.949219 C 1079.246094 429.207031 1079.132812 432.804688 1078.347656 436.0625 C 1078.347656 436.171875 1078.347656 436.398438 1078.457031 436.621094 C 1078.457031 439.542969 1079.46875 442.351562 1082.503906 443.476562 Z M 1204.734375 461.226562 C 1205.183594 459.652344 1204.175781 458.53125 1203.5 457.40625 C 1202.714844 455.945312 1200.914062 456.394531 1199.566406 456.507812 C 1195.746094 456.84375 1191.816406 457.292969 1187.996094 457.519531 C 1183.726562 457.855469 1179.34375 457.742188 1175.074219 458.195312 C 1168.671875 458.753906 1162.382812 458.753906 1156.089844 456.84375 C 1154.628906 456.394531 1153.394531 457.183594 1152.382812 458.082031 C 1151.371094 459.09375 1151.597656 460.441406 1152.15625 461.5625 C 1153.28125 464.035156 1155.304688 465.496094 1158 465.832031 C 1158.222656 465.832031 1158.335938 465.945312 1158.449219 465.945312 C 1160.132812 467.40625 1162.15625 467.070312 1164.179688 467.070312 C 1164.851562 467.070312 1165.976562 467.292969 1166.089844 467.628906 C 1166.648438 469.652344 1168.335938 468.980469 1169.121094 468.417969 C 1170.132812 467.742188 1171.03125 467.96875 1171.929688 468.078125 C 1175.074219 468.867188 1178.222656 468.304688 1181.367188 468.078125 C 1183.503906 467.855469 1185.636719 467.292969 1187.769531 467.179688 C 1192.039062 466.84375 1196.085938 465.832031 1199.90625 464.035156 C 1201.363281 463.363281 1202.9375 462.910156 1204.734375 462.238281 C 1204.734375 461.902344 1204.625 461.5625 1204.734375 461.226562 Z M 1204.734375 461.226562 "/><path style=" stroke:none;fill-rule:nonzero;fill:#fff9f9;fill-opacity:1;" d="M 1164.402344 459.203125 C 1165.300781 459.09375 1172.71875 457.519531 1174.066406 458.082031 C 1175.300781 458.644531 1175.527344 461.902344 1175.527344 463.136719 C 1175.527344 464.371094 1174.738281 468.867188 1174.515625 470.664062 C 1174.175781 472.460938 1171.816406 472.910156 1171.367188 473.023438 C 1171.03125 473.136719 1167.097656 473.136719 1165.191406 472.238281 C 1163.28125 471.335938 1162.832031 471.449219 1162.71875 470.214844 C 1162.492188 469.089844 1162.15625 465.046875 1162.492188 463.25 C 1163.054688 459.765625 1163.503906 459.316406 1164.402344 459.203125 Z M 1178.222656 462.800781 C 1177.886719 464.597656 1178.335938 468.527344 1178.445312 469.765625 C 1178.671875 470.886719 1179.007812 470.886719 1180.917969 471.789062 C 1182.828125 472.6875 1186.648438 472.6875 1187.097656 472.574219 C 1187.433594 472.460938 1189.90625 472.011719 1190.242188 470.214844 C 1190.578125 468.417969 1191.367188 463.921875 1191.253906 462.6875 C 1191.253906 461.453125 1191.03125 458.191406 1189.792969 457.632812 C 1188.558594 457.070312 1181.03125 458.644531 1180.132812 458.753906 C 1179.234375 458.867188 1178.785156 459.316406 1178.222656 462.800781 Z M 1178.222656 462.800781 "/><g clip-rule="nonzero" clip-path="url(#4143ade5c3)"><path style=" stroke:none;fill-rule:nonzero;fill:#003d2f;fill-opacity:1;" d="M 1189.679688 627.613281 C 1190.46875 628.847656 1190.917969 630.082031 1191.703125 630.757812 C 1193.164062 631.992188 1193.386719 633.679688 1193.386719 635.140625 C 1193.277344 638.847656 1193.613281 642.667969 1191.816406 646.148438 C 1191.589844 646.597656 1192.039062 647.382812 1191.816406 647.945312 C 1190.804688 650.53125 1189.90625 653.339844 1187.433594 654.6875 C 1185.972656 655.472656 1184.175781 655.921875 1182.492188 656.148438 C 1179.792969 656.484375 1177.210938 656.035156 1174.738281 654.460938 C 1173.277344 653.5625 1171.59375 653.113281 1170.132812 652.441406 C 1169.121094 651.992188 1168.222656 651.316406 1167.4375 650.644531 C 1165.414062 649.070312 1163.390625 647.609375 1161.480469 646.035156 C 1158.671875 643.675781 1155.863281 641.316406 1153.054688 638.847656 C 1148.785156 635.027344 1144.40625 631.207031 1140.136719 627.273438 C 1138 625.253906 1136.09375 623.003906 1133.957031 620.871094 C 1131.824219 618.738281 1129.6875 616.714844 1127.554688 614.578125 C 1126.09375 613.007812 1124.746094 611.433594 1123.285156 609.859375 C 1122.835938 609.300781 1122.273438 608.851562 1121.710938 608.402344 C 1117.332031 605.367188 1114.183594 600.875 1110.363281 597.277344 C 1110.140625 597.054688 1109.804688 596.714844 1109.691406 596.378906 C 1109.242188 594.582031 1107.894531 593.457031 1106.542969 592.109375 C 1107.105469 592.109375 1107.554688 592.222656 1108.117188 592.222656 C 1108.117188 591.996094 1108.230469 591.773438 1108.117188 591.773438 C 1107.332031 591.210938 1106.542969 590.3125 1105.757812 590.3125 C 1103.847656 590.089844 1102.726562 588.851562 1101.714844 587.503906 C 1099.46875 584.359375 1097.109375 581.101562 1094.75 577.953125 C 1093.625 576.382812 1093.0625 574.695312 1092.949219 572.898438 C 1092.839844 572 1093.398438 571.328125 1094.074219 570.652344 C 1097.894531 566.832031 1102.613281 567.730469 1107.105469 568.179688 C 1108.792969 568.292969 1110.363281 569.867188 1111.824219 571.101562 C 1113.960938 572.898438 1116.09375 574.921875 1118.003906 577.054688 C 1120.8125 579.976562 1123.507812 583.234375 1126.429688 586.042969 C 1127.777344 587.28125 1135.082031 594.246094 1137.328125 595.59375 C 1137.777344 595.816406 1141.710938 600.425781 1143.28125 602.332031 C 1143.507812 602.671875 1149.796875 607.050781 1152.15625 609.410156 C 1152.605469 609.859375 1161.929688 619.859375 1163.390625 619.859375 C 1163.730469 619.859375 1170.46875 625.027344 1172.941406 627.949219 C 1173.726562 628.847656 1175.1875 628.734375 1176.085938 627.835938 C 1176.425781 627.5 1176.535156 627.050781 1176.875 626.714844 C 1177.773438 625.925781 1178.671875 624.691406 1179.457031 624.691406 C 1181.929688 624.691406 1184.738281 623.90625 1186.984375 625.8125 C 1187.882812 626.601562 1188.894531 627.164062 1189.679688 627.613281 Z M 1107.445312 582 C 1107.445312 582.222656 1107.445312 582.449219 1107.445312 582.5625 C 1108.117188 582.5625 1108.679688 582.5625 1109.351562 582.5625 C 1109.351562 582.449219 1109.351562 582.222656 1109.351562 582.113281 C 1108.679688 582.113281 1108.003906 582.113281 1107.445312 582 Z M 1225.855469 580.203125 C 1226.644531 579.304688 1227.429688 578.515625 1228.214844 577.730469 C 1229.113281 576.945312 1230.125 576.15625 1231.136719 575.484375 C 1231.699219 575.144531 1232.484375 574.921875 1233.160156 574.695312 C 1233.722656 574.585938 1234.28125 574.695312 1234.730469 574.585938 C 1237.429688 573.796875 1239.789062 574.921875 1241.921875 576.269531 C 1244.058594 577.617188 1246.417969 578.964844 1247.425781 581.660156 C 1247.875 582.785156 1249.785156 582.113281 1249.785156 583.683594 C 1252.035156 585.257812 1259.785156 592.222656 1261.132812 593.234375 C 1262.371094 594.019531 1266.300781 596.492188 1266.527344 597.164062 C 1267.085938 598.738281 1272.03125 602.671875 1273.265625 604.019531 C 1273.714844 604.46875 1274.054688 605.140625 1274.613281 605.253906 C 1276.300781 605.816406 1279.78125 609.75 1280.570312 610.421875 C 1282.703125 612.21875 1302.703125 629.410156 1305.0625 631.320312 C 1306.410156 630.53125 1307.308594 629.972656 1308.320312 629.296875 C 1309.332031 628.734375 1310.230469 628.171875 1311.015625 627.613281 C 1312.25 627.835938 1313.375 627.835938 1314.5 628.171875 C 1315.398438 628.398438 1316.40625 628.847656 1316.96875 629.523438 C 1318.542969 631.207031 1319.890625 633.117188 1321.125 635.027344 C 1321.574219 635.589844 1321.800781 636.261719 1321.914062 637.050781 C 1322.136719 638.285156 1320.566406 652.214844 1319.667969 653.5625 C 1319.214844 653.339844 1318.878906 653.113281 1318.65625 653.003906 C 1318.542969 653.113281 1316.746094 655.585938 1314.835938 655.25 C 1314.386719 655.136719 1313.710938 655.25 1313.375 655.472656 C 1312.140625 656.484375 1303.375 654.6875 1301.015625 652.777344 C 1298.996094 651.203125 1296.523438 650.082031 1295.175781 647.722656 C 1295.0625 647.609375 1294.949219 647.496094 1294.726562 647.386719 C 1288.996094 644.125 1284.050781 639.746094 1279.445312 635.140625 C 1278.546875 634.242188 1277.3125 633.566406 1276.300781 632.78125 C 1270.347656 627.835938 1264.390625 622.894531 1258.550781 617.949219 C 1254.953125 614.917969 1251.359375 611.660156 1247.988281 608.402344 C 1246.078125 606.492188 1244.507812 604.355469 1242.597656 602.332031 C 1238.890625 598.289062 1235.070312 594.355469 1231.25 590.3125 C 1230.914062 589.976562 1230.6875 589.414062 1230.464844 588.964844 C 1230.238281 588.628906 1230.238281 587.953125 1230.011719 587.839844 C 1227.203125 586.269531 1226.53125 583.460938 1225.855469 580.203125 Z M 1238.101562 580.652344 C 1238.101562 580.539062 1238.214844 580.3125 1238.214844 580.203125 C 1237.878906 580.089844 1237.652344 579.863281 1237.316406 579.863281 C 1236.980469 579.863281 1236.640625 579.976562 1236.304688 580.089844 C 1236.304688 580.203125 1236.304688 580.3125 1236.304688 580.425781 C 1236.980469 580.425781 1237.539062 580.539062 1238.101562 580.652344 Z M 1238.101562 580.652344 "/></g><path style=" stroke:none;fill-rule:nonzero;fill:#00c699;fill-opacity:1;" d="M 1153.730469 231.367188 C 1154.066406 230.691406 1154.40625 230.019531 1154.742188 229.679688 C 1154.40625 230.46875 1154.179688 230.917969 1153.730469 231.367188 Z M 1153.730469 231.367188 Z M 1166.199219 363.484375 C 1166.3125 363.261719 1166.425781 363.148438 1166.539062 362.921875 C 1166.425781 363.035156 1166.3125 363.261719 1166.199219 363.484375 Z M 1139.460938 263.273438 L 1139.6875 263.496094 C 1139.238281 265.183594 1139.238281 263.945312 1138.902344 265.519531 C 1139.125 266.191406 1138.226562 268.214844 1138.339844 268.890625 C 1138.339844 268.890625 1138.113281 269.675781 1138 269.675781 C 1138.226562 270.011719 1137.890625 270.574219 1137.890625 271.023438 C 1137.890625 271.25 1138 270.910156 1138 270.800781 C 1138 271.25 1138 271.585938 1138 272.035156 C 1137.890625 272.484375 1137.777344 272.597656 1137.777344 272.148438 C 1137.664062 272.933594 1137.550781 274.507812 1137.550781 276.417969 C 1137.550781 277.429688 1137.664062 278.4375 1137.664062 279.5625 C 1137.777344 280.6875 1137.890625 281.808594 1138.113281 282.933594 C 1138.789062 287.425781 1140.359375 291.808594 1141.035156 293.269531 C 1141.035156 292.820312 1140.585938 291.921875 1140.699219 291.472656 C 1141.148438 292.257812 1141.148438 292.707031 1141.371094 293.042969 C 1141.148438 293.492188 1141.933594 294.839844 1141.820312 295.628906 L 1142.160156 295.742188 L 1142.160156 296.191406 C 1143.84375 299.558594 1142.609375 296.976562 1143.957031 300.007812 C 1144.855469 301.695312 1145.527344 302.367188 1145.867188 303.378906 C 1145.753906 303.265625 1145.753906 302.816406 1145.976562 303.265625 C 1145.867188 303.378906 1146.652344 304.390625 1146.652344 304.617188 C 1146.878906 305.066406 1147.550781 306.414062 1147.550781 305.851562 C 1147.550781 306.1875 1148.226562 307.425781 1147.664062 306.75 C 1147.886719 307.199219 1148.113281 307.535156 1148.226562 307.875 L 1148 307.3125 C 1148.789062 308.660156 1149.011719 309.558594 1149.6875 310.234375 L 1149.460938 309.671875 C 1149.910156 310.457031 1150.359375 311.132812 1150.246094 311.582031 L 1149.6875 310.792969 C 1150.472656 312.144531 1150.921875 312.929688 1151.707031 313.941406 L 1151.484375 313.492188 C 1152.046875 314.164062 1153.28125 316.300781 1154.628906 318.433594 C 1155.976562 320.570312 1157.101562 322.589844 1157.550781 323.265625 L 1157.4375 322.589844 L 1158.113281 323.601562 C 1158 323.488281 1157.324219 323.378906 1157.324219 323.152344 C 1157.886719 324.390625 1159.683594 328.097656 1161.03125 331.914062 C 1162.382812 335.734375 1163.167969 339.667969 1163.167969 340.902344 C 1163.167969 341.914062 1162.941406 341.128906 1162.832031 341.128906 C 1163.054688 342.25 1163.054688 341.578125 1163.167969 342.589844 C 1163.167969 342.8125 1163.054688 342.589844 1162.941406 342.363281 C 1163.054688 342.8125 1163.054688 343.152344 1163.054688 343.261719 C 1163.054688 342.703125 1163.28125 342.925781 1163.503906 342.703125 C 1163.617188 343.152344 1163.617188 343.601562 1163.617188 343.9375 L 1163.503906 343.9375 C 1163.503906 344.160156 1163.953125 344.609375 1163.953125 345.847656 C 1163.839844 347.980469 1163.839844 350.226562 1163.390625 352.25 C 1163.28125 352.25 1163.390625 351.800781 1163.390625 351.351562 C 1163.28125 351.578125 1163.28125 352.027344 1163.167969 352.25 C 1163.390625 351.800781 1163.054688 353.148438 1163.28125 352.699219 C 1163.390625 354.273438 1162.382812 356.070312 1162.042969 357.304688 C 1162.15625 357.417969 1163.28125 358.65625 1164.179688 360.003906 C 1165.078125 361.351562 1165.863281 362.8125 1166.089844 362.921875 C 1165.863281 363.371094 1165.527344 363.824219 1165.414062 363.933594 C 1165.527344 363.824219 1166.089844 363.035156 1166.3125 362.472656 L 1166.199219 362.25 C 1166.761719 361.125 1166.425781 362.023438 1166.988281 361.011719 C 1167.210938 361.011719 1166.648438 362.023438 1166.199219 362.921875 C 1166.648438 362.136719 1167.210938 361.464844 1167.210938 361.011719 C 1167.660156 360.226562 1167.324219 361.238281 1167.886719 360.226562 C 1168.109375 359.554688 1168.335938 358.542969 1168.785156 357.867188 C 1169.570312 355.957031 1169.457031 354.835938 1169.910156 353.035156 L 1169.910156 353.261719 C 1170.132812 352.585938 1170.246094 351.351562 1170.46875 350.226562 C 1170.359375 350.566406 1170.246094 350.789062 1170.246094 350.117188 C 1170.46875 348.769531 1170.46875 347.867188 1170.582031 346.96875 L 1170.46875 346.070312 C 1170.46875 343.824219 1170.019531 338.207031 1168.449219 333.039062 C 1166.988281 327.871094 1164.742188 323.039062 1163.730469 321.019531 L 1163.839844 321.128906 C 1161.03125 315.0625 1154.292969 304.054688 1151.371094 298.550781 C 1151.035156 297.648438 1150.472656 296.414062 1150.023438 295.515625 C 1150.246094 296.078125 1150.023438 295.964844 1149.796875 295.515625 C 1148.5625 292.707031 1149.574219 295.402344 1148.335938 292.59375 C 1147.550781 291.023438 1145.976562 286.976562 1145.304688 282.820312 C 1144.40625 278.777344 1144.628906 274.730469 1144.855469 273.269531 C 1144.742188 271.585938 1145.191406 269.675781 1145.417969 267.992188 L 1145.417969 268.214844 C 1145.527344 267.316406 1146.316406 264.507812 1147.328125 261.699219 C 1148.335938 258.890625 1149.6875 256.082031 1150.023438 255.070312 L 1149.910156 255.296875 C 1150.585938 253.5 1150.695312 253.835938 1151.371094 252.597656 C 1151.035156 252.710938 1151.597656 251.140625 1151.820312 250.578125 C 1152.15625 249.679688 1152.832031 247.65625 1153.503906 246.308594 L 1153.617188 246.421875 C 1153.953125 245.183594 1155.078125 243.050781 1155.414062 242.152344 C 1156.3125 240.242188 1158 237.433594 1159.011719 234.734375 L 1160.132812 233.277344 L 1160.246094 233.050781 C 1160.246094 233.050781 1156.765625 228.21875 1154.179688 231.140625 L 1154.066406 231.027344 L 1153.730469 231.703125 C 1153.28125 232.488281 1153.28125 232.9375 1153.167969 232.828125 L 1153.730469 231.703125 C 1153.28125 232.488281 1153.503906 231.925781 1153.617188 231.589844 C 1153.394531 231.925781 1153.28125 232.265625 1153.167969 232.488281 C 1153.167969 232.714844 1153.28125 232.375 1153.394531 232.265625 C 1153.28125 232.714844 1153.054688 233.386719 1152.832031 233.835938 C 1152.382812 234.625 1152.605469 233.835938 1152.15625 234.734375 C 1149.6875 239.792969 1147.214844 244.621094 1144.855469 249.789062 C 1144.742188 249.902344 1144.855469 249.789062 1144.855469 249.566406 C 1144.179688 251.140625 1143.507812 252.597656 1142.945312 254.058594 C 1142.71875 254.398438 1142.609375 254.507812 1142.496094 254.621094 C 1142.609375 254.507812 1141.710938 256.53125 1140.921875 258.777344 C 1140.472656 259.902344 1140.136719 261.023438 1139.910156 261.8125 C 1139.6875 262.597656 1139.460938 263.160156 1139.460938 263.273438 Z M 1139.460938 263.273438 "/><path style=" stroke:none;fill-rule:nonzero;fill:#00c699;fill-opacity:1;" d="M 1173.277344 108.121094 C 1193.949219 102.503906 1241.808594 145.53125 1217.542969 192.492188 C 1193.277344 239.453125 1166.199219 231.589844 1166.199219 231.589844 L 1166.199219 234.625 L 1151.144531 230.691406 C 1151.144531 230.691406 1151.144531 228.332031 1151.144531 226.757812 C 1151.144531 225.074219 1117.890625 203.839844 1124.183594 171.484375 C 1130.472656 139.128906 1132.609375 119.132812 1173.277344 108.121094 Z M 1173.277344 108.121094 "/><g style="fill:#fff9f9;fill-opacity:1;"><g transform="translate(81.000002, 210.448935)"><path style="stroke:none" d="M 73.734375 -109.4375 L 84.671875 -94.890625 L 82.21875 -14.6875 L 70.984375 -1.4375 L 2.875 0.140625 L 3.75 -115.203125 Z M 33.265625 -87.265625 L 34.421875 -23.328125 L 54.4375 -27.796875 L 55.4375 -80.921875 Z M 33.265625 -87.265625 "/></g></g><g style="fill:#fff9f9;fill-opacity:1;"><g transform="translate(169.98659, 210.448935)"><path style="stroke:none" d="M 70.984375 -26.0625 L 72.578125 -0.28125 L 2.875 -0.28125 L 2.875 -115.484375 L 70.265625 -113.328125 L 69.40625 -86.96875 L 32.40625 -87.40625 L 32.40625 -73.015625 L 56.296875 -71.5625 L 56.296875 -46.515625 L 32.25 -47.953125 L 32.109375 -28.21875 Z M 70.984375 -26.0625 "/></g></g><g style="fill:#fff9f9;fill-opacity:1;"><g transform="translate(246.877916, 210.448935)"><path style="stroke:none" d="M 56.015625 -35.5625 L 82.796875 -33.703125 L 83.515625 -10.65625 L 78.1875 -0.28125 L 13.25 0.140625 L 3.59375 -5.046875 L 2.875 -105.703125 L 7.203125 -115.203125 L 76.3125 -114.34375 L 84.953125 -106.703125 L 82.9375 -75.59375 L 55.734375 -75.59375 L 53.28125 -91.875 L 33.125 -92.734375 L 34.421875 -21.3125 L 53.5625 -19.875 Z M 56.015625 -35.5625 "/></g></g><g style="fill:#fff9f9;fill-opacity:1;"><g transform="translate(336.152485, 210.448935)"><path style="stroke:none" d="M 3.75 -113.609375 L 34.984375 -114.625 L 31.109375 -2.875 L 2.875 0.140625 Z M 3.75 -113.609375 "/></g></g><g style="fill:#fff9f9;fill-opacity:1;"><g transform="translate(375.462155, 210.448935)"><path style="stroke:none" d="M 77.328125 -66.53125 L 84.390625 -51.40625 L 83.375 -8.640625 L 74.296875 -0.578125 L 8.359375 0 L 2.875 -11.375 L 5.609375 -39.3125 L 30.390625 -39.171875 L 32.40625 -26.359375 L 54.4375 -26.78125 L 55.15625 -44.921875 L 10.65625 -49.96875 L 4.171875 -57.3125 L 4.890625 -105.546875 L 10.515625 -112.3125 L 63.359375 -115.0625 L 81.9375 -109.734375 L 83.234375 -82.515625 L 77.90625 -77.90625 L 57.75 -76.890625 L 54.140625 -88.5625 L 34.984375 -86.96875 L 33.40625 -70.421875 Z M 77.328125 -66.53125 "/></g></g><g style="fill:#fff9f9;fill-opacity:1;"><g transform="translate(464.160734, 210.448935)"><path style="stroke:none" d="M 3.75 -113.609375 L 34.984375 -114.625 L 31.109375 -2.875 L 2.875 0.140625 Z M 3.75 -113.609375 "/></g></g><g style="fill:#fff9f9;fill-opacity:1;"><g transform="translate(503.470376, 210.448935)"><path style="stroke:none" d="M 77.328125 -115.203125 L 84.09375 -107.859375 L 83.09375 -10.515625 L 77.765625 -0.28125 L 13.109375 0.140625 L 3.59375 -5.46875 L 2.875 -107.5625 L 7.484375 -114.765625 Z M 33.125 -91.015625 L 33.984375 -24.484375 L 53.421875 -23.1875 L 53.71875 -89.28125 Z M 33.125 -91.015625 "/></g></g><g style="fill:#fff9f9;fill-opacity:1;"><g transform="translate(591.881014, 210.448935)"><path style="stroke:none" d="M 57.890625 -113.1875 L 90.140625 -114.625 L 85.96875 -1.15625 L 60.1875 -0.140625 L 33.703125 -56.296875 L 31.6875 -2.875 L 2.875 0 L 3.75 -114.484375 L 34.84375 -114.484375 L 57.59375 -66.390625 Z M 57.890625 -113.1875 "/></g></g><g style="fill:#fff9f9;fill-opacity:1;"><g transform="translate(81.000002, 354.270385)"><path style="stroke:none" d="M 78.484375 -32.109375 L 70.984375 -31.25 L 81.078125 -10.65625 L 78.625 -5.765625 L 56.453125 0 L 40.46875 -29.234375 L 33.40625 -28.9375 L 32.109375 -2.875 L 2.875 -0.4375 L 2.875 -115.484375 L 78.34375 -110.875 L 83.953125 -105.265625 L 84.09375 -41.765625 Z M 53.71875 -56.296875 L 53.859375 -88.5625 L 34.84375 -90.4375 L 34.125 -54.859375 Z M 53.71875 -56.296875 "/></g></g><g style="fill:#fff9f9;fill-opacity:1;"><g transform="translate(169.410612, 354.270385)"><path style="stroke:none" d="M 59.765625 -114.484375 L 84.671875 -115.203125 L 83.234375 -10.796875 L 77.90625 -0.578125 L 14.109375 -0.140625 L 4.609375 -5.609375 L 2.875 -115.625 L 27.640625 -115.625 L 33.125 -110.59375 L 34.84375 -27.5 L 53.71875 -26.203125 L 54.578125 -109.015625 Z M 59.765625 -114.484375 "/></g></g><g style="fill:#fff9f9;fill-opacity:1;"><g transform="translate(258.3972, 354.270385)"><path style="stroke:none" d="M 72.71875 -27.21875 L 76.03125 0.140625 L 2.875 0.140625 L 3.890625 -115.484375 L 34.703125 -113.609375 L 33.125 -27.640625 Z M 72.71875 -27.21875 "/></g></g><g style="fill:#fff9f9;fill-opacity:1;"><g transform="translate(338.744306, 354.270385)"><path style="stroke:none" d="M 70.984375 -26.0625 L 72.578125 -0.28125 L 2.875 -0.28125 L 2.875 -115.484375 L 70.265625 -113.328125 L 69.40625 -86.96875 L 32.40625 -87.40625 L 32.40625 -73.015625 L 56.296875 -71.5625 L 56.296875 -46.515625 L 32.25 -47.953125 L 32.109375 -28.21875 Z M 70.984375 -26.0625 "/></g></g><g style="fill:#fff9f9;fill-opacity:1;"><g transform="translate(415.635645, 354.270385)"><path style="stroke:none" d="M 77.328125 -66.53125 L 84.390625 -51.40625 L 83.375 -8.640625 L 74.296875 -0.578125 L 8.359375 0 L 2.875 -11.375 L 5.609375 -39.3125 L 30.390625 -39.171875 L 32.40625 -26.359375 L 54.4375 -26.78125 L 55.15625 -44.921875 L 10.65625 -49.96875 L 4.171875 -57.3125 L 4.890625 -105.546875 L 10.515625 -112.3125 L 63.359375 -115.0625 L 81.9375 -109.734375 L 83.234375 -82.515625 L 77.90625 -77.90625 L 57.75 -76.890625 L 54.140625 -88.5625 L 34.984375 -86.96875 L 33.40625 -70.421875 Z M 77.328125 -66.53125 "/></g></g><g style="fill:#fff9f9;fill-opacity:1;"><g transform="translate(81.000002, 560.164504)"><path style="stroke:none" d="M 15.875 -23.5625 L 18.234375 -20.421875 L 17.703125 -3.15625 L 15.28125 -0.3125 L 0.625 0.03125 L 0.8125 -24.796875 Z M 7.15625 -18.78125 L 7.40625 -5.015625 L 11.71875 -5.984375 L 11.9375 -17.421875 Z M 7.15625 -18.78125 "/></g></g><g style="fill:#fff9f9;fill-opacity:1;"><g transform="translate(99.845662, 560.164504)"><path style="stroke:none" d="M 18.140625 -16.859375 L 18.359375 0 L 14.109375 0.03125 L 13.453125 -1.046875 L 12.734375 0 L 2.9375 -0.09375 L 0.625 -1.796875 L 1.171875 -9.859375 L 2.96875 -11.09375 L 11.65625 -11.25 L 11.75 -13.359375 L 7.34375 -13.671875 L 6.8125 -12.53125 L 1.140625 -12.890625 L 0.84375 -15.125 L 2.453125 -17.859375 L 16.09375 -18.046875 Z M 11.875 -4.84375 L 11.84375 -7.6875 L 7.21875 -7.625 L 7.40625 -5.015625 Z M 11.875 -4.84375 "/></g></g><g style="fill:#fff9f9;fill-opacity:1;"><g transform="translate(118.815296, 560.164504)"><path style="stroke:none" d="M 16.734375 -18.171875 L 17.984375 -16.953125 L 17.921875 -0.875 L 16.375 -0.03125 L 11.5 -0.125 L 11.5 -12.59375 L 7.15625 -12.46875 L 7.25 -0.5 L 0.71875 -0.0625 L 0.625 -17.796875 L 4.59375 -17.890625 L 5.140625 -16.953125 L 5.921875 -17.703125 Z M 16.734375 -18.171875 "/></g></g><g style="fill:#fff9f9;fill-opacity:1;"><g transform="translate(137.412986, 560.164504)"><path style="stroke:none" d="M 0.625 -0.0625 L 0.78125 -18.140625 L 7.5 -18.140625 L 6.671875 -0.375 Z M 5.828125 -18.75 L 2.453125 -18.6875 L 0.90625 -19.75 L 1.046875 -24.765625 L 6.90625 -24.765625 L 7.6875 -23.9375 L 7 -19.71875 Z M 5.828125 -18.75 "/></g></g><g style="fill:#fff9f9;fill-opacity:1;"><g transform="translate(145.719955, 560.164504)"><path style="stroke:none" d="M 12.09375 -5.546875 L 17.765625 -5.171875 L 18.078125 -2.9375 L 16.46875 -0.21875 L 2.828125 -0.03125 L 0.78125 -1.234375 L 0.625 -16.15625 L 2.546875 -18.171875 L 15.96875 -17.890625 L 18.296875 -16.3125 L 17.734375 -7.78125 L 15.90625 -6.546875 L 7.25 -6.78125 L 7.15625 -4.71875 L 11.5625 -4.4375 Z M 11.6875 -9.953125 L 11.5 -13.078125 L 7.03125 -13.265625 L 7.0625 -10.359375 Z M 11.6875 -9.953125 "/></g></g><g style="fill:#fff9f9;fill-opacity:1;"><g transform="translate(164.627596, 560.164504)"><path style="stroke:none" d="M 0.6875 -24.734375 L 8.984375 -24.734375 L 8.09375 -0.53125 L 1.703125 0 L 1.828125 -18.96875 L 0.625 -19.53125 Z M 0.6875 -24.734375 "/></g></g><g style="fill:#fff9f9;fill-opacity:1;"><g transform="translate(174.236399, 560.164504)"><path style="stroke:none" d=""/></g></g><g style="fill:#fff9f9;fill-opacity:1;"><g transform="translate(183.535238, 560.164504)"><path style="stroke:none" d="M 18.203125 -21.984375 L 18.65625 -0.0625 L 12.21875 0.0625 L 12.03125 -7.65625 L 7.09375 -7.34375 L 6.609375 -0.09375 L 0.625 0.03125 L 1.578125 -22.71875 L 2.796875 -24.1875 L 16.3125 -24.765625 Z M 12 -12.375 L 11.84375 -18.53125 L 7.75 -18.203125 L 7.4375 -12.671875 Z M 12 -12.375 "/></g></g><g style="fill:#fff9f9;fill-opacity:1;"><g transform="translate(202.814835, 560.164504)"><path style="stroke:none" d="M 0.6875 -24.734375 L 8.984375 -24.734375 L 8.09375 -0.53125 L 1.703125 0 L 1.828125 -18.96875 L 0.625 -19.53125 Z M 0.6875 -24.734375 "/></g></g><g style="fill:#fff9f9;fill-opacity:1;"><g transform="translate(212.423637, 560.164504)"><path style="stroke:none" d="M 12.09375 -5.546875 L 17.765625 -5.171875 L 18.078125 -2.9375 L 16.46875 -0.21875 L 2.828125 -0.03125 L 0.78125 -1.234375 L 0.625 -16.15625 L 2.546875 -18.171875 L 15.96875 -17.890625 L 18.296875 -16.3125 L 17.734375 -7.78125 L 15.90625 -6.546875 L 7.25 -6.78125 L 7.15625 -4.71875 L 11.5625 -4.4375 Z M 11.6875 -9.953125 L 11.5 -13.078125 L 7.03125 -13.265625 L 7.0625 -10.359375 Z M 11.6875 -9.953125 "/></g></g><g style="fill:#fff9f9;fill-opacity:1;"><g transform="translate(231.331279, 560.164504)"><path style="stroke:none" d="M 6.265625 -18.015625 L 15.5 -18.203125 L 17.109375 -16.03125 L 16.953125 6.265625 L 14.9375 7.9375 L 2.234375 7.6875 L 0.625 5.296875 L 0.9375 0.96875 L 6.328125 0.875 L 6.84375 2.96875 L 10.171875 2.671875 L 10.265625 -12.28125 L 7.34375 -12.5 L 6.265625 -13.890625 Z M 15.34375 -18.8125 L 11.96875 -18.75 L 10.390625 -19.8125 L 10.546875 -24.828125 L 16.40625 -24.828125 L 17.171875 -24 L 16.484375 -19.78125 Z M 15.34375 -18.8125 "/></g></g><g style="fill:#fff9f9;fill-opacity:1;"><g transform="translate(249.123064, 560.164504)"><path style="stroke:none" d="M 18.140625 -16.859375 L 18.359375 0 L 14.109375 0.03125 L 13.453125 -1.046875 L 12.734375 0 L 2.9375 -0.09375 L 0.625 -1.796875 L 1.171875 -9.859375 L 2.96875 -11.09375 L 11.65625 -11.25 L 11.75 -13.359375 L 7.34375 -13.671875 L 6.8125 -12.53125 L 1.140625 -12.890625 L 0.84375 -15.125 L 2.453125 -17.859375 L 16.09375 -18.046875 Z M 11.875 -4.84375 L 11.84375 -7.6875 L 7.21875 -7.625 L 7.40625 -5.015625 Z M 11.875 -4.84375 "/></g></g><g style="fill:#fff9f9;fill-opacity:1;"><g transform="translate(268.092699, 560.164504)"><path style="stroke:none" d="M 16.734375 -18.171875 L 17.984375 -16.953125 L 17.921875 -0.875 L 16.375 -0.03125 L 11.5 -0.125 L 11.5 -12.59375 L 7.15625 -12.46875 L 7.25 -0.5 L 0.71875 -0.0625 L 0.625 -17.796875 L 4.59375 -17.890625 L 5.140625 -16.953125 L 5.921875 -17.703125 Z M 16.734375 -18.171875 "/></g></g><g style="fill:#fff9f9;fill-opacity:1;"><g transform="translate(286.690377, 560.164504)"><path style="stroke:none" d="M 18.296875 -24.796875 L 18.46875 -0.03125 L 14.53125 0 L 13.859375 -0.984375 L 13.078125 -0.125 L 3.21875 0 L 0.984375 -2.421875 L 0.625 -15.71875 L 2.546875 -18.140625 L 11.8125 -17.421875 L 12 -24.453125 Z M 11.78125 -5.296875 L 11.71875 -12.125 L 7.59375 -12.28125 L 7.21875 -5.421875 Z M 11.78125 -5.296875 "/></g></g><g style="fill:#fff9f9;fill-opacity:1;"><g transform="translate(305.78402, 560.164504)"><path style="stroke:none" d="M 15.625 -17.890625 L 17.234375 -15.78125 L 17.140625 -10.203125 L 16.21875 -8.6875 L 11.34375 -8.765625 L 10.90625 -12.46875 L 7.34375 -12.640625 L 7.34375 -0.0625 L 0.875 -0.40625 L 0.625 -18.078125 L 4.5 -18.046875 L 5.078125 -17.015625 L 5.828125 -17.859375 Z M 15.625 -17.890625 "/></g></g><g style="fill:#fff9f9;fill-opacity:1;"><g transform="translate(323.637786, 560.164504)"><path style="stroke:none" d="M 16.484375 -17.890625 L 18.109375 -15.875 L 17.953125 -2.328125 L 16.734375 -0.125 L 2.859375 -0.03125 L 0.78125 -1.109375 L 0.625 -16.09375 L 1.859375 -18.171875 Z M 11.53125 -12.984375 L 7.1875 -13.171875 L 7.3125 -4.953125 L 11.4375 -4.625 Z M 11.53125 -12.984375 "/></g></g><g style="fill:#fff9f9;fill-opacity:1;"><g transform="translate(342.359472, 560.164504)"><path style="stroke:none" d=""/></g></g><g style="fill:#fff9f9;fill-opacity:1;"><g transform="translate(351.6583, 560.164504)"><path style="stroke:none" d="M 21.109375 -24.640625 L 21.390625 -0.0625 L 14.875 -0.21875 L 14.390625 -14.234375 L 10.9375 -9.078125 L 7.71875 -14.046875 L 7.21875 -0.3125 L 0.625 -0.0625 L 0.96875 -24.859375 L 7.5 -24.765625 L 10.9375 -19.1875 L 14.265625 -24.734375 Z M 21.109375 -24.640625 "/></g></g><g style="fill:#fff9f9;fill-opacity:1;"><g transform="translate(373.665563, 560.164504)"><path style="stroke:none" d="M 16.484375 -17.890625 L 18.109375 -15.875 L 17.953125 -2.328125 L 16.734375 -0.125 L 2.859375 -0.03125 L 0.78125 -1.109375 L 0.625 -16.09375 L 1.859375 -18.171875 Z M 11.53125 -12.984375 L 7.1875 -13.171875 L 7.3125 -4.953125 L 11.4375 -4.625 Z M 11.53125 -12.984375 "/></g></g><g style="fill:#fff9f9;fill-opacity:1;"><g transform="translate(392.387226, 560.164504)"><path style="stroke:none" d="M 15.625 -17.890625 L 17.234375 -15.78125 L 17.140625 -10.203125 L 16.21875 -8.6875 L 11.34375 -8.765625 L 10.90625 -12.46875 L 7.34375 -12.640625 L 7.34375 -0.0625 L 0.875 -0.40625 L 0.625 -18.078125 L 4.5 -18.046875 L 5.078125 -17.015625 L 5.828125 -17.859375 Z M 15.625 -17.890625 "/></g></g><g style="fill:#fff9f9;fill-opacity:1;"><g transform="translate(410.241015, 560.164504)"><path style="stroke:none" d="M 18.140625 -16.859375 L 18.359375 0 L 14.109375 0.03125 L 13.453125 -1.046875 L 12.734375 0 L 2.9375 -0.09375 L 0.625 -1.796875 L 1.171875 -9.859375 L 2.96875 -11.09375 L 11.65625 -11.25 L 11.75 -13.359375 L 7.34375 -13.671875 L 6.8125 -12.53125 L 1.140625 -12.890625 L 0.84375 -15.125 L 2.453125 -17.859375 L 16.09375 -18.046875 Z M 11.875 -4.84375 L 11.84375 -7.6875 L 7.21875 -7.625 L 7.40625 -5.015625 Z M 11.875 -4.84375 "/></g></g><g style="fill:#fff9f9;fill-opacity:1;"><g transform="translate(429.21065, 560.164504)"><path style="stroke:none" d="M 0.6875 -24.734375 L 8.984375 -24.734375 L 8.09375 -0.53125 L 1.703125 0 L 1.828125 -18.96875 L 0.625 -19.53125 Z M 0.6875 -24.734375 "/></g></g><g style="fill:#fff9f9;fill-opacity:1;"><g transform="translate(438.819452, 560.164504)"><path style="stroke:none" d="M 12.09375 -5.546875 L 17.765625 -5.171875 L 18.078125 -2.9375 L 16.46875 -0.21875 L 2.828125 -0.03125 L 0.78125 -1.234375 L 0.625 -16.15625 L 2.546875 -18.171875 L 15.96875 -17.890625 L 18.296875 -16.3125 L 17.734375 -7.78125 L 15.90625 -6.546875 L 7.25 -6.78125 L 7.15625 -4.71875 L 11.5625 -4.4375 Z M 11.6875 -9.953125 L 11.5 -13.078125 L 7.03125 -13.265625 L 7.0625 -10.359375 Z M 11.6875 -9.953125 "/></g></g><g style="fill:#fff9f9;fill-opacity:1;"><g transform="translate(457.727082, 560.164504)"><path style="stroke:none" d="M 16.546875 -10.65625 L 17.921875 -7.96875 L 17.671875 -1.453125 L 15.90625 -0.15625 L 15.71875 -0.15625 L 1.921875 0 L 0.625 -1.421875 L 1.046875 -6.515625 L 6.234375 -6.484375 L 6.671875 -4.890625 L 11.65625 -4.890625 L 11.78125 -7.21875 L 2.265625 -8.03125 L 0.8125 -9.203125 L 0.96875 -16.609375 L 2.234375 -17.734375 L 15.21875 -18.140625 L 17.484375 -17.328125 L 17.765625 -12.984375 L 16.578125 -12.125 L 12.3125 -11.96875 L 11.59375 -13.671875 L 7.3125 -13.484375 L 6.96875 -11.4375 Z M 16.546875 -10.65625 "/></g></g><g style="fill:#fff9f9;fill-opacity:1;"><g transform="translate(476.262802, 560.164504)"><path style="stroke:none" d=""/></g></g><g style="fill:#fff9f9;fill-opacity:1;"><g transform="translate(485.56163, 560.164504)"><path style="stroke:none" d="M 12.0625 -7.65625 L 17.828125 -7.25 L 17.984375 -2.296875 L 16.828125 -0.0625 L 2.859375 0.03125 L 0.78125 -1.078125 L 0.625 -22.75 L 1.546875 -24.796875 L 16.4375 -24.609375 L 18.296875 -22.96875 L 17.859375 -16.28125 L 12 -16.28125 L 11.46875 -19.78125 L 7.125 -19.96875 L 7.40625 -4.59375 L 11.53125 -4.28125 Z M 12.0625 -7.65625 "/></g></g><g style="fill:#fff9f9;fill-opacity:1;"><g transform="translate(504.469282, 560.164504)"><path style="stroke:none" d="M 18.140625 -16.859375 L 18.359375 0 L 14.109375 0.03125 L 13.453125 -1.046875 L 12.734375 0 L 2.9375 -0.09375 L 0.625 -1.796875 L 1.171875 -9.859375 L 2.96875 -11.09375 L 11.65625 -11.25 L 11.75 -13.359375 L 7.34375 -13.671875 L 6.8125 -12.53125 L 1.140625 -12.890625 L 0.84375 -15.125 L 2.453125 -17.859375 L 16.09375 -18.046875 Z M 11.875 -4.84375 L 11.84375 -7.6875 L 7.21875 -7.625 L 7.40625 -5.015625 Z M 11.875 -4.84375 "/></g></g><g style="fill:#fff9f9;fill-opacity:1;"><g transform="translate(523.438917, 560.164504)"><path style="stroke:none" d="M 16.546875 -10.65625 L 17.921875 -7.96875 L 17.671875 -1.453125 L 15.90625 -0.15625 L 15.71875 -0.15625 L 1.921875 0 L 0.625 -1.421875 L 1.046875 -6.515625 L 6.234375 -6.484375 L 6.671875 -4.890625 L 11.65625 -4.890625 L 11.78125 -7.21875 L 2.265625 -8.03125 L 0.8125 -9.203125 L 0.96875 -16.609375 L 2.234375 -17.734375 L 15.21875 -18.140625 L 17.484375 -17.328125 L 17.765625 -12.984375 L 16.578125 -12.125 L 12.3125 -11.96875 L 11.59375 -13.671875 L 7.3125 -13.484375 L 6.96875 -11.4375 Z M 16.546875 -10.65625 "/></g></g><g style="fill:#fff9f9;fill-opacity:1;"><g transform="translate(541.974591, 560.164504)"><path style="stroke:none" d="M 16.859375 -6.421875 L 16.859375 -2.703125 L 15.28125 -0.1875 L 2.890625 0 L 1.703125 -1.984375 L 1.828125 -13.296875 L 0.65625 -13.578125 L 0.625 -17.234375 L 1.296875 -17.953125 L 2.203125 -18.015625 L 2.546875 -22.46875 L 7.34375 -22.375 L 8.09375 -21.578125 L 8.0625 -18.015625 L 14.78125 -17.859375 L 15.5625 -16.765625 L 15.5 -13.171875 L 14.6875 -12.59375 L 8.15625 -12.765625 L 7.875 -5.015625 L 10.8125 -4.890625 L 11.53125 -7.78125 L 16.09375 -7.5 Z M 16.859375 -6.421875 "/></g></g><g style="fill:#fff9f9;fill-opacity:1;"><g transform="translate(559.456401, 560.164504)"><path style="stroke:none" d="M 0.625 -0.0625 L 0.78125 -18.140625 L 7.5 -18.140625 L 6.671875 -0.375 Z M 5.828125 -18.75 L 2.453125 -18.6875 L 0.90625 -19.75 L 1.046875 -24.765625 L 6.90625 -24.765625 L 7.6875 -23.9375 L 7 -19.71875 Z M 5.828125 -18.75 "/></g></g><g style="fill:#fff9f9;fill-opacity:1;"><g transform="translate(567.763392, 560.164504)"><path style="stroke:none" d="M 0.6875 -24.734375 L 8.984375 -24.734375 L 8.09375 -0.53125 L 1.703125 0 L 1.828125 -18.96875 L 0.625 -19.53125 Z M 0.6875 -24.734375 "/></g></g><g style="fill:#fff9f9;fill-opacity:1;"><g transform="translate(577.372172, 560.164504)"><path style="stroke:none" d="M 0.6875 -24.734375 L 8.984375 -24.734375 L 8.09375 -0.53125 L 1.703125 0 L 1.828125 -18.96875 L 0.625 -19.53125 Z M 0.6875 -24.734375 "/></g></g><g style="fill:#fff9f9;fill-opacity:1;"><g transform="translate(586.980997, 560.164504)"><path style="stroke:none" d="M 16.484375 -17.890625 L 18.109375 -15.875 L 17.953125 -2.328125 L 16.734375 -0.125 L 2.859375 -0.03125 L 0.78125 -1.109375 L 0.625 -16.09375 L 1.859375 -18.171875 Z M 11.53125 -12.984375 L 7.1875 -13.171875 L 7.3125 -4.953125 L 11.4375 -4.625 Z M 11.53125 -12.984375 "/></g></g></g></svg>