<svg xmlns="http://www.w3.org/2000/svg" xmlns:xlink="http://www.w3.org/1999/xlink" width="99" zoomAndPan="magnify" viewBox="0 0 74.25 30.000001" height="40" preserveAspectRatio="xMidYMid meet" version="1.0"><defs><g/><clipPath id="73faa0b776"><path d="M 0.835938 0 L 72.691406 0 L 72.691406 29.03125 L 0.835938 29.03125 Z M 0.835938 0 " clip-rule="nonzero"/></clipPath></defs><g clip-path="url(#73faa0b776)"><path fill="#ffffff" d="M 0.835938 0 L 72.691406 0 L 72.691406 29.03125 L 0.835938 29.03125 Z M 0.835938 0 " fill-opacity="1" fill-rule="nonzero"/><path fill="#ffffff" d="M 0.835938 0 L 72.691406 0 L 72.691406 29.03125 L 0.835938 29.03125 Z M 0.835938 0 " fill-opacity="1" fill-rule="nonzero"/></g><g fill="#ffffff" fill-opacity="1"><g transform="translate(7.073355, 20.634246)"><g><path d="M 7.855469 0 C 12.847656 0 16.308594 -3.152344 16.308594 -7.953125 C 16.308594 -12.75 12.847656 -15.925781 7.855469 -15.925781 L 1.574219 -15.925781 L 1.574219 0 Z M 4.96875 -12.941406 L 7.855469 -12.941406 C 11.128906 -12.941406 12.847656 -10.769531 12.847656 -7.953125 C 12.847656 -5.253906 11.007812 -2.984375 7.855469 -2.984375 L 4.96875 -2.984375 Z M 4.96875 -12.941406 "/></g></g></g><g fill="#ffffff" fill-opacity="1"><g transform="translate(24.213577, 20.634246)"><g><path d="M 11.460938 0 L 11.460938 -7.449219 C 11.460938 -10.769531 9.050781 -11.820312 6.421875 -11.820312 C 4.609375 -11.820312 2.792969 -11.246094 1.386719 -10.003906 L 2.53125 -7.976562 C 3.511719 -8.882812 4.65625 -9.335938 5.898438 -9.335938 C 7.425781 -9.335938 8.429688 -8.574219 8.429688 -7.402344 L 8.429688 -5.800781 C 7.664062 -6.734375 6.304688 -7.210938 4.777344 -7.210938 C 2.9375 -7.210938 0.765625 -6.234375 0.765625 -3.535156 C 0.765625 -0.957031 2.9375 0.285156 4.777344 0.285156 C 6.28125 0.285156 7.640625 -0.261719 8.429688 -1.195312 L 8.429688 0 Z M 8.429688 -2.769531 C 7.929688 -2.101562 6.972656 -1.765625 5.992188 -1.765625 C 4.800781 -1.765625 3.820312 -2.386719 3.820312 -3.460938 C 3.820312 -4.5625 4.800781 -5.207031 5.992188 -5.207031 C 6.972656 -5.207031 7.929688 -4.871094 8.429688 -4.203125 Z M 8.429688 -2.769531 "/></g></g></g><g fill="#ffffff" fill-opacity="1"><g transform="translate(37.17617, 20.634246)"><g><path d="M 12.320312 0 L 12.320312 -8.144531 C 12.320312 -10.386719 11.105469 -11.820312 8.574219 -11.820312 C 6.6875 -11.820312 5.277344 -10.914062 4.535156 -10.027344 L 4.535156 -11.535156 L 1.503906 -11.535156 L 1.503906 0 L 4.535156 0 L 4.535156 -7.761719 C 5.039062 -8.453125 5.96875 -9.121094 7.164062 -9.121094 C 8.453125 -9.121094 9.289062 -8.574219 9.289062 -6.972656 L 9.289062 0 Z M 12.320312 0 "/></g></g></g><g fill="#ffffff" fill-opacity="1"><g transform="translate(50.998166, 20.634246)"><g><path d="M 1.097656 4.511719 C 1.480469 4.609375 2.246094 4.679688 2.601562 4.679688 C 4.585938 4.632812 6.113281 4.058594 6.972656 1.886719 L 12.394531 -11.535156 L 9.121094 -11.535156 L 6.113281 -3.511719 L 3.105469 -11.535156 L -0.144531 -11.535156 L 4.535156 0.167969 L 4.105469 1.144531 C 3.820312 1.765625 3.296875 1.980469 2.507812 1.980469 C 2.222656 1.980469 1.816406 1.910156 1.550781 1.789062 Z M 1.097656 4.511719 "/></g></g></g></svg>