<?xml version="1.0" standalone="no"?>
<!DOCTYPE svg PUBLIC "-//W3C//DTD SVG 20010904//EN"
 "http://www.w3.org/TR/2001/REC-SVG-20010904/DTD/svg10.dtd">
<svg version="1.0" xmlns="http://www.w3.org/2000/svg"
 width="1400.000000pt" height="768.000000pt" viewBox="0 0 1400.000000 768.000000"
 preserveAspectRatio="xMidYMid meet">

<g transform="translate(0.000000,768.000000) scale(0.100000,-0.100000)"
fill="#000000" stroke="none">
<path d="M512 7220 c-12 -5 -27 -21 -32 -36 -7 -17 -10 -212 -8 -541 3 -496 4
-515 22 -529 17 -12 922 -14 6516 -14 l6497 0 19 21 c18 20 19 46 22 518 2
326 0 508 -7 532 -7 23 -20 40 -36 47 -32 15 -12956 16 -12993 2z m3698 -265
l0 -35 -50 0 -50 0 0 35 0 35 50 0 50 0 0 -35z m4080 -230 l0 -265 -50 0 -50
0 0 265 0 265 50 0 50 0 0 -265z m1412 230 c-4 -35 -5 -35 -53 -35 l-49 0 0
35 0 35 53 0 53 0 -4 -35z m298 -1 c0 -29 -3 -35 -16 -30 -25 10 -64 -20 -64
-49 0 -22 4 -25 40 -25 39 0 40 -1 40 -35 0 -34 -1 -35 -40 -35 l-40 0 0 -161
0 -160 -47 3 -48 3 -3 158 -3 157 -24 0 c-22 0 -25 4 -25 35 0 30 3 35 24 35
20 0 24 6 29 43 9 63 51 97 122 97 l55 0 0 -36z m150 1 l0 -35 -50 0 -50 0 0
35 0 35 50 0 50 0 0 -35z m-6746 -175 c60 -104 110 -190 113 -190 3 0 3 39 -1
88 -3 48 -3 133 0 190 l7 103 41 -3 41 -3 0 -250 0 -250 -60 0 -60 0 -107 189
-108 190 0 -192 0 -192 -45 0 -45 0 0 255 0 255 59 0 58 0 107 -190z m2256
166 c52 -27 70 -54 70 -107 0 -51 -25 -93 -62 -105 -19 -6 -17 -8 17 -20 54
-18 75 -48 75 -110 0 -108 -62 -139 -285 -139 l-150 0 -3 250 -2 250 152 0
c128 -1 159 -4 188 -19z m2332 9 c47 -17 101 -65 112 -102 6 -19 2 -23 -35
-33 -41 -11 -44 -11 -62 14 -56 77 -184 73 -232 -7 -25 -41 -28 -167 -5 -212
22 -43 75 -75 124 -75 53 0 86 18 111 58 21 33 31 35 90 12 24 -9 25 -11 11
-37 -20 -39 -65 -79 -108 -97 -45 -19 -145 -21 -202 -4 -91 28 -148 126 -147
259 0 114 48 187 149 224 50 18 139 18 194 0z m-4052 -115 c8 -5 26 -20 40
-35 23 -24 25 -36 30 -148 5 -115 6 -123 28 -132 36 -16 27 -59 -14 -63 -41
-4 -85 14 -91 38 -7 26 -11 25 -53 -10 -28 -25 -43 -30 -87 -30 -74 0 -104 28
-111 101 -4 48 -1 59 22 86 28 33 90 53 166 53 37 0 40 2 40 27 0 33 -26 63
-56 63 -23 0 -54 -23 -54 -41 0 -5 -22 -9 -50 -9 -41 0 -50 3 -50 18 0 39 44
78 105 93 32 8 111 1 135 -11z m1025 -9 c39 -22 62 -64 73 -134 l9 -57 -124 0
-123 0 0 -29 c0 -45 39 -84 81 -83 21 0 40 8 50 21 15 18 24 20 63 15 l45 -7
-21 -29 c-34 -48 -75 -68 -142 -68 -121 0 -180 66 -179 202 0 84 17 125 65
161 51 38 143 42 203 8z m1127 3 c43 -22 52 -50 58 -179 5 -113 6 -121 28
-130 16 -7 22 -17 20 -35 -3 -23 -7 -25 -50 -24 -51 0 -78 16 -78 46 0 18 -6
15 -41 -17 -40 -36 -44 -37 -102 -33 -78 6 -107 35 -107 108 0 87 63 130 190
130 37 0 40 2 40 27 0 33 -26 63 -56 63 -23 0 -54 -23 -54 -41 0 -5 -22 -9
-50 -9 -55 0 -64 15 -34 58 40 57 158 75 236 36z m810 0 c38 -20 69 -76 75
-139 l6 -55 -122 0 -121 0 0 -33 c0 -71 87 -108 132 -56 13 15 24 18 62 13
l45 -7 -21 -29 c-34 -48 -75 -68 -143 -68 -121 0 -180 65 -180 200 0 83 18
127 66 162 51 38 139 43 201 12z m364 15 c48 -12 104 -57 104 -83 0 -25 -74
-22 -100 4 -34 34 -130 20 -130 -19 0 -20 41 -41 110 -57 94 -23 130 -54 130
-112 0 -78 -63 -122 -172 -122 -92 1 -168 40 -168 88 0 5 16 13 36 17 29 5 41
2 59 -15 49 -46 155 -31 155 20 0 23 -20 34 -101 54 -108 27 -139 54 -139 120
0 44 32 82 85 101 49 17 74 18 131 4z m1365 -15 c47 -24 54 -41 64 -178 10
-125 11 -131 33 -134 26 -4 31 -46 6 -56 -47 -18 -124 14 -124 51 0 10 -13 4
-40 -21 -33 -30 -47 -36 -85 -36 -59 0 -91 16 -110 55 -19 42 -19 78 0 115 21
41 65 61 152 67 l75 6 -6 30 c-8 42 -24 57 -57 57 -19 0 -34 -8 -45 -25 -14
-21 -24 -25 -66 -25 -47 0 -49 1 -43 23 25 81 154 119 246 71z m410 1 c27 -14
69 -60 69 -76 0 -4 -19 -9 -42 -11 -35 -2 -47 1 -61 20 -22 26 -97 31 -117 7
-28 -34 10 -67 95 -81 117 -19 164 -91 115 -172 -26 -43 -74 -62 -152 -62 -72
0 -136 25 -162 61 -23 33 -21 36 25 44 34 6 43 4 55 -13 16 -23 88 -39 123
-27 12 3 26 15 32 27 17 31 -11 52 -98 72 -99 24 -133 54 -133 118 0 52 32 90
90 107 42 12 123 5 161 -14z m361 14 c54 -12 108 -53 108 -83 0 -25 -75 -21
-100 4 -34 34 -130 20 -130 -19 0 -20 41 -41 110 -57 93 -21 130 -53 130 -112
0 -77 -63 -122 -170 -122 -66 0 -117 17 -149 49 -32 32 -26 48 19 56 34 6 43
3 58 -15 38 -47 152 -32 152 20 0 23 -20 34 -104 55 -81 20 -119 44 -130 83
-19 66 21 124 95 142 48 11 52 11 111 -1z m1093 -17 c34 -20 70 -87 79 -149
l6 -43 -126 0 -127 0 6 -37 c4 -20 15 -46 26 -56 25 -26 77 -25 105 2 18 17
29 19 66 13 l44 -7 -32 -36 c-43 -49 -79 -62 -152 -57 -64 5 -98 23 -133 70
-29 38 -36 163 -13 223 36 93 157 130 251 77z m375 -23 c0 -36 -1 -38 -37 -41
-26 -2 -42 -11 -57 -31 -18 -25 -21 -45 -24 -153 l-4 -125 -46 3 -47 3 -3 193
-2 193 47 -3 c47 -3 48 -4 51 -37 l3 -34 20 32 c21 34 52 51 81 43 13 -3 18
-14 18 -43z m-6660 -154 l0 -195 -50 0 -50 0 0 195 0 195 50 0 50 0 0 -195z
m180 123 c12 -40 28 -91 35 -113 7 -22 16 -55 20 -72 3 -18 10 -33 14 -33 4 0
28 64 53 143 l45 142 51 3 c29 2 52 1 52 -2 0 -3 -32 -91 -71 -196 l-71 -190
-58 0 -58 0 -61 171 c-85 239 -83 219 -23 219 l50 0 22 -72z m1967 -73 c24
-77 46 -141 48 -143 2 -2 11 22 20 54 9 33 29 97 44 144 l28 85 53 3 c47 3 52
1 45 -15 -4 -10 -44 -114 -88 -232 -58 -152 -90 -222 -110 -242 -33 -33 -94
-54 -131 -45 -22 5 -26 12 -26 41 0 33 2 35 33 35 39 0 80 37 79 72 0 13 -32
102 -71 198 -39 96 -71 179 -71 183 0 4 23 7 51 5 l51 -3 45 -140z m3344 -50
l0 -190 -48 0 -48 0 -3 180 c-1 98 0 185 3 193 3 9 19 12 50 10 l46 -3 0 -190z
m444 0 l0 -190 -47 -3 -48 -3 0 196 0 196 48 -3 47 -3 0 -190z"/>
<path d="M5425 6878 c-4 -9 -5 -37 -3 -64 l3 -49 81 0 c67 0 86 4 103 19 27
24 27 58 1 81 -28 25 -177 35 -185 13z"/>
<path d="M5424 6676 c-3 -7 -4 -40 -2 -72 l3 -59 70 -3 c87 -4 142 11 157 43
17 38 2 74 -37 91 -46 19 -184 19 -191 0z"/>
<path d="M3797 6622 c-20 -22 -22 -63 -5 -80 13 -13 47 -16 73 -6 19 8 45 55
45 84 0 17 -6 20 -48 20 -35 0 -54 -5 -65 -18z"/>
<path d="M4827 6773 c-8 -10 -19 -30 -22 -45 l-7 -28 76 0 c81 0 85 3 61 49
-22 44 -78 56 -108 24z"/>
<path d="M5940 6620 c-49 -49 -2 -109 65 -84 19 8 45 55 45 84 0 17 -6 20 -45
20 -32 0 -51 -6 -65 -20z"/>
<path d="M6761 6764 c-12 -15 -21 -35 -21 -45 0 -17 8 -19 69 -19 76 0 88 8
70 42 -29 54 -85 64 -118 22z"/>
<path d="M8488 6629 c-11 -6 -18 -22 -18 -42 0 -88 105 -71 125 21 l7 32 -49
0 c-26 0 -56 -5 -65 -11z"/>
<path d="M10357 6773 c-8 -10 -19 -30 -22 -45 l-7 -28 76 0 c70 0 76 2 76 20
0 54 -88 91 -123 53z"/>
<path d="M12495 5361 c-16 -10 -132 -122 -257 -248 -182 -183 -228 -234 -228
-255 0 -21 23 -50 95 -122 53 -53 98 -96 100 -96 3 0 5 7 5 15 0 21 493 515
513 515 10 0 17 4 17 10 0 15 -187 200 -202 200 -7 0 -26 -9 -43 -19z"/>
<path d="M12478 4902 c-157 -157 -248 -255 -248 -267 0 -12 39 -60 95 -116
l95 -96 262 264 c144 144 268 263 275 263 7 0 13 2 13 4 0 2 -43 47 -95 100
-74 75 -101 96 -122 96 -23 0 -72 -44 -275 -248z"/>
<path d="M12703 4678 c-191 -191 -243 -248 -243 -269 0 -34 488 -529 522 -529
16 0 95 73 270 248 205 204 248 252 248 275 0 23 -42 70 -246 272 -214 214
-249 245 -276 245 -27 0 -62 -31 -275 -242z"/>
<path d="M11857 4796 c-86 -46 -96 -54 -82 -66 9 -7 15 -19 13 -25 -2 -7 -315
-327 -695 -711 l-693 -699 0 477 0 477 -24 28 -24 28 -2677 0 -2677 0 -24 -28
-24 -28 0 -470 c0 -258 -1 -469 -3 -469 -2 0 -50 16 -107 35 -57 19 -105 35
-107 35 -2 0 -3 -13 -3 -30 l0 -30 -560 0 c-491 0 -560 -2 -560 -15 0 -13 69
-15 560 -15 l560 0 0 -31 c0 -26 3 -30 18 -24 37 15 187 65 194 65 5 0 8 -225
8 -499 l0 -500 24 -28 24 -28 2676 0 2675 0 23 23 23 23 5 478 5 479 820 -813
820 -813 -19 -21 c-11 -12 -17 -23 -15 -25 6 -5 199 -103 199 -101 0 1 -18 41
-40 89 -85 184 -32 86 146 -266 166 -330 187 -368 209 -368 13 0 32 11 43 25
l20 25 68 -135 c38 -74 76 -137 85 -140 23 -8 47 4 54 26 4 10 9 19 13 19 4 0
37 -60 75 -134 64 -128 82 -149 115 -138 20 6 532 1037 532 1070 0 44 -33 53
-172 51 -65 -1 -119 0 -120 2 -1 2 15 39 35 81 42 88 45 113 18 128 -11 5 -78
10 -150 10 -72 0 -131 2 -131 5 0 3 16 37 35 75 19 38 35 81 35 96 0 54 7 53
-551 54 -554 0 -551 0 -551 -51 0 -13 34 -94 77 -179 42 -85 74 -152 69 -147
-4 4 -18 -3 -31 -15 l-23 -21 -807 804 c-445 442 -809 807 -811 812 -2 4 278
7 622 7 550 0 626 2 626 15 0 13 -76 15 -626 15 -351 0 -624 4 -622 9 2 4 309
317 684 694 672 678 681 686 700 667 19 -19 20 -18 73 81 29 55 51 102 49 104
-2 2 -48 -20 -101 -49z m-1507 -536 c20 -20 20 -33 20 -981 0 -643 -3 -967
-10 -980 -11 -19 -51 -19 -2685 -19 -2634 0 -2674 0 -2685 19 -7 13 -10 337
-10 980 0 948 0 961 20 981 20 20 33 20 2675 20 2642 0 2655 0 2675 -20z"/>
<path d="M7330 4045 c0 -65 3 -86 13 -82 8 2 12 28 12 82 0 54 -4 80 -12 83
-10 3 -13 -18 -13 -83z"/>
<path d="M7770 4120 c0 -5 5 -10 10 -10 6 0 10 5 10 10 0 6 -4 10 -10 10 -5 0
-10 -4 -10 -10z"/>
<path d="M7855 4122 c-5 -4 -16 -18 -23 -31 -11 -18 -11 -25 -2 -31 7 -4 10
-25 9 -50 -2 -28 1 -45 9 -48 8 -2 12 11 12 47 0 37 5 53 18 60 16 10 16 10 0
11 -22 0 -24 18 -3 26 8 4 12 10 9 15 -6 11 -16 11 -29 1z"/>
<path d="M7905 4120 c-3 -5 1 -10 9 -10 9 0 16 5 16 10 0 6 -4 10 -9 10 -6 0
-13 -4 -16 -10z"/>
<path d="M7212 4068 c-16 -16 -15 -73 2 -87 23 -19 55 -21 72 -3 12 11 13 17
4 20 -6 2 -17 -1 -23 -7 -6 -6 -14 -11 -19 -11 -14 0 -29 41 -23 61 6 18 12
20 43 14 32 -6 34 -5 23 9 -16 19 -62 21 -79 4z"/>
<path d="M7395 4070 c-11 -18 4 -25 25 -13 14 10 21 9 30 -2 14 -16 6 -22 -40
-27 -33 -4 -40 -42 -10 -58 16 -9 25 -8 36 1 11 9 17 9 29 -1 18 -15 40 -3 26
14 -5 6 -11 29 -13 51 -3 38 -5 40 -40 43 -20 2 -39 -2 -43 -8z m55 -64 c0
-17 -27 -29 -35 -16 -4 6 -3 15 0 20 9 15 35 12 35 -4z"/>
<path d="M7520 4065 c-16 -19 -6 -32 36 -50 45 -19 35 -39 -15 -31 -34 6 -35
5 -17 -9 24 -18 47 -19 70 -2 27 20 16 49 -22 59 -32 9 -41 21 -22 33 5 3 18
0 29 -7 11 -7 24 -9 28 -5 4 5 1 12 -7 17 -23 15 -66 12 -80 -5z"/>
<path d="M7644 4065 c-10 -25 3 -43 36 -50 41 -9 33 -31 -11 -27 -26 2 -31 0
-22 -9 17 -17 73 -15 84 2 16 25 10 36 -33 52 -33 14 -39 20 -30 29 10 10 17
10 33 0 22 -14 35 -10 24 7 -10 17 -75 13 -81 -4z"/>
<path d="M7770 4026 c0 -30 5 -58 10 -61 6 -4 10 17 10 54 0 34 -4 61 -10 61
-5 0 -10 -24 -10 -54z"/>
<path d="M7906 4025 c1 -72 18 -72 22 0 2 40 -1 55 -10 55 -9 0 -13 -16 -12
-55z"/>
<path d="M7970 4061 c-14 -28 -12 -66 4 -80 22 -19 53 -21 73 -5 16 13 15 14
-17 11 -26 -1 -35 2 -38 16 -3 14 4 17 32 17 28 0 36 4 36 18 0 42 -70 60 -90
23z m60 -6 c10 -12 9 -16 -5 -21 -19 -8 -40 9 -31 25 10 15 21 14 36 -4z"/>
<path d="M8092 4024 c4 -66 22 -76 26 -15 3 33 8 44 23 48 31 9 22 21 -16 21
l-36 0 3 -54z"/>
<path d="M7588 3419 c-49 -75 -49 -186 -3 -266 36 -61 63 -59 30 2 -45 85 -43
198 5 265 23 33 25 40 7 40 -7 0 -25 -19 -39 -41z"/>
<path d="M7938 3285 c-2 -135 0 -175 10 -175 9 0 12 42 12 175 0 105 -4 175
-10 175 -5 0 -10 -73 -12 -175z"/>
<path d="M8260 3456 c0 -2 12 -25 27 -52 40 -70 40 -167 1 -243 -24 -44 -25
-52 -11 -49 10 2 29 23 43 48 21 38 25 58 25 125 0 70 -4 86 -28 128 -15 26
-34 47 -42 47 -8 0 -15 -2 -15 -4z"/>
<path d="M9113 3433 c-33 -49 -43 -83 -43 -149 0 -88 38 -174 77 -174 11 0 10
6 -4 28 -33 48 -43 82 -43 146 0 50 6 75 28 120 31 60 20 80 -15 29z"/>
<path d="M9432 3443 c64 -73 70 -224 12 -300 -24 -31 -24 -33 -5 -33 13 0 29
16 48 47 24 41 28 58 27 123 0 52 -5 85 -18 110 -24 47 -46 70 -64 70 -13 0
-13 -2 0 -17z"/>
<path d="M7310 3319 c0 -108 2 -129 15 -129 11 0 15 12 15 50 l0 50 51 0 c50
0 87 12 101 34 4 6 8 28 8 48 0 50 -26 66 -117 71 l-73 4 0 -128z m138 85 c25
-18 29 -56 7 -74 -9 -7 -38 -15 -65 -18 l-50 -5 0 57 0 56 43 0 c23 0 53 -7
65 -16z"/>
<path d="M8118 3443 c-10 -3 -34 -49 -66 -129 -44 -109 -48 -124 -32 -124 12
0 22 12 30 35 l12 35 62 0 c62 0 62 0 75 -35 7 -19 19 -35 27 -35 8 0 14 3 14
7 0 12 -91 237 -98 244 -4 3 -14 4 -24 2z m25 -75 c8 -24 18 -51 22 -60 6 -16
1 -18 -39 -18 -25 0 -46 4 -46 9 0 10 41 111 45 111 2 0 10 -19 18 -42z"/>
<path d="M8838 3443 c-16 -4 -18 -19 -18 -129 0 -117 1 -124 20 -124 17 0 20
7 20 50 l0 50 54 0 c68 0 106 26 106 73 0 37 -7 50 -35 64 -24 12 -122 23
-147 16z m132 -43 c31 -31 25 -57 -17 -79 -12 -6 -38 -11 -57 -11 l-36 0 0 55
0 55 45 0 c32 0 51 -6 65 -20z"/>
<path d="M9288 3443 c-15 -4 -38 -51 -97 -200 -19 -50 -20 -53 -3 -53 11 0 23
13 31 35 12 35 13 35 72 35 59 0 60 -1 75 -35 8 -19 21 -35 29 -35 8 0 15 2
15 5 0 9 -93 240 -99 246 -3 3 -14 4 -23 2z m52 -150 c0 -2 -20 -3 -45 -3 -50
0 -51 2 -31 51 7 19 16 43 20 54 6 16 12 9 32 -39 13 -33 24 -61 24 -63z"/>
<path d="M7680 3315 l0 -125 74 0 c59 0 78 4 100 21 33 26 34 63 1 93 -22 21
-23 25 -10 36 22 18 19 77 -4 90 -11 5 -51 10 -90 10 l-71 0 0 -125z m131 95
c23 -13 25 -43 3 -60 -8 -8 -34 -14 -57 -14 -39 -1 -42 1 -45 27 -2 16 -1 35
2 43 6 17 68 19 97 4z m19 -120 c24 -24 24 -30 6 -55 -10 -14 -27 -19 -67 -20
l-54 0 -3 33 c-5 53 2 62 53 62 32 0 51 -6 65 -20z"/>
<path d="M8580 3235 c0 -18 5 -25 20 -25 15 0 20 7 20 25 0 18 -5 25 -20 25
-15 0 -20 -7 -20 -25z"/>
<path d="M5458 3103 c-36 -41 -51 -89 -52 -158 0 -59 4 -78 28 -122 20 -37 35
-53 49 -53 19 0 19 1 4 18 -29 32 -48 93 -48 156 0 66 10 103 42 147 15 22 17
29 6 29 -8 0 -21 -8 -29 -17z"/>
<path d="M5790 2945 c0 -149 2 -175 15 -175 13 0 15 26 15 175 0 149 -2 175
-15 175 -13 0 -15 -26 -15 -175z"/>
<path d="M6141 3064 c44 -85 39 -191 -13 -266 -15 -22 -16 -28 -5 -28 57 0
101 182 65 267 -19 45 -48 83 -63 83 -10 0 -6 -16 16 -56z"/>
<path d="M5188 3103 l-28 -4 0 -125 c0 -101 3 -124 14 -124 11 0 16 14 18 48
l3 47 63 5 c70 6 102 30 102 77 0 36 -42 73 -84 73 -19 0 -40 2 -48 3 -7 2
-25 2 -40 0z m106 -33 c21 -8 26 -16 26 -44 0 -32 -3 -36 -38 -47 -21 -6 -49
-9 -62 -7 -22 3 -25 8 -28 56 l-3 52 40 0 c22 0 51 -4 65 -10z"/>
<path d="M5601 3078 c-5 -13 -28 -68 -50 -122 -23 -55 -41 -101 -41 -103 0 -1
7 -3 16 -3 8 0 22 16 30 35 l15 36 61 -3 c61 -3 63 -4 72 -35 6 -22 15 -33 27
-33 18 0 18 3 -3 58 -57 154 -74 187 -96 190 -15 2 -25 -4 -31 -20z m56 -68
l22 -60 -49 0 -49 0 22 60 c12 33 24 60 27 60 3 0 15 -27 27 -60z"/>
<path d="M5880 2974 l0 -126 86 3 c71 3 88 7 100 23 22 31 17 72 -11 95 -23
18 -24 20 -9 29 24 13 23 71 -1 88 -12 9 -46 14 -92 14 l-73 0 0 -126z m131
96 c11 -6 19 -21 19 -36 0 -27 -30 -44 -81 -44 -28 0 -29 2 -29 45 0 45 0 45
36 45 19 0 44 -5 55 -10z m17 -116 c49 -34 10 -84 -65 -84 l-43 0 0 50 0 50
43 0 c23 0 53 -7 65 -16z"/>
<path d="M6350 3015 c0 -12 17 -15 90 -15 73 0 90 3 90 15 0 12 -17 15 -90 15
-73 0 -90 -3 -90 -15z"/>
<path d="M7588 2933 c464 -2 1220 -2 1680 0 460 1 81 2 -843 2 -924 0 -1301
-1 -837 -2z"/>
<path d="M6350 2920 c0 -6 37 -10 90 -10 53 0 90 4 90 10 0 6 -37 10 -90 10
-53 0 -90 -4 -90 -10z"/>
<path d="M8352 2753 c-51 -74 -57 -180 -14 -264 15 -31 35 -55 45 -57 17 -3
15 2 -10 45 -24 42 -28 58 -28 128 0 68 4 87 27 128 30 52 14 68 -20 20z"/>
<path d="M8670 2771 c0 -5 7 -14 15 -21 8 -7 22 -38 31 -68 21 -70 13 -138
-21 -199 -29 -53 -29 -53 -10 -53 8 0 27 21 42 48 24 41 28 57 28 127 0 70 -4
86 -28 128 -24 41 -57 63 -57 38z"/>
<path d="M8067 2763 c-4 -3 -7 -62 -7 -130 0 -116 1 -123 20 -123 17 0 20 7
20 49 l0 49 61 4 c49 4 66 9 80 27 38 47 19 104 -39 121 -42 11 -125 14 -135
3z m145 -40 c43 -39 10 -83 -63 -83 l-49 0 0 50 0 50 47 0 c29 0 53 -6 65 -17z"/>
<path d="M8440 2641 l0 -131 64 0 c78 0 113 12 127 43 13 30 -4 77 -32 84
l-20 6 21 14 c13 9 20 25 20 48 0 44 -22 56 -112 63 l-68 5 0 -132z m131 89
c21 -12 25 -40 7 -58 -7 -7 -34 -12 -60 -12 l-48 0 0 40 0 40 41 0 c22 0 49
-5 60 -10z m17 -112 c7 -7 12 -21 12 -33 0 -33 -20 -45 -77 -45 l-53 0 0 45 0
45 53 0 c29 0 58 -5 65 -12z"/>
<path d="M2062 4744 c-30 -21 -28 -41 16 -133 44 -93 36 -91 -66 14 -51 51
-81 75 -97 75 -17 0 -77 -53 -220 -195 l-195 -194 -504 -3 c-535 -3 -536 -3
-536 -51 0 -27 506 -1040 531 -1062 17 -16 21 -16 41 -3 22 15 519 996 534
1053 4 17 1 32 -10 44 -16 18 -14 18 55 -1 215 -57 371 -219 420 -438 7 -30
12 -61 12 -67 0 -7 3 -13 6 -13 4 0 71 65 150 144 80 80 149 142 154 139 4 -3
43 -75 85 -160 l77 -154 -113 -113 -114 -114 15 -28 c9 -16 51 -64 95 -108
l80 -78 63 35 c86 48 167 67 280 67 111 0 171 -15 270 -64 l74 -37 87 89 c62
62 88 96 88 113 0 18 -62 86 -248 272 -136 136 -253 247 -260 247 -6 0 -12 2
-12 5 0 2 74 153 165 335 91 182 165 340 165 350 0 10 -10 26 -22 34 -20 14
-87 16 -533 16 -446 0 -513 -2 -533 -16z m92 -280 c3 -8 2 -12 -4 -9 -6 3 -10
10 -10 16 0 14 7 11 14 -7z m50 -100 c3 -8 2 -12 -4 -9 -6 3 -10 10 -10 16 0
14 7 11 14 -7z m55 -114 c11 -24 11 -24 -3 -6 -9 11 -16 24 -16 30 0 12 5 7
19 -24z m55 -106 c3 -8 2 -12 -4 -9 -6 3 -10 10 -10 16 0 14 7 11 14 -7z m487
-157 c-10 -9 -11 -8 -5 6 3 10 9 15 12 12 3 -3 0 -11 -7 -18z m-31 -66 c-28
-56 -35 -52 -8 4 12 24 23 43 26 41 2 -2 -6 -22 -18 -45z m-49 -94 c-10 -9
-11 -8 -5 6 3 10 9 15 12 12 3 -3 0 -11 -7 -18z m-31 -66 c-28 -56 -35 -52 -8
4 12 24 23 43 26 41 2 -2 -6 -22 -18 -45z m-30 -59 c0 -5 -7 -17 -15 -28 -14
-18 -14 -17 -4 9 12 27 19 34 19 19z m-30 -56 c0 -2 -7 -7 -16 -10 -8 -3 -12
-2 -9 4 6 10 25 14 25 6z"/>
<path d="M1417 3322 c-185 -186 -247 -254 -247 -272 0 -36 403 -439 422 -422
24 19 131 69 168 78 19 4 37 8 40 9 3 1 30 5 61 9 l57 8 151 152 c119 121 149
156 145 172 -3 12 -117 132 -253 268 -190 189 -253 246 -272 246 -19 0 -81
-57 -272 -248z"/>
<path d="M11710 3275 l0 -74 98 33 c53 18 104 35 112 38 8 2 -26 17 -75 33
-50 15 -100 31 -112 36 -23 8 -23 7 -23 -66z"/>
<path d="M2076 2723 c-13 -4 0 -13 45 -31 238 -94 384 -318 374 -569 -4 -75
-32 -198 -54 -232 -12 -18 110 -265 138 -280 15 -8 24 -7 39 7 29 25 534 1039
530 1065 -6 45 -23 47 -553 46 -275 -1 -509 -4 -519 -6z"/>
</g>
</svg>
